<svg width="424" height="424" viewBox="0 0 424 424" fill="none" xmlns="http://www.w3.org/2000/svg">
<path d="M210.304 417.945C324.442 417.945 416.97 366.277 416.97 302.541C416.97 238.805 324.442 187.137 210.304 187.137C96.1653 187.137 3.6377 238.805 3.6377 302.541C3.6377 366.277 96.1653 417.945 210.304 417.945Z" fill="#F5F5F5"/>
<path d="M85.835 346.255C110.104 346.255 129.778 334.896 129.778 320.883C129.778 306.87 110.104 295.511 85.835 295.511C61.5657 295.511 41.8916 306.87 41.8916 320.883C41.8916 334.896 61.5657 346.255 85.835 346.255Z" fill="#E0E0E0"/>
<path d="M100.226 295.104C100.141 289.295 102.956 254.527 102.956 254.527L85.6484 262.77C87.3444 283.834 88.7776 293.883 88.7267 295.588C88.6408 295.862 88.5979 296.148 88.5995 296.436C88.4214 300.268 92.8395 302.584 96.3078 305.331C99.2297 307.751 102.35 309.921 105.636 311.818C108.18 313.183 113.403 313.582 114.116 312.03C109.944 308.638 105.11 304.966 101.845 301.193C100.31 299.344 100.293 299.141 100.226 295.104Z" fill="#9E6767"/>
<path d="M121.315 316.533C121.536 316.533 121.756 318.89 120.467 319.815C119.025 320.875 114.853 322.528 109.494 321.579C104.135 320.629 101.319 318.848 99.2162 317.05C97.1132 315.253 94.2384 312.632 91.8216 311.962C89.5829 311.36 87.1661 310.266 86.4708 309.554C85.7754 308.842 86.0298 305.891 86.0298 305.891L121.315 316.533Z" fill="black"/>
<path d="M105.347 302.686C105.017 302.329 104.694 301.973 104.389 301.617C103.586 300.651 102.953 299.555 102.515 298.378C102.287 297.883 102.086 297.376 101.913 296.86C101.726 296.148 101.625 295.401 101.481 294.68C101.418 294.327 101.322 293.981 101.192 293.646C101.113 293.423 100.948 293.24 100.734 293.137C100.603 293.111 100.467 293.111 100.336 293.137C98.3155 293.203 96.3278 293.664 94.4845 294.494C94.0012 294.714 93.6365 294.977 93.5772 295.52C93.6223 296.148 93.5326 296.778 93.3143 297.369C93.268 297.478 93.1915 297.572 93.0938 297.64C93.0224 297.679 92.9422 297.7 92.8606 297.7C92.7791 297.7 92.6989 297.679 92.6274 297.64C92.4817 297.559 92.3591 297.442 92.2713 297.301C91.737 296.546 91.6098 295.537 90.9993 294.833C90.6604 294.464 90.2113 294.214 89.7188 294.121C89.4813 294.07 88.6757 294.053 88.6249 293.714L88.4722 292.145C88.4722 292.145 87.9889 291.916 87.6751 292.849C87.4543 293.818 87.3293 294.806 87.302 295.8C87.2002 296.877 87.0561 297.716 86.8695 298.785C86.6405 300.057 86.4285 301.329 86.225 302.601C85.9282 303.821 85.8111 305.078 85.8773 306.332C85.9392 306.885 86.209 307.395 86.6321 307.757C87.2727 308.4 88.0257 308.92 88.8538 309.292C89.9732 309.834 91.1434 310.275 92.2967 310.759C95.0034 312.051 97.5039 313.737 99.7167 315.762C102.968 318.273 106.828 319.874 110.902 320.4C116.261 320.756 120.128 319.247 121.29 317.466C121.476 316.228 121.638 314.922 121.12 314.006C119.424 310.988 115.328 309.766 112.089 307.943C110.68 307.113 109.329 306.189 108.044 305.179C107.078 304.423 106.176 303.589 105.347 302.686Z" fill="#293C39"/>
<path d="M102.243 310.521C102.339 310.578 102.451 310.601 102.562 310.588C102.672 310.574 102.775 310.523 102.854 310.444C105.194 308.146 109.638 306.781 111.096 307.307C111.096 307.307 110.918 306.595 109.4 306.162C109.4 306.162 105.508 305.789 101.658 309.444C101.603 309.497 101.561 309.563 101.536 309.635C101.51 309.708 101.501 309.785 101.51 309.861C101.519 309.937 101.546 310.011 101.588 310.075C101.629 310.139 101.686 310.193 101.752 310.232L102.243 310.521Z" fill="#FAFAFA"/>
<path d="M107.433 304.652C105.822 304.042 101.921 305.755 99.9964 307.629C99.9189 307.711 99.8137 307.762 99.7009 307.772C99.5882 307.781 99.476 307.748 99.3859 307.68L98.9025 307.315C98.8494 307.272 98.8066 307.218 98.7771 307.156C98.7477 307.095 98.7324 307.027 98.7324 306.959C98.7324 306.891 98.7477 306.823 98.7771 306.762C98.8066 306.7 98.8494 306.646 98.9025 306.603C99.988 305.602 103.143 303.05 106.144 303.465C106.111 303.465 107.315 304.059 107.433 304.652Z" fill="#FAFAFA"/>
<path d="M104.389 301.617C103.227 301.354 100.149 301.999 97.6045 304C97.555 304.038 97.4977 304.065 97.4366 304.079C97.3756 304.093 97.3122 304.094 97.2509 304.081C97.1897 304.068 97.1319 304.042 97.0817 304.005C97.0315 303.967 96.9899 303.919 96.96 303.864L96.7396 303.423C96.6927 303.337 96.6781 303.236 96.6983 303.14C96.7185 303.044 96.7722 302.958 96.8498 302.898C97.6978 302.202 100.708 300.091 103.524 300.464C103.909 300.765 104.207 301.163 104.389 301.617Z" fill="#FAFAFA"/>
<path d="M114.073 308.927C107.382 310.343 104.804 314.625 103.583 318.145C105.873 319.309 108.35 320.058 110.901 320.358C116.261 320.714 120.127 319.205 121.289 317.424C121.476 316.186 121.637 314.88 121.12 313.964C119.771 311.539 116.846 310.275 114.073 308.927Z" fill="#FAFAFA"/>
<path d="M72.8605 270.428L56.7485 268.146C57.0029 276.626 56.4517 287.939 56.0786 297.462C55.6269 299.537 55.5437 301.675 55.8327 303.779C56.1634 305.611 53.2887 318.679 54.1367 322.495C55.3578 328.227 64.3127 326.438 64.6858 322.978C65.0589 319.518 66.1274 312.59 67.2977 303.474C68.2389 295.673 72.7842 270.97 72.8605 270.428Z" fill="#9E6767"/>
<path d="M66.7378 325.149L61.3699 313.167C59.869 312.319 58.0882 310.623 56.4176 311.555C55.8288 311.852 55.2837 312.229 54.7979 312.675C53.5514 313.913 53.4326 315.702 53.1019 317.313C52.7712 318.925 51.584 320.4 51.3296 322.071C50.8462 325.217 50.719 327.209 51.5586 330.101C52.3981 332.993 55.2134 334.629 58.0203 335.452C60.3693 336.139 63.3542 335.511 64.6602 333.51C66.2798 330.992 66.6275 328.532 66.7378 325.149Z" fill="black"/>
<path d="M66.6701 325.039C64.5077 322.122 54.0604 321.079 51.1348 323.699C51.1348 323.318 51.2111 322.902 51.262 322.47C51.5634 319.615 52.1689 316.8 53.0682 314.074C53.632 312.371 54.0657 310.628 54.3656 308.859C54.5946 307.036 54.866 303.254 54.9847 301.965C55.0186 300.692 55.1375 299.423 55.3408 298.166C55.4341 297.793 55.5444 297.318 56.0362 297.462C56.0362 297.462 56.0362 298.09 55.9599 298.471C55.8836 298.853 55.9005 299.251 55.8751 299.582C55.8072 300.362 55.8072 301.066 55.7988 301.855C55.7771 302.155 55.8116 302.457 55.9005 302.745C55.9253 302.811 55.9697 302.867 56.0277 302.906C56.2482 302.999 56.2312 302.482 56.2482 302.38L56.5959 300.438C56.6019 300.336 56.6406 300.238 56.7061 300.159C56.7638 300.102 56.8333 300.058 56.9096 300.031C58.5463 299.395 59.7589 298.853 61.4464 299.133C62.3864 299.271 63.3117 299.496 64.2109 299.802C64.8639 300.031 66.0256 300.396 66.3903 301.032C66.5249 301.342 66.5547 301.687 66.4751 302.016C66.3818 302.864 66.2631 303.873 66.1359 304.857C65.9917 306.044 67.5012 302.067 67.7556 299.819C68.3831 299.964 68.3068 300.667 67.7556 303.33C67.0975 306.675 66.6669 310.061 66.4666 313.464C66.314 316.178 66.314 318.899 66.4666 321.613C66.5853 322.817 66.6532 323.937 66.6701 325.039Z" fill="#293C39"/>
<path d="M54.6707 318.458C58.0102 318.049 61.399 318.399 64.5838 319.484C64.6269 319.502 64.6738 319.51 64.7204 319.505C64.767 319.501 64.8117 319.485 64.8505 319.459C64.8893 319.433 64.921 319.397 64.9425 319.356C64.9641 319.314 64.9749 319.268 64.9739 319.221V318.297C64.9735 318.245 64.9581 318.194 64.9296 318.15C64.901 318.106 64.8604 318.072 64.8128 318.051C61.6288 316.697 58.1036 316.362 54.7216 317.093C54.6637 317.104 54.6108 317.133 54.5698 317.175C54.5289 317.218 54.5019 317.272 54.4926 317.33L54.3654 318.178C54.3639 318.217 54.371 318.257 54.3861 318.293C54.4013 318.329 54.4242 318.362 54.4532 318.389C54.4823 318.415 54.5168 318.435 54.5544 318.447C54.5919 318.459 54.6316 318.463 54.6707 318.458Z" fill="#FAFAFA"/>
<path d="M55.6463 313.862C58.6511 313.434 61.7156 313.848 64.4994 315.058C64.5399 315.076 64.5842 315.083 64.6285 315.08C64.6727 315.077 64.7155 315.063 64.7532 315.04C64.7908 315.017 64.8222 314.984 64.8445 314.946C64.8667 314.908 64.8793 314.864 64.881 314.82V313.972C64.8795 313.922 64.8634 313.874 64.8348 313.833C64.8061 313.793 64.7662 313.761 64.7199 313.743C63.9227 313.387 61.1074 311.708 55.6887 312.615C55.6329 312.622 55.5805 312.646 55.5393 312.684C55.4981 312.722 55.4702 312.772 55.4597 312.827L55.341 313.574C55.3396 313.613 55.3467 313.653 55.3618 313.69C55.3769 313.726 55.3996 313.759 55.4285 313.787C55.4574 313.814 55.4917 313.835 55.5293 313.848C55.5668 313.861 55.6067 313.865 55.6463 313.862Z" fill="#FAFAFA"/>
<path d="M56.4774 309.664C59.2884 309.229 62.1653 309.615 64.7624 310.775C64.8014 310.792 64.8441 310.799 64.8866 310.796C64.929 310.792 64.9698 310.778 65.0053 310.754C65.0407 310.73 65.0697 310.698 65.0895 310.66C65.1093 310.623 65.1193 310.581 65.1185 310.538V309.69C65.1152 309.643 65.0993 309.598 65.0724 309.559C65.0456 309.52 65.0088 309.489 64.9659 309.469C64.2281 309.122 61.5739 307.511 56.4859 308.426C56.4327 308.435 56.3834 308.46 56.3453 308.498C56.3072 308.536 56.2822 308.585 56.2739 308.638L56.1637 309.359C56.1557 309.402 56.1584 309.446 56.1715 309.487C56.1846 309.528 56.2077 309.566 56.2387 309.596C56.2698 309.626 56.3078 309.648 56.3495 309.66C56.3911 309.672 56.4351 309.674 56.4774 309.664Z" fill="#FAFAFA"/>
<path d="M51.1599 323.733C51.0667 326.573 51.3126 328.507 52.8051 330.627C54.7046 333.34 61.726 335.876 64.7534 331.856C66.2543 329.855 66.602 327.515 66.7377 325.149C64.7449 322.147 54.0601 321.07 51.1599 323.733Z" fill="#FAFAFA"/>
<path d="M60.6149 178.419C58.3508 196.694 58.6306 218.691 57.9183 230.47C57.206 242.248 55.8915 250.254 55.7474 259.217C55.5015 274.371 55.9679 290.864 55.9679 290.864C55.9679 290.864 62.3448 294.502 69.5359 292.111C69.5359 292.111 75.5397 261.447 77.0746 252C79.2709 238.543 82.1626 214.621 82.1626 214.621L84.8084 240.061C83.6335 246.367 83.3679 252.81 84.0197 259.191C84.6812 265.127 87.505 286.845 87.505 286.845C89.7293 287.723 92.1193 288.102 94.5062 287.955C96.893 287.809 99.2187 287.14 101.319 285.997C101.319 285.997 105.042 244.445 105.347 238.958C105.796 231.233 106.288 173.662 106.195 167.073L60.6149 178.419Z" fill="#334D45"/>
<path d="M82.1455 214.587L84.1722 201.019C84.1722 201.019 93.3137 198.475 97.189 192.318C94.645 199.891 86.2159 203.249 86.2159 203.249L83.3242 216.419L84.7997 240.027L82.1455 214.587Z" fill="#293C39"/>
<path d="M95.1794 117.117C102.396 118.254 104.762 120.738 107.323 126.852C111.682 137.274 115.913 147.552 115.913 147.552L135.85 155.523L134.094 168.243C134.094 168.243 118.779 165.106 109.774 162.723C107.23 162.036 106.305 160.408 105.05 158.559C104.016 157.05 94.1279 138.639 94.1279 138.639L95.1794 117.117Z" fill="#203332"/>
<path d="M104.957 133.687C103.091 124.071 102.227 119.805 95.9768 117.66C89.727 115.514 79.0168 115.599 79.0168 115.599C75.7944 116.447 65.7371 118.855 61.3529 120.161C56.9688 121.467 57.8761 131.66 58.8937 138.164C60.1258 145.593 60.9074 153.088 61.2342 160.611C61.0646 170.973 60.1318 177.969 59.7248 183.897C69.0528 189.833 96.3499 188.781 106.246 182.82C106.475 177.893 106.551 164.893 106.467 158.516C106.305 146.551 105.737 137.74 104.957 133.687Z" fill="#293C39"/>
<path d="M64.3632 119.033C60.6404 119.678 55.934 120.729 53.8225 124.121C52.2961 126.58 44.1977 145.601 44.4012 153.352C47.5049 162.146 63.5406 146.008 63.5406 146.008C65.3892 135.518 67.6619 124.605 64.3632 119.033Z" fill="#203332"/>
<path d="M98.8424 78.16C96.4821 75.6681 93.3798 74.0054 89.9978 73.4197C86.6409 72.7783 83.1799 72.941 79.8981 73.8946C76.0991 75.0139 72.0202 78.2787 71.7743 82.9343C69.9595 83.3498 68.6282 85.2069 68.1787 87.4032C67.4834 90.7952 68.5603 94.4416 69.7984 97.5114C69.7984 97.5114 73.8943 104.889 74.6575 106.424C75.5055 108.213 76.1754 109.706 76.1754 109.706L75.9464 104.1C78.1714 104.053 80.3784 103.691 82.5015 103.023C84.6079 102.265 86.6497 101.337 88.6071 100.25C92.4817 98.0461 96.1462 95.4914 99.5547 92.6184C101.497 91.0327 101.853 89.2264 101.946 86.7757C102.032 85.205 101.802 83.6329 101.269 82.1529C100.735 80.6729 99.9104 79.3151 98.8424 78.16Z" fill="#203332"/>
<path d="M80.7547 84.0791C80.2296 86.4444 78.9462 88.5735 77.0998 90.1423C77.5068 92.3834 77.5298 94.6775 77.1676 96.9263C77.0829 97.4086 76.9043 97.8696 76.6419 98.2831C76.505 98.4864 76.3258 98.6576 76.1164 98.7849C75.9071 98.9123 75.6726 98.9928 75.4292 99.0208C74.7763 99.0208 74.5134 98.6562 74.3183 98.1728C74.0341 97.514 73.7084 96.8739 73.3431 96.2564C73.1849 95.9854 72.9941 95.7348 72.775 95.5101C71.7913 94.5773 68.8487 93.4156 67.4411 96.5362C66.0334 99.6568 68.535 104.109 70.9009 104.804C74.9883 106.008 75.9126 103.227 75.9126 103.227L76.4977 117.872C78.694 120.229 87.1571 123.681 89.5399 126.471C90.6593 124.613 93.1439 121.518 90.9222 117.397V112.606C92.5461 112.687 94.1739 112.579 95.7727 112.284C97.9012 111.902 99.9619 109.985 100.963 106.78C102.904 100.522 101.938 91.8976 101.2 88.0138C100.818 85.6568 99.7641 83.4601 98.1641 81.6877C98.0885 81.6052 97.9949 81.5412 97.8905 81.5006C97.7861 81.4601 97.6739 81.4442 97.5624 81.454C97.4508 81.4638 97.3431 81.4992 97.2474 81.5574C97.1518 81.6156 97.0708 81.695 97.0108 81.7895C96.4724 82.503 95.7921 83.0973 95.0128 83.5351C94.2334 83.973 93.372 84.2448 92.4825 84.3335C89.9385 84.6727 85.8087 84.0112 82.6966 83.0021C82.4986 82.9337 82.2885 82.9078 82.0798 82.926C81.8712 82.9442 81.6687 83.0061 81.4855 83.1076C81.3023 83.2092 81.1426 83.3482 81.0167 83.5156C80.8908 83.6829 80.8015 83.8749 80.7547 84.0791Z" fill="#9E6767"/>
<path d="M90.922 112.581C87.1399 112.182 83.1882 111.538 81.0767 110.393C79.7066 109.684 78.5678 108.599 77.7949 107.264C77.7949 107.264 77.956 108.773 79.9573 110.8C82.213 113.081 90.922 114.022 90.922 114.022V112.581Z" fill="#874C4C"/>
<path d="M87.0469 95.0439C87.0402 95.2996 86.9586 95.5476 86.8123 95.7573C86.6659 95.967 86.4611 96.1291 86.2235 96.2235C85.9858 96.3179 85.7256 96.3404 85.4753 96.2883C85.2249 96.2361 84.9954 96.1117 84.8151 95.9303C84.6349 95.7489 84.5118 95.5185 84.4613 95.2678C84.4108 95.0171 84.4349 94.7571 84.5308 94.5201C84.6267 94.283 84.7901 94.0793 85.0007 93.9342C85.2113 93.7892 85.4599 93.7092 85.7156 93.7041C86.0695 93.7063 86.4081 93.8485 86.6575 94.0995C86.907 94.3505 87.0469 94.6901 87.0469 95.0439Z" fill="#203332"/>
<path d="M95.7725 88.1917C97.1333 88.4167 98.4227 88.9568 99.5376 89.769C99.7394 89.2541 99.7337 88.6811 99.5218 88.1703C99.3099 87.6595 98.9083 87.2508 98.4013 87.03C98.1529 86.9281 97.8866 86.8774 97.6182 86.881C97.3498 86.8846 97.0849 86.9424 96.8394 87.0509C96.5939 87.1594 96.3729 87.3164 96.1895 87.5124C96.0062 87.7085 95.8643 87.9395 95.7725 88.1917Z" fill="#203332"/>
<path d="M86.988 102.718L91.652 104.049C91.579 104.361 91.4437 104.656 91.2544 104.914C91.065 105.173 90.8254 105.391 90.5498 105.555C90.2743 105.718 89.9685 105.825 89.6509 105.868C89.3332 105.911 89.0101 105.889 88.7009 105.804C88.0715 105.612 87.5414 105.182 87.2219 104.607C86.9025 104.031 86.8186 103.354 86.988 102.718Z" fill="#874C4C"/>
<path d="M87.4374 103.795C87.9706 103.836 88.4704 104.071 88.8422 104.455C89.2141 104.839 89.4323 105.347 89.4556 105.881C89.2016 105.893 88.9472 105.868 88.7009 105.805C88.2697 105.661 87.885 105.404 87.5867 105.061C87.2885 104.718 87.0876 104.301 87.0049 103.854C87.1468 103.821 87.2916 103.801 87.4374 103.795Z" fill="#F28F8F"/>
<path d="M86.3006 91.3973C84.956 91.6417 83.7369 92.3426 82.8492 93.3816C82.7177 93.1602 82.6318 92.9148 82.5964 92.6597C82.5611 92.4046 82.5771 92.145 82.6434 91.8962C82.7098 91.6474 82.8252 91.4143 82.9828 91.2107C83.1405 91.0071 83.3372 90.837 83.5615 90.7104C84.0182 90.4483 84.5588 90.3735 85.0695 90.5016C85.5803 90.6296 86.0216 90.9507 86.3006 91.3973Z" fill="#203332"/>
<path d="M98.6051 94.0264C98.6001 94.2841 98.5194 94.5346 98.373 94.7469C98.2267 94.9591 98.0212 95.1236 97.7821 95.2199C97.543 95.3162 97.2808 95.3401 97.0282 95.2885C96.7757 95.237 96.5438 95.1124 96.3615 94.9301C96.1793 94.7478 96.0546 94.516 96.0031 94.2634C95.9516 94.0108 95.9754 93.7487 96.0718 93.5096C96.1681 93.2705 96.3326 93.065 96.5448 92.9186C96.757 92.7723 97.0075 92.6916 97.2653 92.6865C97.6206 92.6865 97.9614 92.8277 98.2127 93.079C98.4639 93.3302 98.6051 93.671 98.6051 94.0264Z" fill="#203332"/>
<path d="M90.8115 91.5244L91.6595 101.175L96.4422 99.7076C95.1608 96.6147 93.2423 93.8265 90.8115 91.5244Z" fill="#874C4C"/>
<path d="M89.5398 126.445C87.8438 125.411 84.5536 122.985 82.9084 125.063C81.2633 127.141 80.0507 129.566 78.8465 129.201C77.6424 128.837 73.6907 125.063 72.1982 121.807C71.4456 120.024 71.0537 118.111 71.0449 116.176C71.0449 116.176 72.478 114.599 73.6652 113.377C74.9796 112.021 75.2001 111.681 76.2092 111.597L76.3449 115.209C76.4556 115.926 76.7074 116.614 77.0859 117.232C77.4644 117.851 77.9619 118.388 78.5497 118.813C81.5177 120.959 87.4283 121.73 89.5398 126.445Z" fill="#203332"/>
<path d="M89.54 126.445C90.5407 125.546 91.9399 123.121 93.5511 123.596C95.1623 124.071 96.7311 127.259 96.782 126.394C96.8328 125.529 95.3997 120.941 94.0599 118.406C93.0338 116.456 91.9992 114.734 90.9223 114.539V117.371C90.9223 117.371 90.9223 119.822 90.8036 121.289C90.7403 123.076 90.3102 124.831 89.54 126.445Z" fill="#203332"/>
<path d="M64.1768 125.885C65.7917 123.863 66.988 121.54 67.696 119.05C68.4168 116.15 70.7064 113.479 71.4865 112.385C72.2667 111.291 73.9457 109.672 75.2262 108.145C76.5067 106.619 76.9222 106.169 78.7284 105.864C81.2724 105.432 83.2483 105.016 84.2404 105.338C85.2326 105.66 85.1987 106.288 84.3422 107.161C83.4857 108.035 81.6625 108.255 81.1028 108.425C80.5432 108.595 79.3051 109.137 79.3051 109.137L76.9561 112.589C78.5673 112.863 80.157 113.252 81.7134 113.75C82.4936 114.174 83.1635 116.184 82.8158 117.304C82.8158 117.304 84.2744 118.287 83.6638 119.72C83.6638 119.72 84.5542 120.882 83.9436 121.84C83.2538 122.801 82.4604 123.682 81.5777 124.469C81.0944 124.885 79.1779 124.986 79.1779 124.986C78.3329 126.274 77.3238 127.445 76.176 128.472C74.8107 129.481 73.9203 129.413 72.4278 131.533L64.1768 125.885Z" fill="#9E6767"/>
<path d="M78.7451 112.928C79.6864 112.521 79.8984 111.885 80.7888 112.224C81.6792 112.563 81.3315 113.572 81.3315 113.572L78.7451 112.928Z" fill="#874C4C"/>
<path d="M82.7905 117.371C82.2023 116.874 81.5525 116.455 80.8571 116.124C80.2041 115.802 78.8643 115.327 78.8643 115.327C79.8129 115.407 80.7445 115.627 81.6287 115.98C82.0813 116.155 82.5158 116.374 82.9262 116.633C82.9236 116.854 82.8922 117.073 82.8329 117.286L82.7905 117.371Z" fill="#874C4C"/>
<path d="M82.9175 118.72C83.2327 118.852 83.5387 119.005 83.8334 119.178C83.8089 119.398 83.7576 119.614 83.6807 119.822C82.9377 119.148 82.0748 118.618 81.1367 118.262C81.7458 118.346 82.3433 118.5 82.9175 118.72Z" fill="#874C4C"/>
<path d="M78.8643 125.503C79.4101 124.403 80.0604 123.358 80.8062 122.383C81.0465 122.112 81.3803 121.943 81.7405 121.908C82.1007 121.873 82.4607 121.976 82.7481 122.196C82.994 122.578 81.7051 122.527 81.3319 122.696C80.3681 123.498 79.5355 124.445 78.8643 125.503Z" fill="#874C4C"/>
<path d="M75.8701 112.469C75.8701 112.469 76.5994 111.443 77.8968 109.807C79.1943 108.17 79.1264 108.408 80.39 108.162C81.6535 107.916 84.0533 107.483 84.6978 106.729C84.5898 106.876 84.4707 107.015 84.3416 107.144C83.4936 107.992 81.662 108.238 81.1023 108.408C80.5426 108.577 79.3045 109.12 79.3045 109.12L76.8877 112.673L75.8701 112.469Z" fill="#874C4C"/>
<path d="M64.1765 125.885C59.928 131.015 48.4715 143.311 45.7918 148.255C43.9602 151.647 43.5022 159.542 45.3678 162.408C47.2334 165.274 52.5843 164.104 56.9176 160.271C60.6488 156.989 63.7694 149.095 66.483 143.472C69.1966 137.85 72.419 131.515 72.419 131.515L64.1765 125.885Z" fill="#9E6767"/>
<path d="M64.1768 125.885C65.1498 124.586 66.0014 123.201 66.7208 121.747C67.066 121.014 67.3497 120.254 67.5688 119.474C67.7529 118.68 68.0113 117.905 68.3404 117.159C69.0545 115.696 69.9245 114.314 70.9353 113.038C71.8979 111.732 72.9491 110.494 74.0814 109.332C74.6326 108.738 75.1499 108.119 75.6672 107.492C76.1592 106.818 76.837 106.302 77.6176 106.008C78.4069 105.798 79.2083 105.637 80.0174 105.525C80.8145 105.389 81.6116 105.245 82.4257 105.16C82.8335 105.109 83.2447 105.092 83.6553 105.109C84.0889 105.11 84.5118 105.243 84.868 105.491C84.9632 105.565 85.0375 105.662 85.0836 105.774C85.1297 105.885 85.146 106.007 85.1308 106.127C85.0939 106.347 85.0069 106.556 84.8764 106.737C84.6347 107.079 84.326 107.367 83.9691 107.585C83.2442 107.98 82.4591 108.252 81.6456 108.391C80.8651 108.599 80.1069 108.883 79.3814 109.239L79.4408 109.196L77.0833 112.639L77.0155 112.47C78.4571 112.758 79.8987 113.029 81.3148 113.462C81.4978 113.515 81.6742 113.589 81.8406 113.682C82.0075 113.788 82.1516 113.927 82.2646 114.089C82.4797 114.399 82.6483 114.739 82.7649 115.098C83.0358 115.807 83.0976 116.578 82.943 117.32V117.218C83.3379 117.499 83.651 117.879 83.8504 118.321C83.9493 118.545 83.9985 118.788 83.9945 119.033C83.9963 119.277 83.9502 119.519 83.8588 119.745V119.661C84.089 119.94 84.2441 120.274 84.3093 120.63C84.3746 120.986 84.348 121.353 84.232 121.696C83.8645 122.29 83.4322 122.842 82.943 123.341C82.7056 123.595 82.4681 123.841 82.2137 124.087C81.9803 124.356 81.6909 124.57 81.3657 124.715C80.6951 124.909 80.0029 125.02 79.3051 125.045H79.356C78.9095 125.701 78.4283 126.332 77.9144 126.937C77.4244 127.572 76.8543 128.143 76.2184 128.633C75.5654 129.099 74.8276 129.396 74.1832 129.862C73.5571 130.338 73.0104 130.911 72.5635 131.558C72.9674 130.877 73.4769 130.265 74.0729 129.743C74.7089 129.269 75.4467 128.955 76.0827 128.48C76.7202 127.992 77.2905 127.421 77.7787 126.784C78.2797 126.172 78.7495 125.535 79.1864 124.876C79.8727 124.841 80.5527 124.727 81.2131 124.537C81.5195 124.401 81.7897 124.194 82.0017 123.935C82.2476 123.697 82.4936 123.451 82.7225 123.197C83.1983 122.707 83.6191 122.167 83.9776 121.586C84.0778 121.269 84.0969 120.932 84.0332 120.606C83.9695 120.28 83.825 119.976 83.6129 119.72V119.678C83.6898 119.468 83.73 119.248 83.7316 119.025C83.729 118.803 83.6829 118.584 83.596 118.38C83.4063 117.971 83.1142 117.617 82.748 117.354H82.6971V117.286C82.8409 116.583 82.779 115.853 82.519 115.183C82.2731 114.522 81.9254 113.818 81.1876 113.682C79.7884 113.267 78.3384 112.995 76.9476 112.716H76.778L76.8713 112.571L79.2118 109.12C79.9484 108.763 80.7181 108.479 81.5099 108.272C82.2968 108.136 83.0578 107.879 83.7656 107.509C84.1085 107.294 84.3983 107.004 84.6136 106.661C84.8425 106.356 84.9528 105.949 84.6136 105.728C83.9148 105.373 83.1148 105.271 82.3494 105.44C81.5014 105.524 80.7467 105.652 79.9496 105.787C79.1527 105.898 78.3628 106.054 77.5836 106.254C76.8343 106.533 76.1829 107.025 75.7096 107.67C75.1923 108.289 74.6665 108.917 74.1153 109.51C72.9731 110.659 71.9159 111.889 70.9523 113.19C69.9428 114.453 69.0728 115.82 68.3574 117.269C68.0188 118.005 67.7519 118.772 67.5603 119.559C67.342 120.339 67.0583 121.099 66.7123 121.832C65.9895 123.255 65.1409 124.612 64.1768 125.885Z" fill="#874C4C"/>
<path d="M146.721 138.64L112.606 151.224L103.753 192.165L104.533 192.971L136.952 180.327L147.501 139.437L146.721 138.64Z" fill="#43A548"/>
<path opacity="0.25" d="M146.721 138.64L112.606 151.224L103.753 192.165L104.533 192.971L136.952 180.327L147.501 139.437L146.721 138.64Z" fill="white"/>
<path d="M113.386 152.029L104.533 192.971L103.753 192.165L112.606 151.224L113.386 152.029Z" fill="#43A548"/>
<path opacity="0.35" d="M113.386 152.029L104.533 192.971L103.753 192.165L112.606 151.224L113.386 152.029Z" fill="black"/>
<path d="M147.501 139.437L113.386 152.029L104.533 192.971L136.952 180.327L147.501 139.437Z" fill="#43A548"/>
<g opacity="0.2">
<path d="M131.736 172.144C132.067 172.941 134.721 174.688 138.52 174.298L139.131 171.932L131.736 172.144Z" fill="black"/>
</g>
<g opacity="0.1">
<path d="M137.291 147.942L137.554 146.577C137.698 145.814 135.688 146.238 133.068 147.526L126.911 149.485C124.291 150.774 121.823 151.733 121.662 152.487L121.399 153.861L137.291 147.942Z" fill="black"/>
</g>
<path d="M139.242 141.726C139.335 141.251 138.546 141.361 137.461 141.666L135.494 142.37C135.494 142.37 136.155 140.021 131.618 141.709C125.809 143.863 126.42 145.745 126.42 145.745C125.619 146.104 124.798 146.415 123.961 146.678C122.265 147.255 122.078 147.594 121.943 148.077L121.705 148.925L139.072 142.54C139.072 142.54 139.148 142.201 139.242 141.726Z" fill="#293C39"/>
<path d="M137.443 144.38C135.832 145.135 135.162 145.508 134.899 146.67C134.637 148.01 134.586 148.561 134.586 148.561L125.538 152.284C125.538 152.284 126.004 150.316 126.114 149.663C126.224 149.01 125.02 149.019 123.46 149.773L123.808 148.137L137.783 143.049L137.443 144.38Z" fill="#203332"/>
<path d="M137.758 147.959L138.021 146.593C138.165 145.83 136.163 146.254 133.543 147.543L127.378 149.502C124.758 150.782 122.29 151.749 122.129 152.504L121.866 153.878L137.758 147.959Z" fill="#203332"/>
<path d="M143.888 153.488C143.888 153.488 142.735 157.982 142.43 159.119C142.125 160.255 136.553 162.926 133.746 163.359C128.379 164.105 127.81 165.284 129.133 169.083C130.371 172.585 133.899 173.865 138.741 173.221C140.265 172.904 141.677 172.187 142.832 171.143C143.987 170.1 144.843 168.768 145.313 167.285C146.823 162.765 145.907 157.957 146.492 155.336C147.077 152.716 145.228 151.868 143.888 153.488Z" fill="#9E6767"/>
<path d="M156.566 203.52C156.998 202.502 158.109 201.765 159.788 201.561C161.639 201.436 163.493 201.751 165.199 202.48C166.904 203.21 168.412 204.333 169.6 205.759C170.617 207.107 170.863 208.421 170.448 209.439L142.506 282.469C141.972 284.012 140.394 285.123 137.927 285.428C133.229 285.996 127.115 283.393 124.274 279.611C122.781 277.627 122.502 275.71 123.231 274.26L156.566 203.52Z" fill="#334D45"/>
<path d="M169.6 205.758C171.635 208.463 170.558 210.99 167.2 211.397C165.359 211.519 163.515 211.205 161.818 210.482C160.121 209.758 158.618 208.646 157.431 207.234C155.395 204.528 156.472 202.001 159.831 201.594C161.672 201.472 163.516 201.785 165.213 202.508C166.91 203.232 168.413 204.345 169.6 205.758Z" fill="#293C39"/>
<path d="M170.286 182.32C171.407 182.244 172.529 182.435 173.561 182.878C174.593 183.32 175.505 184.001 176.222 184.864C176.497 185.156 176.688 185.516 176.776 185.906C176.864 186.297 176.846 186.704 176.723 187.086L167.683 208.286C167.493 208.639 167.212 208.934 166.869 209.142C166.526 209.349 166.134 209.46 165.733 209.464C164.613 209.541 163.49 209.35 162.458 208.908C161.426 208.465 160.514 207.784 159.797 206.92C159.522 206.627 159.331 206.265 159.243 205.873C159.155 205.481 159.174 205.073 159.296 204.69L168.336 183.49C168.528 183.14 168.81 182.847 169.153 182.641C169.496 182.436 169.887 182.325 170.286 182.32Z" fill="#43A548"/>
<path opacity="0.2" d="M170.286 182.32C171.407 182.244 172.529 182.435 173.561 182.878C174.593 183.32 175.505 184.001 176.222 184.864C176.497 185.156 176.688 185.516 176.776 185.906C176.864 186.297 176.846 186.704 176.723 187.086L167.683 208.286C167.493 208.639 167.212 208.934 166.869 209.142C166.526 209.349 166.134 209.46 165.733 209.464C164.613 209.541 163.49 209.35 162.458 208.908C161.426 208.465 160.514 207.784 159.797 206.92C159.522 206.627 159.331 206.265 159.243 205.873C159.155 205.481 159.174 205.073 159.296 204.69L168.336 183.49C168.528 183.14 168.81 182.847 169.153 182.641C169.496 182.436 169.887 182.325 170.286 182.32Z" fill="black"/>
<path opacity="0.2" d="M164.172 193.285L164.799 193.649L164.893 193.709L165.011 193.777L165.147 193.844C165.545 194.081 165.956 194.296 166.377 194.489C166.884 194.746 167.405 194.975 167.937 195.176C168.405 195.379 168.883 195.557 169.37 195.71C169.617 195.799 169.869 195.873 170.125 195.93C170.4 196.035 170.684 196.117 170.973 196.176C171.261 196.261 171.524 196.329 171.821 196.388C172.024 196.447 172.231 196.49 172.44 196.516H172.652L176.697 187.018C176.82 186.637 176.838 186.23 176.75 185.839C176.662 185.448 176.471 185.088 176.197 184.796C175.95 184.479 175.666 184.194 175.349 183.948C172.824 184.722 170.211 185.169 167.572 185.28L164.172 193.285Z" fill="black"/>
<path opacity="0.15" d="M163.867 211.152L134.45 285.301C135.596 285.493 136.763 285.53 137.919 285.411C140.386 285.106 141.963 283.995 142.498 282.452L170.38 209.456C169.947 210.482 168.837 211.203 167.158 211.406C166.054 211.509 164.942 211.423 163.867 211.152Z" fill="black"/>
<path d="M255.773 94.5178C255.773 93.9072 255.722 93.3051 255.671 92.703C255.62 92.101 255.603 91.5243 255.544 90.9392C255.544 90.5406 255.468 90.1506 255.417 89.7605C255.315 88.7429 255.171 87.7338 255.001 86.7755C254.925 86.3346 254.849 85.9275 254.764 85.4526C254.679 84.9778 254.594 84.6046 254.501 84.223C254.247 83.1122 253.975 82.0267 253.653 80.9837C253.492 80.4918 253.339 80 253.17 79.5166C253.139 79.4428 253.117 79.3661 253.102 79.2877C252.924 78.8043 252.754 78.3464 252.568 77.897C252.381 77.4475 252.152 76.837 251.915 76.3451C251.677 75.8533 251.584 75.6074 251.389 75.2512C251.279 74.9814 251.149 74.7205 250.999 74.471C250.846 74.1573 250.685 73.835 250.498 73.5298C250.464 73.4591 250.424 73.3911 250.38 73.3262C250.227 73.0549 250.066 72.7835 249.905 72.4782C249.744 72.173 249.676 72.1306 249.574 71.961C248.803 70.7611 247.936 69.6266 246.979 68.569L246.504 68.0262C246.369 67.8736 246.233 67.7379 246.097 67.6022C245.962 67.4666 245.758 67.2546 245.572 67.0765C245.083 66.5763 244.561 66.1089 244.011 65.6773C243.757 65.4568 243.485 65.2448 243.214 65.0498C242.943 64.8547 242.671 64.6427 242.366 64.4477C241.925 64.1339 241.476 63.8371 241.026 63.5997L240.67 63.3792L240.594 63.3198L232.199 58.376L232.08 58.3082C227.996 56.0271 223.385 54.8575 218.707 54.9162C211.736 54.9162 203.867 57.1973 195.523 62.0054C166.877 78.533 143.65 118.72 143.65 151.792C143.65 168.285 149.425 179.894 158.745 185.33H158.838L167.25 190.257L167.344 190.316L167.462 190.384C167.513 190.384 167.556 190.435 167.598 190.452C167.996 190.689 168.406 190.904 168.828 191.096C169.336 191.351 169.862 191.58 170.396 191.783C170.86 191.989 171.335 192.164 171.821 192.309C172.066 192.405 172.319 192.481 172.576 192.538C172.851 192.643 173.135 192.725 173.424 192.784C173.712 192.869 173.975 192.937 174.272 192.996C174.475 193.051 174.682 193.093 174.891 193.123C175.255 193.2 175.637 193.276 176.019 193.318C176.102 193.352 176.191 193.37 176.281 193.369C176.722 193.437 177.18 193.505 177.621 193.547C185.347 194.395 194.327 192.182 203.909 186.636C232.563 170.1 255.79 129.862 255.79 96.7989C255.815 96.0866 255.798 95.3064 255.773 94.5178ZM161.255 172.534C160.063 168.111 159.476 163.547 159.508 158.966C159.508 127.59 182.404 87.8949 209.582 72.2238C213.551 69.8756 217.834 68.1052 222.302 66.9662C224.441 66.4269 226.635 66.1423 228.84 66.1182C229.951 66.113 231.06 66.1981 232.156 66.3726H232.249C237.804 72.9446 238.618 83.4768 238.618 89.099C238.618 120.475 215.722 160.17 188.586 175.832C181.683 179.818 175.018 181.93 169.345 181.93C168.163 181.937 166.985 181.786 165.843 181.48C163.722 178.853 162.161 175.82 161.255 172.568V172.534Z" fill="#293C39"/>
<path opacity="0.25" d="M248.353 94.662C248.353 111.308 241.883 130.32 231.749 146.839C231.274 147.628 230.782 148.4 230.282 149.171C229.782 149.943 229.434 150.494 228.985 151.156C228.026 152.572 227.068 153.963 226.059 155.328C225.584 155.984 225.101 156.628 224.609 157.261C224.075 157.965 223.532 158.661 222.989 159.347C221.946 160.662 220.861 161.942 219.767 163.189C219.046 164.037 218.308 164.843 217.57 165.631C211.956 171.807 205.458 177.117 198.287 181.387C196.99 182.142 195.743 182.82 194.437 183.439C190.31 185.545 185.838 186.889 181.234 187.408C180.51 187.482 179.782 187.518 179.054 187.518C178.673 187.518 178.317 187.518 177.952 187.518C177.261 187.492 176.573 187.421 175.891 187.306C175.561 187.255 175.23 187.204 174.916 187.128C174.602 187.052 174.28 186.992 173.966 186.899C170.753 186.08 167.896 184.23 165.834 181.633C166.974 181.936 168.149 182.084 169.328 182.074C175.026 182.074 181.666 179.979 188.577 175.994C215.713 160.331 238.609 120.594 238.609 89.2518C238.609 83.6211 237.761 73.1398 232.232 66.5254H232.148C239.228 67.6617 243.248 72.4614 245.521 78.0327C246.162 79.6093 246.678 81.234 247.064 82.8918C247.064 82.9851 247.106 83.0699 247.123 83.1632C247.2 83.46 247.276 83.7652 247.327 84.0705C247.378 84.3758 247.445 84.6556 247.496 84.9185C247.502 84.9947 247.502 85.0713 247.496 85.1475C247.556 85.4612 247.615 85.775 247.666 86.0803C247.844 87.242 247.988 88.3699 248.081 89.4723C248.081 89.7945 248.141 90.0913 248.158 90.3881C248.175 90.6849 248.158 90.846 248.209 91.0665C248.209 91.1598 248.209 91.2531 248.209 91.3464C248.209 91.5923 248.209 91.8297 248.251 92.0672C248.255 92.1321 248.255 92.1972 248.251 92.2622C248.251 92.5675 248.251 92.8501 248.251 93.1102C248.353 93.619 248.353 94.1278 248.353 94.662Z" fill="black"/>
<path d="M166.529 189.952L158.745 185.373C149.417 179.92 143.65 168.32 143.65 151.852C143.65 137.105 148.272 120.933 155.921 106.06L164.791 111.148C157.159 125.988 152.071 141.981 152.071 156.736C152.054 172.899 157.549 184.347 166.529 189.952Z" fill="#203332"/>
<path d="M240.705 63.3539L240.629 63.2945L232.233 58.3592L232.115 58.2829C228.031 56.0007 223.419 54.831 218.742 54.8909C211.771 54.8909 203.902 57.172 195.557 61.9801C179.683 71.147 165.479 87.5982 155.973 106.076L164.8 111.266L164.605 111.631C174.145 93.3646 188.281 76.8625 203.986 66.9325C218.199 57.9776 231.691 57.8504 241.112 63.5405L240.705 63.3539Z" fill="#334D45"/>
<path opacity="0.1" d="M243.842 91.9996C243.842 123.376 220.946 163.07 193.768 178.742C189.801 181.093 185.517 182.864 181.048 183.999C178.909 184.538 176.715 184.823 174.51 184.847C172.246 184.874 169.996 184.489 167.87 183.711C164.478 180.878 162.46 176.791 161.238 172.585C160.047 168.162 159.459 163.598 159.492 159.017C159.492 127.641 182.388 87.9462 209.566 72.2751C213.534 69.9269 217.818 68.1565 222.286 67.0175C224.424 66.4782 226.619 66.1936 228.824 66.1695C231.087 66.1405 233.337 66.5226 235.464 67.2973C238.856 70.1212 240.874 74.2255 242.095 78.4231C243.288 82.849 243.875 87.416 243.842 91.9996Z" fill="#43A548"/>
<path opacity="0.3" d="M174.526 184.864C176.731 184.84 178.926 184.555 181.064 184.016C185.534 182.88 189.818 181.11 193.784 178.758C220.92 163.087 243.859 123.358 243.859 92.0161C243.891 87.4353 243.304 82.8712 242.112 78.4481C240.891 74.2589 238.864 70.1631 235.506 67.3393L235.184 67.229C234.887 67.1188 234.59 67.0255 234.276 66.9322L233.742 66.7881C233.437 66.7033 233.115 66.6439 232.801 66.5761L232.241 66.4658C237.804 73.0378 238.618 83.5615 238.618 89.1922C238.618 120.568 215.722 160.272 188.586 175.934C181.675 179.92 175.018 182.014 169.337 182.014C168.157 182.024 166.982 181.876 165.843 181.573L165.894 181.641C166.514 182.386 167.198 183.075 167.937 183.702C170.046 184.483 172.278 184.877 174.526 184.864Z" fill="white"/>
<path d="M305.822 106.958L267.501 129.082C265.449 130.261 263.787 129.006 263.787 126.267V93.0252C263.787 90.2862 265.483 87.0892 267.501 85.919L305.822 63.8032C307.875 62.616 309.537 63.871 309.537 66.61V99.8601C309.52 102.608 307.875 105.771 305.822 106.958Z" fill="#FAFAFA"/>
<path d="M266.026 129.93C265.621 129.934 265.222 129.828 264.872 129.625C263.923 129.082 263.38 127.861 263.38 126.233V93.0252C263.38 90.159 265.144 86.8179 267.298 85.5713L305.619 63.447C306.029 63.1605 306.509 62.9911 307.008 62.9567C307.507 62.9223 308.006 63.0244 308.451 63.2519C309.401 63.8031 309.944 65.0243 309.944 66.6439V99.894C309.944 102.752 308.188 106.101 306.026 107.348L267.713 129.43C267.204 129.742 266.622 129.915 266.026 129.93ZM307.298 63.7862C306.847 63.8011 306.408 63.9357 306.026 64.1763L267.713 86.2751C265.771 87.3945 264.194 90.4219 264.194 93.0591V126.301C264.194 127.59 264.593 128.556 265.279 128.955C265.602 129.106 265.96 129.168 266.315 129.133C266.67 129.099 267.009 128.97 267.298 128.76L305.619 106.636C307.552 105.516 309.129 102.497 309.129 99.894V66.61C309.129 65.3211 308.731 64.3543 308.044 63.9558C307.816 63.8287 307.559 63.7643 307.298 63.7692V63.7862Z" fill="#E0E0E0"/>
<path d="M297.418 82.0439L289.6 110.164L305.237 101.132L297.418 82.0439Z" fill="#43A548"/>
<path opacity="0.3" d="M297.418 82.0439L289.6 110.164L305.237 101.132L297.418 82.0439Z" fill="white"/>
<path d="M286.666 80.1104L278.839 116.371L294.484 107.34L286.666 80.1104Z" fill="#43A548"/>
<path d="M275.998 98.8682L268.18 122.527L283.817 113.505L275.998 98.8682Z" fill="#43A548"/>
<path opacity="0.3" d="M275.998 98.8682L268.18 122.527L283.817 113.505L275.998 98.8682Z" fill="black"/>
<path d="M269.664 91.2786L268.434 91.9909C268.29 92.0672 268.18 91.9909 268.18 91.7959V89.7861C268.181 89.6912 268.205 89.5979 268.249 89.5139C268.293 89.4299 268.357 89.3575 268.434 89.3027L269.664 88.5904C269.808 88.5056 269.918 88.5904 269.918 88.7854V90.7867C269.917 90.8828 269.893 90.9773 269.849 91.0627C269.805 91.1481 269.741 91.222 269.664 91.2786Z" fill="#43A548"/>
<path opacity="0.3" d="M269.664 91.2786L268.434 91.9909C268.29 92.0672 268.18 91.9909 268.18 91.7959V89.7861C268.181 89.6912 268.205 89.5979 268.249 89.5139C268.293 89.4299 268.357 89.3575 268.434 89.3027L269.664 88.5904C269.808 88.5056 269.918 88.5904 269.918 88.7854V90.7867C269.917 90.8828 269.893 90.9773 269.849 91.0627C269.805 91.1481 269.741 91.222 269.664 91.2786Z" fill="black"/>
<path d="M269.664 95.1451L268.434 95.8574C268.29 95.9422 268.18 95.8574 268.18 95.6624V93.6611C268.181 93.565 268.205 93.4705 268.249 93.3852C268.293 93.2998 268.356 93.2259 268.434 93.1693L269.664 92.4315C269.808 92.3552 269.918 92.4315 269.918 92.6266V94.6363C269.921 94.7355 269.899 94.8339 269.855 94.9227C269.81 95.0114 269.745 95.0878 269.664 95.1451Z" fill="#43A548"/>
<path d="M269.664 99.0121L268.434 99.7244C268.29 99.8092 268.18 99.7244 268.18 99.5379V97.5196C268.18 97.4245 268.203 97.3307 268.247 97.2465C268.291 97.1622 268.356 97.0901 268.434 97.0363L269.664 96.324C269.808 96.2392 269.918 96.324 269.918 96.5105V98.5203C269.92 98.6169 269.897 98.7124 269.853 98.7982C269.808 98.884 269.743 98.9575 269.664 99.0121Z" fill="#43A548"/>
<path opacity="0.3" d="M269.664 99.0121L268.434 99.7244C268.29 99.8092 268.18 99.7244 268.18 99.5379V97.5196C268.18 97.4245 268.203 97.3307 268.247 97.2465C268.291 97.1622 268.356 97.0901 268.434 97.0363L269.664 96.324C269.808 96.2392 269.918 96.324 269.918 96.5105V98.5203C269.92 98.6169 269.897 98.7124 269.853 98.7982C269.808 98.884 269.743 98.9575 269.664 99.0121Z" fill="white"/>
<path d="M203.037 218.589C203.109 218.555 203.172 218.504 203.221 218.441C203.27 218.377 203.303 218.303 203.317 218.224C203.49 217.534 203.626 216.835 203.724 216.13C203.823 215.464 203.882 214.793 203.902 214.12C203.902 213.95 203.817 213.857 203.698 213.899L202.308 214.323C202.295 213.385 202.146 212.454 201.867 211.559L203.054 209.863C203.104 209.797 203.138 209.721 203.154 209.64C203.17 209.56 203.168 209.476 203.147 209.397C202.801 208.52 202.255 207.736 201.553 207.107C201.468 207.039 201.332 207.107 201.231 207.251L200.052 208.947C199.485 208.563 198.82 208.351 198.135 208.337L198.424 206.318C198.424 206.14 198.381 206.021 198.271 206.021C197.799 206.058 197.332 206.149 196.88 206.293C196.382 206.445 195.9 206.644 195.439 206.886C195.372 206.935 195.315 206.997 195.273 207.069C195.231 207.14 195.203 207.22 195.193 207.302L194.905 209.32C194.073 209.849 193.315 210.485 192.649 211.211L191.869 210.083C191.801 209.99 191.665 210.016 191.555 210.143C190.637 211.23 189.83 212.406 189.147 213.653C189.11 213.723 189.091 213.8 189.091 213.878C189.091 213.956 189.11 214.034 189.147 214.103L189.927 215.222C189.4 216.278 188.972 217.379 188.646 218.513L187.256 218.937C187.183 218.971 187.119 219.022 187.069 219.085C187.019 219.148 186.984 219.222 186.967 219.301C186.798 219.997 186.662 220.692 186.56 221.396C186.468 222.065 186.411 222.739 186.391 223.414C186.391 223.575 186.475 223.668 186.594 223.634L187.985 223.21C187.997 224.143 188.146 225.069 188.426 225.958L187.239 227.654C187.189 227.72 187.155 227.796 187.139 227.877C187.123 227.957 187.125 228.041 187.145 228.12C187.487 228.999 188.034 229.784 188.74 230.41C188.824 230.478 188.96 230.41 189.062 230.274L190.241 228.578C190.806 228.958 191.468 229.169 192.149 229.189L191.869 231.207C191.869 231.377 191.911 231.504 192.021 231.495C192.493 231.462 192.96 231.373 193.412 231.233C193.91 231.077 194.393 230.876 194.854 230.63C194.922 230.583 194.98 230.521 195.022 230.45C195.065 230.378 195.091 230.298 195.1 230.215L195.388 228.197C196.219 227.671 196.978 227.038 197.644 226.314L198.424 227.433C198.492 227.535 198.627 227.51 198.738 227.383C199.655 226.294 200.46 225.115 201.137 223.863C201.175 223.795 201.195 223.717 201.195 223.639C201.195 223.56 201.175 223.483 201.137 223.414L200.357 222.295C200.882 221.242 201.311 220.143 201.638 219.013L203.037 218.589ZM195.888 223.745C192.259 226.569 189.766 222.99 191.699 217.715C192.225 216.186 193.154 214.827 194.387 213.781C198.017 210.948 200.51 214.535 198.576 219.81C198.051 221.339 197.122 222.699 195.888 223.745Z" fill="#E6E6E6"/>
<path d="M213.628 219.022C213.656 218.989 213.676 218.951 213.687 218.91C213.699 218.869 213.702 218.826 213.696 218.784C213.666 218.379 213.61 217.977 213.527 217.58C213.448 217.22 213.338 216.868 213.196 216.528C213.196 216.469 213.103 216.469 213.043 216.528L212.102 217.376C211.89 216.942 211.572 216.569 211.178 216.291L211.669 214.892C211.669 214.799 211.669 214.705 211.669 214.68C211.149 214.405 210.56 214.287 209.973 214.341C209.914 214.341 209.846 214.417 209.812 214.51L209.32 215.909C208.783 216.006 208.27 216.208 207.811 216.503L207.565 215.392C207.562 215.378 207.556 215.364 207.547 215.353C207.537 215.342 207.525 215.334 207.512 215.329C207.498 215.323 207.483 215.322 207.469 215.324C207.454 215.326 207.441 215.332 207.429 215.341C207.088 215.583 206.762 215.847 206.454 216.13C206.124 216.439 205.813 216.768 205.521 217.114C205.492 217.147 205.469 217.186 205.456 217.228C205.443 217.271 205.439 217.315 205.445 217.36L205.691 218.47C205.225 219.071 204.819 219.716 204.478 220.395L203.63 220.234C203.58 220.234 203.503 220.234 203.469 220.361C203.039 221.275 202.704 222.229 202.469 223.211C202.469 223.304 202.469 223.38 202.528 223.389L203.376 223.558C203.228 224.261 203.157 224.977 203.164 225.695L202.231 226.543C202.197 226.574 202.17 226.612 202.152 226.655C202.134 226.697 202.127 226.743 202.129 226.789C202.154 227.194 202.211 227.597 202.299 227.993C202.377 228.353 202.488 228.705 202.63 229.045C202.63 229.104 202.723 229.104 202.782 229.045L203.724 228.197C203.93 228.634 204.249 229.009 204.648 229.282L204.156 230.69C204.156 230.775 204.156 230.868 204.156 230.894C204.677 231.168 205.266 231.286 205.852 231.233C205.912 231.233 205.979 231.156 206.013 231.063L206.497 229.672C207.036 229.569 207.551 229.365 208.015 229.07L208.26 230.181C208.26 230.197 208.264 230.213 208.273 230.226C208.282 230.24 208.295 230.25 208.31 230.256C208.325 230.261 208.341 230.262 208.357 230.258C208.372 230.254 208.386 230.245 208.396 230.232C208.739 229.993 209.065 229.729 209.371 229.444C209.701 229.137 210.013 228.812 210.304 228.468C210.361 228.396 210.388 228.305 210.38 228.214L210.135 227.112C210.598 226.506 211.004 225.859 211.347 225.178L212.195 225.348C212.246 225.348 212.322 225.297 212.356 225.212C212.781 224.297 213.116 223.343 213.357 222.363C213.357 222.269 213.357 222.193 213.298 222.185L212.45 222.015C212.598 221.313 212.669 220.596 212.662 219.878L213.628 219.022ZM209.388 225.025C207.446 227.722 205.047 227.179 205.208 224.025C205.298 222.775 205.732 221.574 206.463 220.556C208.413 217.868 210.804 218.411 210.652 221.566C210.564 222.815 210.127 224.014 209.388 225.025Z" fill="#E6E6E6"/>
<path d="M216.359 200.196C216.394 200.165 216.421 200.127 216.438 200.085C216.456 200.042 216.464 199.996 216.461 199.95C216.436 199.545 216.379 199.142 216.292 198.746C216.213 198.386 216.103 198.034 215.961 197.694C215.961 197.635 215.868 197.635 215.808 197.694L214.867 198.542C214.656 198.108 214.341 197.733 213.951 197.449L214.434 196.058C214.434 195.965 214.434 195.871 214.434 195.846C213.914 195.571 213.325 195.453 212.738 195.507C212.679 195.507 212.611 195.583 212.577 195.676L212.094 197.067C211.555 197.17 211.04 197.375 210.576 197.669L210.33 196.558C210.327 196.544 210.321 196.53 210.312 196.519C210.302 196.508 210.29 196.5 210.277 196.495C210.263 196.489 210.248 196.488 210.234 196.49C210.219 196.492 210.206 196.498 210.194 196.507C209.853 196.749 209.527 197.013 209.219 197.296C208.891 197.604 208.58 197.93 208.286 198.271C208.258 198.306 208.237 198.347 208.225 198.391C208.214 198.435 208.211 198.481 208.219 198.526L208.465 199.636C207.993 200.235 207.584 200.88 207.243 201.561L206.395 201.392C206.345 201.392 206.277 201.443 206.234 201.527C205.803 202.439 205.462 203.39 205.217 204.368C205.217 204.462 205.217 204.538 205.276 204.546L206.124 204.716C205.976 205.418 205.905 206.135 205.912 206.853L204.979 207.701C204.945 207.732 204.918 207.77 204.9 207.812C204.883 207.855 204.875 207.901 204.877 207.947C204.902 208.352 204.959 208.755 205.047 209.151C205.125 209.511 205.236 209.863 205.378 210.202C205.378 210.262 205.471 210.262 205.53 210.202L206.472 209.354C206.684 209.788 207.002 210.161 207.396 210.44L206.904 211.848C206.904 211.932 206.904 212.026 206.904 212.051C207.425 212.326 208.014 212.444 208.6 212.39C208.66 212.39 208.727 212.314 208.761 212.221L209.253 210.83C209.789 210.723 210.3 210.519 210.763 210.228L211.009 211.339C211.011 211.353 211.018 211.366 211.027 211.378C211.036 211.389 211.048 211.397 211.062 211.402C211.076 211.407 211.09 211.409 211.105 211.407C211.119 211.405 211.133 211.399 211.144 211.39C211.489 211.152 211.815 210.889 212.119 210.601C212.449 210.295 212.761 209.969 213.052 209.626C213.082 209.591 213.105 209.551 213.118 209.507C213.131 209.463 213.135 209.417 213.129 209.371L212.883 208.269C213.346 207.664 213.752 207.017 214.095 206.336L214.943 206.505C214.994 206.505 215.07 206.454 215.113 206.37C215.535 205.454 215.867 204.5 216.105 203.52C216.105 203.427 216.105 203.351 216.046 203.342L215.198 203.173C215.346 202.47 215.417 201.754 215.41 201.036L216.359 200.196ZM212.119 206.2C210.169 208.897 207.778 208.354 207.93 205.199C208.019 203.948 208.457 202.746 209.194 201.731C211.136 199.043 213.536 199.577 213.374 202.74C213.285 203.986 212.854 205.183 212.128 206.2H212.119Z" fill="#E6E6E6"/>
<path d="M120.679 105.024C120.535 105.101 120.416 105.024 120.416 104.77V71.9948C120.414 71.8876 120.436 71.7812 120.482 71.6841C120.528 71.587 120.595 71.5018 120.679 71.4351C120.823 71.3503 120.942 71.4351 120.942 71.6895V104.465C120.943 104.572 120.92 104.678 120.874 104.775C120.829 104.871 120.762 104.957 120.679 105.024Z" fill="#E0E0E0"/>
<path d="M154.845 85.3004L117.533 106.831C117.389 106.916 117.279 106.831 117.279 106.577C117.276 106.472 117.297 106.367 117.342 106.272C117.386 106.176 117.451 106.092 117.533 106.026L154.845 84.4948C154.989 84.41 155.099 84.4948 155.099 84.7407C155.103 84.8473 155.081 84.9532 155.037 85.0502C154.993 85.1473 154.927 85.2329 154.845 85.3004Z" fill="#E0E0E0"/>
<path d="M127.115 74.3945L122.536 77.0403V100.055L127.115 97.4093V74.3945Z" fill="#F5F5F5"/>
<path d="M133.619 86.6064L129.04 89.2522V96.2991L133.619 93.6533V86.6064Z" fill="#EBEBEB"/>
<path d="M140.124 61.4121L135.545 64.0579V92.5422L140.124 89.8964V61.4121Z" fill="#F5F5F5"/>
<path d="M146.628 69.0352L142.049 71.6809V88.7851L146.628 86.1393V69.0352Z" fill="#E0E0E0"/>
<path d="M153.132 71.9102L148.553 74.5559V85.0287L153.132 82.3914V71.9102Z" fill="#F5F5F5"/>
<path d="M254.756 153.175V163.588L248.464 173.688C246.234 170.822 246.887 163.673 250.372 158.025C251.425 156.082 252.928 154.418 254.756 153.175Z" fill="#E0E0E0"/>
<path d="M263.355 162.358C262.1 168.684 257.733 174.57 253.433 175.621C252.698 175.847 251.914 175.869 251.168 175.683C250.421 175.498 249.738 175.113 249.193 174.57L255.562 164.275L263.355 162.358Z" fill="#F0F0F0"/>
<path d="M263.516 161.265L256.02 163.097L260.26 152.03C262.88 153.039 264.177 156.584 263.516 161.265Z" fill="#E0E0E0"/>
<path d="M259.437 151.945L255.638 161.968V152.64C256.773 151.944 258.128 151.696 259.437 151.945Z" fill="#F0F0F0"/>
<path d="M310.029 360.756C301.845 360.756 293.671 358.959 287.446 355.363C281.222 351.768 277.966 347.121 277.966 342.083C277.966 337.046 281.358 332.34 287.446 328.812C299.895 321.621 320.154 321.621 332.611 328.812C338.717 332.34 342.083 337.055 342.083 342.083C342.083 347.112 338.691 351.835 332.611 355.363C326.378 358.959 318.203 360.756 310.029 360.756ZM310.029 324.233C301.998 324.233 293.968 325.997 287.854 329.525C282.011 332.917 278.788 337.36 278.788 342.083C278.788 346.807 282.011 351.276 287.854 354.651C300.082 361.706 319.967 361.706 332.195 354.651C338.038 351.259 341.261 346.815 341.261 342.083C341.261 337.352 338.038 332.9 332.195 329.525C326.09 325.997 318.051 324.233 310.029 324.233Z" fill="#43A548"/>
<path d="M310.868 335.409V340.735L305.61 326.48V321.163L310.868 335.409Z" fill="#203332"/>
<path d="M310.876 335.409V340.735L332.568 333.205V327.888L310.876 335.409Z" fill="#293C39"/>
<path d="M305.61 321.12L310.876 335.409L332.568 327.888C326.615 322.689 316.304 320.094 305.61 321.12Z" fill="#334D45"/>
<path d="M282.951 336.401C282.947 336.455 282.947 336.509 282.951 336.562V336.401Z" fill="#43A548"/>
<path d="M308.714 342.126L305.492 357.28C292.339 355.999 282.842 349.343 282.952 341.744V336.555C282.952 344.093 292.433 350.674 305.5 351.954L307.714 341.541L308.714 342.126Z" fill="#43A548"/>
<path opacity="0.4" d="M308.714 342.126L305.492 357.28C292.339 355.999 282.842 349.343 282.952 341.744V336.555C282.952 344.093 292.433 350.674 305.5 351.954L307.714 341.541L308.714 342.126Z" fill="black"/>
<path d="M307.959 352.132V357.458C313.373 357.78 318.798 357.051 323.935 355.312C330.134 353.158 334.51 349.741 336.257 345.696C336.788 344.525 337.077 343.259 337.105 341.973C337.105 341.473 337.105 336.478 337.105 336.478C337.105 336.478 335.604 336.359 333.848 334.485L329.786 335.893L311.215 342.304L307.959 352.132Z" fill="#43A548"/>
<path opacity="0.6" d="M307.959 352.132V357.458C313.373 357.78 318.798 357.051 323.935 355.312C330.134 353.158 334.51 349.741 336.257 345.696C336.788 344.525 337.077 343.259 337.105 341.973C337.105 341.473 337.105 336.478 337.105 336.478C337.105 336.478 335.604 336.359 333.848 334.485L329.786 335.893L311.215 342.304L307.959 352.132Z" fill="white"/>
<path d="M291.771 330.313L307.933 339.641V334.324L291.771 324.996V330.313Z" fill="#43A548"/>
<path opacity="0.1" d="M291.771 330.313L307.933 339.641V334.324L291.771 324.996V330.313Z" fill="black"/>
<path d="M283.147 334.638C281.374 342.957 291.321 350.572 305.492 351.962L308.714 336.809L290.016 326.014C286.106 328.456 283.859 331.288 283.147 334.638Z" fill="#43A548"/>
<path opacity="0.3" d="M283.147 334.638C281.374 342.957 291.321 350.572 305.492 351.962L308.714 336.809L290.016 326.014C286.106 328.456 283.859 331.288 283.147 334.638Z" fill="black"/>
<path d="M308.052 351.691L307.959 352.132C313.376 352.445 318.802 351.702 323.935 349.944C330.134 347.79 334.51 344.381 336.257 340.328C337.91 336.512 337.037 332.56 333.814 329.117L329.753 330.525L311.215 336.978L308.052 351.691Z" fill="#43A548"/>
<path opacity="0.75" d="M308.052 351.691L307.959 352.132C313.376 352.445 318.802 351.702 323.935 349.944C330.134 347.79 334.51 344.381 336.257 340.328C337.91 336.512 337.037 332.56 333.814 329.117L329.753 330.525L311.215 336.978L308.052 351.691Z" fill="white"/>
<path d="M291.771 324.997L307.933 334.325L303.176 321.393C299.187 321.892 295.322 323.113 291.771 324.997Z" fill="#43A548"/>
<path d="M308.714 342.126V336.809L305.491 351.962V357.279L308.714 342.126Z" fill="#43A548"/>
<path opacity="0.55" d="M308.714 342.126V336.809L305.491 351.962V357.279L308.714 342.126Z" fill="black"/>
<path d="M329.329 313.133L325.81 315.168L329.329 317.203L332.848 315.168L329.329 313.133Z" fill="#43A548"/>
<path opacity="0.3" d="M329.329 313.133L325.81 315.168L329.329 317.203L332.848 315.168L329.329 313.133Z" fill="black"/>
<path d="M332.848 315.168V317.203L329.329 319.238V317.203L332.848 315.168Z" fill="#43A548"/>
<path opacity="0.4" d="M332.848 315.168V317.203L329.329 319.238V317.203L332.848 315.168Z" fill="black"/>
<path d="M329.329 317.203V319.238L325.81 317.203V315.168L329.329 317.203Z" fill="#43A548"/>
<path opacity="0.55" d="M329.329 317.203V319.238L325.81 317.203V315.168L329.329 317.203Z" fill="black"/>
<path d="M334.705 311.555L347.748 304.025C348.167 303.804 348.633 303.684 349.107 303.675C349.581 303.666 350.051 303.769 350.478 303.974C351.207 304.398 351.174 305.102 350.393 305.552L337.351 313.082C336.932 313.305 336.467 313.426 335.992 313.435C335.517 313.444 335.048 313.34 334.621 313.133C333.883 312.717 333.925 312.005 334.705 311.555Z" fill="#E0E0E0"/>
<path d="M337.257 317.721L333.738 319.747L337.257 321.783L340.785 319.747L337.257 317.721Z" fill="#43A548"/>
<path opacity="0.88" d="M337.257 317.721L333.738 319.747L337.257 321.783L340.785 319.747L337.257 317.721Z" fill="white"/>
<path d="M340.785 319.747V321.782L337.258 323.817V321.782L340.785 319.747Z" fill="#43A548"/>
<path opacity="0.75" d="M340.785 319.747V321.782L337.258 323.817V321.782L340.785 319.747Z" fill="white"/>
<path d="M337.257 321.782V323.817L333.738 321.782V319.747L337.257 321.782Z" fill="#43A548"/>
<path opacity="0.6" d="M337.257 321.782V323.817L333.738 321.782V319.747L337.257 321.782Z" fill="white"/>
<path d="M342.634 316.143L355.676 308.604C356.097 308.383 356.564 308.263 357.039 308.254C357.515 308.246 357.986 308.348 358.415 308.553C359.144 308.977 359.102 309.681 358.322 310.131L345.28 317.669C344.86 317.891 344.394 318.011 343.919 318.018C343.445 318.025 342.975 317.921 342.549 317.712C341.82 317.296 341.854 316.584 342.634 316.143Z" fill="#E0E0E0"/>
<path d="M345.195 322.291L341.676 324.326L345.195 326.361L348.714 324.326L345.195 322.291Z" fill="#43A548"/>
<path opacity="0.3" d="M345.195 322.291L341.676 324.326L345.195 326.361L348.714 324.326L345.195 322.291Z" fill="white"/>
<path d="M348.715 324.326V326.361L345.195 328.397V326.361L348.715 324.326Z" fill="#43A548"/>
<path d="M345.195 326.361V328.397L341.676 326.361V324.326L345.195 326.361Z" fill="#43A548"/>
<path opacity="0.1" d="M345.195 326.361V328.397L341.676 326.361V324.326L345.195 326.361Z" fill="black"/>
<path d="M350.571 320.722L363.613 313.183C364.033 312.962 364.498 312.842 364.972 312.834C365.447 312.825 365.916 312.927 366.344 313.132C367.073 313.556 367.031 314.26 366.259 314.71L353.208 322.24C352.789 322.462 352.322 322.581 351.848 322.589C351.373 322.596 350.904 322.491 350.478 322.282C349.748 321.875 349.791 321.172 350.571 320.722Z" fill="#E0E0E0"/>
<path d="M353.124 326.87L349.604 328.905L353.124 330.941L356.643 328.905L353.124 326.87Z" fill="#334D45"/>
<path d="M356.643 328.905V330.94L353.124 332.976V330.94L356.643 328.905Z" fill="#293C39"/>
<path d="M353.124 330.94V332.976L349.604 330.94V328.905L353.124 330.94Z" fill="#203332"/>
<path d="M358.5 325.302L371.542 317.763C371.962 317.541 372.428 317.422 372.902 317.414C373.377 317.407 373.846 317.512 374.273 317.721C375.002 318.136 374.968 318.84 374.188 319.289L361.146 326.828C360.726 327.049 360.261 327.169 359.786 327.178C359.312 327.187 358.843 327.084 358.415 326.879C357.686 326.481 357.72 325.751 358.5 325.302Z" fill="#E0E0E0"/>
<g opacity="0.3">
<path d="M295.621 303.507C295.553 303.508 295.486 303.49 295.426 303.457L270.308 288.956C270.25 288.92 270.201 288.87 270.167 288.811C270.133 288.752 270.115 288.685 270.113 288.617C270.114 288.549 270.132 288.483 270.166 288.425C270.2 288.367 270.249 288.319 270.308 288.286L301.684 270.156C301.742 270.122 301.808 270.104 301.875 270.104C301.942 270.104 302.008 270.122 302.066 270.156L327.192 284.656C327.251 284.691 327.299 284.741 327.332 284.801C327.364 284.86 327.381 284.928 327.379 284.996C327.38 285.062 327.363 285.128 327.331 285.186C327.298 285.245 327.25 285.293 327.192 285.326L295.816 303.457C295.757 303.49 295.689 303.508 295.621 303.507ZM271.275 288.617L295.621 302.676L326.251 284.996L301.888 270.936L271.275 288.617Z" fill="#43A548"/>
</g>
<path d="M295.622 299.497V187.196L276.779 176.316V288.617L295.622 299.497Z" fill="#43A548"/>
<path opacity="0.2" d="M295.622 299.497V187.196L276.779 176.316V288.617L295.622 299.497Z" fill="black"/>
<path d="M295.621 299.497L320.739 284.996L320.747 172.695L295.621 187.196V299.497Z" fill="#43A548"/>
<path d="M320.748 172.695L301.906 161.815L276.779 176.316L295.622 187.196L320.748 172.695Z" fill="#43A548"/>
<path opacity="0.25" d="M320.748 172.695L301.906 161.815L276.779 176.316L295.622 187.196L320.748 172.695Z" fill="white"/>
<path opacity="0.3" d="M320.748 172.695L295.367 186.687L287.125 182.083L276.779 176.316L286.955 182.405L295.291 187.374C295.088 190.207 295.037 288.006 295.071 290.83C295.092 293.727 295.279 296.621 295.63 299.497C295.979 296.621 296.163 293.727 296.182 290.83C296.182 288.091 296.182 190.385 295.978 187.646L320.748 172.695Z" fill="white"/>
<g opacity="0.3">
<path d="M248.515 330.72C248.446 330.72 248.379 330.702 248.32 330.669L223.202 316.169C223.143 316.133 223.095 316.083 223.061 316.024C223.027 315.965 223.008 315.898 223.007 315.829C223.007 315.762 223.025 315.696 223.06 315.638C223.094 315.58 223.143 315.532 223.202 315.499L254.578 297.368C254.637 297.335 254.705 297.317 254.773 297.317C254.841 297.317 254.908 297.335 254.968 297.368L280.086 311.869C280.146 311.902 280.196 311.95 280.231 312.009C280.266 312.068 280.284 312.136 280.284 312.204C280.284 312.273 280.266 312.34 280.231 312.399C280.196 312.458 280.146 312.506 280.086 312.539L248.71 330.669C248.65 330.703 248.583 330.721 248.515 330.72ZM224.169 315.829L248.515 329.872L279.144 312.191L254.798 298.132L224.169 315.829Z" fill="#43A548"/>
</g>
<path d="M248.515 326.692V246.921L229.673 236.041V315.812L248.515 326.692Z" fill="#43A548"/>
<path opacity="0.1" d="M248.515 326.692V246.921L229.673 236.041V315.812L248.515 326.692Z" fill="white"/>
<path d="M248.515 326.692L273.641 312.183V232.42L248.515 246.921V326.692Z" fill="#43A548"/>
<path opacity="0.3" d="M248.515 326.692L273.641 312.183V232.42L248.515 246.921V326.692Z" fill="white"/>
<path d="M273.642 232.42L254.799 221.54L229.673 236.041L248.515 246.921L273.642 232.42Z" fill="#43A548"/>
<path opacity="0.55" d="M273.642 232.42L254.799 221.54L229.673 236.041L248.515 246.921L273.642 232.42Z" fill="white"/>
<path opacity="0.3" d="M248.846 247.379L273.642 232.42L248.261 246.412C245.522 244.86 242.774 243.334 240.027 241.807L229.673 236.041L239.849 242.121C242.63 243.817 245.403 245.462 248.193 247.099C248.108 250.033 248.015 271.436 247.99 274.37C247.964 277.305 247.947 305.746 247.99 308.731C248.032 311.716 248.057 314.718 248.151 317.712C248.244 320.705 248.354 323.699 248.541 326.692C248.736 323.699 248.855 320.705 248.931 317.712C249.007 314.718 249.075 311.725 249.092 308.731C249.109 305.738 249.092 277.355 249.092 274.37C249.024 271.53 248.931 250.219 248.846 247.379Z" fill="white"/>
<g opacity="0.3">
<path d="M201.417 357.898C201.349 357.899 201.281 357.881 201.222 357.847L176.096 343.346C176.038 343.31 175.991 343.26 175.959 343.201C175.926 343.142 175.909 343.075 175.909 343.007C175.908 342.94 175.924 342.875 175.957 342.816C175.99 342.758 176.038 342.71 176.096 342.676L207.472 324.546C207.53 324.513 207.596 324.495 207.663 324.495C207.73 324.495 207.795 324.513 207.853 324.546L232.98 339.047C233.038 339.082 233.086 339.132 233.119 339.191C233.152 339.251 233.168 339.318 233.166 339.386C233.168 339.453 233.151 339.519 233.118 339.577C233.085 339.635 233.038 339.684 232.98 339.717L201.604 357.847C201.547 357.881 201.483 357.898 201.417 357.898ZM177.063 343.007L201.417 357.067L232.047 339.386L207.692 325.326L177.063 343.007Z" fill="#43A548"/>
</g>
<path d="M201.417 353.888L201.409 299.497L182.566 288.617L182.575 343.008L201.417 353.888Z" fill="#43A548"/>
<path opacity="0.45" d="M201.417 353.888L201.409 299.497L182.566 288.617L182.575 343.008L201.417 353.888Z" fill="black"/>
<path d="M201.417 353.888L226.534 339.378L226.543 284.996L201.408 299.497L201.417 353.888Z" fill="#43A548"/>
<path opacity="0.3" d="M201.417 353.888L226.534 339.378L226.543 284.996L201.408 299.497L201.417 353.888Z" fill="black"/>
<path d="M226.544 284.996L207.701 274.116L182.566 288.617L201.409 299.497L226.544 284.996Z" fill="#43A548"/>
<path opacity="0.15" d="M226.544 284.996L207.701 274.116L182.566 288.617L201.409 299.497L226.544 284.996Z" fill="black"/>
<path opacity="0.3" d="M226.544 284.996L201.163 298.98L192.92 294.383L182.566 288.617L192.742 294.697L201.078 299.675C200.883 301.371 200.832 346.824 200.866 348.545C200.885 350.34 201.072 352.128 201.426 353.888C201.773 352.127 201.957 350.339 201.977 348.545C201.977 346.909 201.977 301.575 201.791 299.938L226.544 284.996Z" fill="white"/>
<g opacity="0.3">
<path d="M342.72 276.312C342.654 276.311 342.59 276.293 342.533 276.261L317.407 261.76C317.348 261.725 317.299 261.676 317.265 261.616C317.231 261.557 317.213 261.49 317.212 261.421C317.212 261.354 317.231 261.288 317.265 261.229C317.299 261.171 317.348 261.123 317.407 261.09L348.783 242.96C348.843 242.927 348.91 242.909 348.978 242.909C349.046 242.909 349.113 242.927 349.173 242.96L374.291 257.461C374.351 257.494 374.401 257.542 374.436 257.601C374.471 257.66 374.49 257.727 374.49 257.796C374.49 257.864 374.471 257.932 374.436 257.991C374.401 258.05 374.351 258.098 374.291 258.131L342.915 276.261C342.855 276.295 342.788 276.312 342.72 276.312ZM318.374 261.421L342.72 275.481L373.35 257.792L349.003 243.732L318.374 261.421Z" fill="#43A548"/>
</g>
<path d="M342.72 272.301V108.9L323.877 98.0205L323.885 261.422L342.72 272.301Z" fill="#43A548"/>
<path opacity="0.3" d="M342.72 272.301V108.9L323.877 98.0205L323.885 261.422L342.72 272.301Z" fill="white"/>
<path d="M342.72 272.301L367.846 257.801V94.3994L342.72 108.9V272.301Z" fill="#43A548"/>
<path opacity="0.55" d="M342.72 272.301L367.846 257.801V94.3994L342.72 108.9V272.301Z" fill="white"/>
<path d="M367.846 94.3994L349.003 83.5195L323.877 98.0203L342.72 108.9L367.846 94.3994Z" fill="#43A548"/>
<path opacity="0.75" d="M367.846 94.3994L349.003 83.5195L323.877 98.0203L342.72 108.9L367.846 94.3994Z" fill="white"/>
<path opacity="0.3" d="M343.05 109.392L367.846 94.4248L342.465 108.417C339.735 106.865 336.979 105.339 334.231 103.812L323.877 98.0458L334.053 104.134C336.834 105.83 339.607 107.467 342.406 109.104C342.312 112.428 342.219 115.752 342.194 119.076C342.168 122.4 342.194 248.642 342.194 252.026C342.194 255.409 342.262 258.81 342.363 262.202C342.465 265.594 342.558 268.986 342.753 272.378C342.94 268.986 343.059 265.594 343.135 262.202C343.211 258.81 343.288 255.418 343.305 252.026C343.322 248.634 343.305 122.46 343.305 119.076C343.228 115.828 343.144 112.597 343.05 109.392Z" fill="white"/>
<path d="M299.869 128.42L278.763 140.606C278.178 140.987 277.692 141.5 277.343 142.104C276.993 142.708 276.791 143.386 276.753 144.083V161.204C276.753 162.484 277.652 163.002 278.763 162.366L286.539 157.863L288.625 161.467C288.716 161.629 288.852 161.762 289.017 161.848C289.182 161.934 289.368 161.971 289.554 161.953C289.739 161.935 289.915 161.863 290.06 161.747C290.206 161.63 290.314 161.474 290.372 161.297L292.823 154.242L299.869 150.18C300.455 149.8 300.944 149.287 301.294 148.683C301.645 148.079 301.848 147.401 301.888 146.703V129.582C301.888 128.302 300.98 127.784 299.869 128.42Z" fill="#FAFAFA"/>
<path d="M277.864 163.095C277.602 163.097 277.343 163.027 277.118 162.892C276.835 162.714 276.606 162.462 276.456 162.163C276.307 161.864 276.242 161.529 276.27 161.196V144.083C276.308 143.308 276.53 142.553 276.918 141.88C277.305 141.208 277.848 140.637 278.5 140.216L299.641 128.048C299.913 127.86 300.229 127.748 300.558 127.722C300.888 127.697 301.218 127.759 301.515 127.903C301.796 128.083 302.024 128.336 302.173 128.634C302.322 128.933 302.388 129.267 302.363 129.599V146.704C302.326 147.48 302.103 148.236 301.714 148.909C301.324 149.582 300.779 150.152 300.124 150.571L293.23 154.548L290.839 161.45C290.749 161.708 290.587 161.935 290.372 162.103C290.157 162.272 289.898 162.375 289.626 162.4C289.355 162.422 289.084 162.368 288.842 162.244C288.601 162.119 288.4 161.93 288.261 161.696L286.412 158.482L279.026 162.722C278.679 162.948 278.278 163.077 277.864 163.095ZM300.76 128.599C300.523 128.614 300.293 128.686 300.09 128.811L278.992 140.997C278.476 141.339 278.047 141.795 277.736 142.331C277.426 142.866 277.243 143.466 277.203 144.083V161.204C277.182 161.374 277.205 161.546 277.269 161.705C277.333 161.863 277.435 162.003 277.567 162.112C277.727 162.174 277.899 162.194 278.068 162.17C278.238 162.146 278.398 162.079 278.534 161.976L286.709 157.253L289.015 161.247C289.064 161.332 289.136 161.402 289.224 161.447C289.311 161.492 289.409 161.511 289.507 161.501C289.606 161.492 289.701 161.454 289.779 161.392C289.857 161.331 289.916 161.248 289.948 161.154L292.45 153.929L299.641 149.79C300.155 149.448 300.584 148.991 300.893 148.456C301.202 147.92 301.383 147.321 301.422 146.704V129.583C301.444 129.413 301.423 129.242 301.36 129.083C301.298 128.924 301.197 128.784 301.065 128.675C300.973 128.622 300.867 128.596 300.76 128.599Z" fill="#E0E0E0"/>
<path d="M281.468 155.752C281.4 155.752 281.332 155.734 281.273 155.7C281.213 155.666 281.163 155.616 281.129 155.557C281.104 155.513 281.087 155.464 281.08 155.414C281.074 155.364 281.077 155.313 281.091 155.264C281.104 155.215 281.127 155.169 281.159 155.129C281.19 155.089 281.229 155.056 281.273 155.031L296.97 145.966C297.014 145.933 297.064 145.91 297.118 145.898C297.172 145.886 297.227 145.886 297.281 145.897C297.335 145.908 297.386 145.93 297.43 145.962C297.475 145.994 297.512 146.035 297.54 146.082C297.567 146.13 297.585 146.183 297.591 146.237C297.596 146.292 297.591 146.347 297.574 146.399C297.557 146.452 297.529 146.5 297.492 146.54C297.455 146.581 297.41 146.614 297.36 146.636L281.655 155.701C281.598 155.733 281.534 155.751 281.468 155.752Z" fill="#E0E0E0"/>
<path d="M281.468 152.123C281.4 152.123 281.332 152.105 281.273 152.071C281.213 152.036 281.163 151.987 281.129 151.927C281.104 151.884 281.087 151.835 281.08 151.785C281.074 151.734 281.077 151.683 281.091 151.634C281.104 151.585 281.127 151.54 281.159 151.5C281.19 151.46 281.229 151.426 281.273 151.402L296.97 142.337C297.06 142.287 297.166 142.274 297.266 142.301C297.366 142.328 297.451 142.392 297.504 142.481C297.553 142.57 297.566 142.675 297.539 142.773C297.512 142.871 297.448 142.955 297.36 143.007L281.655 152.072C281.598 152.104 281.534 152.122 281.468 152.123Z" fill="#E0E0E0"/>
<path d="M281.468 148.502C281.4 148.502 281.332 148.484 281.273 148.45C281.213 148.416 281.163 148.366 281.129 148.307C281.104 148.263 281.087 148.214 281.08 148.164C281.074 148.114 281.077 148.063 281.091 148.014C281.104 147.965 281.127 147.919 281.159 147.879C281.19 147.839 281.229 147.806 281.273 147.781L296.97 138.716C297.014 138.683 297.064 138.66 297.118 138.648C297.172 138.636 297.227 138.636 297.281 138.647C297.335 138.658 297.386 138.68 297.43 138.712C297.475 138.744 297.512 138.785 297.54 138.832C297.567 138.88 297.585 138.933 297.591 138.987C297.596 139.042 297.591 139.097 297.574 139.149C297.557 139.202 297.529 139.25 297.492 139.29C297.455 139.331 297.41 139.364 297.36 139.386L281.655 148.451C281.598 148.483 281.534 148.501 281.468 148.502Z" fill="#E0E0E0"/>
<path d="M281.468 144.872C281.4 144.872 281.333 144.855 281.274 144.822C281.215 144.79 281.165 144.742 281.129 144.685C281.103 144.64 281.086 144.591 281.079 144.54C281.073 144.489 281.076 144.438 281.09 144.388C281.103 144.338 281.126 144.292 281.158 144.251C281.189 144.21 281.228 144.176 281.273 144.151L296.969 135.086C297.06 135.036 297.166 135.023 297.266 135.05C297.365 135.077 297.45 135.141 297.504 135.23C297.553 135.319 297.566 135.424 297.539 135.522C297.512 135.62 297.447 135.704 297.359 135.756L281.654 144.821C281.598 144.853 281.533 144.871 281.468 144.872Z" fill="#43A548"/>
<path d="M252.789 188.138L231.683 200.323C231.097 200.703 230.61 201.217 230.261 201.821C229.911 202.425 229.71 203.103 229.673 203.8V220.913C229.673 222.193 230.572 222.719 231.683 222.075L239.459 217.58L241.545 221.184C241.638 221.344 241.775 221.473 241.939 221.557C242.104 221.641 242.289 221.676 242.473 221.658C242.656 221.64 242.831 221.57 242.976 221.456C243.121 221.342 243.231 221.189 243.292 221.015L245.742 213.951L252.789 209.889C253.375 209.509 253.862 208.996 254.211 208.392C254.56 207.787 254.762 207.109 254.799 206.412V189.291C254.799 188.01 253.9 187.493 252.789 188.138Z" fill="#FAFAFA"/>
<path d="M230.784 222.804C230.523 222.804 230.265 222.737 230.038 222.609C229.756 222.429 229.529 222.176 229.38 221.878C229.23 221.579 229.165 221.246 229.19 220.913V203.8C229.227 203.023 229.449 202.267 229.837 201.593C230.225 200.919 230.768 200.347 231.42 199.925L252.527 187.739C252.792 187.544 253.108 187.431 253.437 187.414C253.765 187.396 254.092 187.474 254.377 187.638C254.662 187.803 254.893 188.047 255.041 188.34C255.19 188.633 255.25 188.964 255.215 189.291V206.412C255.178 207.188 254.956 207.945 254.566 208.618C254.177 209.291 253.631 209.86 252.976 210.279L246.082 214.256L243.691 221.159C243.603 221.418 243.441 221.645 243.226 221.814C243.01 221.983 242.75 222.085 242.478 222.108C242.207 222.137 241.933 222.086 241.69 221.96C241.447 221.835 241.247 221.642 241.113 221.404L239.264 218.191L231.878 222.431C231.552 222.649 231.175 222.777 230.784 222.804ZM253.01 188.528L231.912 200.713C231.395 201.054 230.964 201.51 230.653 202.046C230.343 202.581 230.161 203.182 230.123 203.8V220.913C230.069 221.084 230.075 221.268 230.14 221.434C230.205 221.601 230.325 221.741 230.48 221.831C230.634 221.921 230.815 221.955 230.992 221.929C231.17 221.902 231.332 221.816 231.454 221.684L239.629 216.961L241.935 220.955C241.981 221.043 242.053 221.114 242.141 221.16C242.229 221.205 242.329 221.223 242.427 221.209C242.527 221.203 242.623 221.167 242.702 221.105C242.781 221.043 242.839 220.958 242.868 220.862L245.412 213.645L252.603 209.499C253.118 209.157 253.547 208.7 253.856 208.164C254.165 207.629 254.346 207.029 254.384 206.412V189.291C254.405 189.122 254.384 188.95 254.321 188.792C254.259 188.633 254.158 188.493 254.028 188.383C253.867 188.321 253.692 188.302 253.521 188.327C253.35 188.352 253.189 188.421 253.052 188.528H253.01Z" fill="#E0E0E0"/>
<path d="M234.388 215.46C234.32 215.46 234.252 215.442 234.192 215.408C234.133 215.374 234.083 215.324 234.049 215.265C234.023 215.221 234.007 215.172 234 215.122C233.994 215.072 233.997 215.021 234.011 214.972C234.024 214.923 234.047 214.877 234.079 214.837C234.11 214.797 234.149 214.764 234.193 214.739L249.89 205.674C249.934 205.641 249.984 205.618 250.038 205.606C250.091 205.594 250.147 205.594 250.201 205.605C250.255 205.616 250.306 205.638 250.35 205.67C250.395 205.702 250.432 205.743 250.46 205.79C250.487 205.838 250.505 205.891 250.51 205.945C250.516 206 250.511 206.055 250.494 206.107C250.477 206.16 250.449 206.208 250.412 206.248C250.375 206.289 250.33 206.322 250.28 206.344L234.575 215.392C234.52 215.43 234.455 215.454 234.388 215.46Z" fill="#43A548"/>
<path d="M234.388 211.839C234.32 211.839 234.252 211.821 234.192 211.787C234.133 211.753 234.083 211.703 234.049 211.644C234.023 211.6 234.007 211.551 234 211.501C233.994 211.451 233.997 211.399 234.011 211.35C234.024 211.302 234.047 211.256 234.079 211.216C234.11 211.176 234.149 211.143 234.193 211.118L249.89 202.053C249.934 202.02 249.984 201.997 250.038 201.985C250.091 201.973 250.147 201.972 250.201 201.984C250.255 201.995 250.306 202.017 250.35 202.049C250.395 202.081 250.432 202.122 250.46 202.169C250.487 202.217 250.505 202.27 250.51 202.324C250.516 202.379 250.511 202.434 250.494 202.486C250.477 202.539 250.449 202.587 250.412 202.627C250.375 202.668 250.33 202.701 250.28 202.723L234.575 211.788C234.518 211.82 234.454 211.838 234.388 211.839Z" fill="#E0E0E0"/>
<path d="M234.388 208.21C234.32 208.21 234.252 208.192 234.192 208.158C234.133 208.124 234.083 208.074 234.049 208.015C234.023 207.971 234.007 207.922 234 207.872C233.994 207.822 233.997 207.771 234.011 207.722C234.024 207.673 234.047 207.627 234.079 207.587C234.11 207.547 234.149 207.514 234.193 207.489L249.89 198.432C249.934 198.407 249.983 198.39 250.034 198.383C250.085 198.377 250.137 198.38 250.187 198.393C250.236 198.407 250.283 198.43 250.324 198.461C250.364 198.493 250.398 198.532 250.424 198.577C250.473 198.666 250.486 198.771 250.459 198.869C250.432 198.967 250.368 199.051 250.28 199.102L234.575 208.167C234.517 208.197 234.453 208.211 234.388 208.21Z" fill="#E0E0E0"/>
<path d="M234.388 204.589C234.32 204.589 234.252 204.571 234.192 204.537C234.133 204.503 234.083 204.453 234.049 204.394C234.023 204.35 234.007 204.301 234 204.251C233.994 204.201 233.997 204.149 234.011 204.1C234.024 204.052 234.047 204.006 234.079 203.966C234.11 203.926 234.149 203.893 234.193 203.868L249.89 194.803C249.934 194.77 249.984 194.747 250.038 194.735C250.091 194.723 250.147 194.722 250.201 194.734C250.255 194.745 250.306 194.767 250.35 194.799C250.395 194.831 250.432 194.872 250.46 194.919C250.487 194.967 250.505 195.02 250.51 195.074C250.516 195.129 250.511 195.184 250.494 195.236C250.477 195.289 250.449 195.337 250.412 195.377C250.375 195.418 250.33 195.451 250.28 195.473L234.575 204.538C234.518 204.57 234.454 204.588 234.388 204.589Z" fill="#E0E0E0"/>
<path d="M205.699 240.705L184.593 252.891C184.007 253.271 183.52 253.784 183.171 254.388C182.822 254.992 182.62 255.671 182.583 256.368V273.48C182.583 274.761 183.482 275.286 184.593 274.642L192.369 270.148L194.455 273.752C194.55 273.91 194.687 274.039 194.852 274.122C195.017 274.206 195.202 274.241 195.386 274.223C195.57 274.205 195.745 274.135 195.891 274.022C196.037 273.909 196.148 273.756 196.21 273.582L198.653 266.518L205.699 262.456C206.285 262.076 206.772 261.563 207.121 260.959C207.471 260.355 207.672 259.676 207.709 258.979V241.858C207.709 240.578 206.81 240.061 205.699 240.705Z" fill="#FAFAFA"/>
<path d="M183.694 275.371C183.433 275.371 183.176 275.303 182.948 275.176C182.667 274.996 182.439 274.744 182.29 274.445C182.141 274.146 182.075 273.813 182.1 273.48V256.367C182.137 255.59 182.36 254.832 182.749 254.158C183.139 253.484 183.684 252.913 184.339 252.492L205.437 240.306C205.702 240.112 206.018 239.999 206.347 239.981C206.675 239.963 207.002 240.041 207.287 240.206C207.572 240.37 207.803 240.614 207.952 240.907C208.1 241.201 208.161 241.531 208.125 241.858V258.979C208.089 259.755 207.867 260.511 207.479 261.183C207.091 261.856 206.548 262.426 205.895 262.846L198.992 266.823L196.601 273.726C196.509 273.977 196.349 274.197 196.137 274.361C195.926 274.525 195.672 274.625 195.406 274.651C195.14 274.677 194.872 274.627 194.633 274.506C194.395 274.386 194.195 274.201 194.057 273.972L192.2 270.758L184.814 274.998C184.48 275.22 184.094 275.349 183.694 275.371ZM205.929 241.095L184.864 253.281C184.348 253.622 183.919 254.078 183.61 254.614C183.301 255.15 183.121 255.75 183.084 256.367V273.48C183.062 273.65 183.083 273.823 183.145 273.983C183.207 274.143 183.309 274.285 183.44 274.396C183.602 274.453 183.775 274.47 183.945 274.445C184.115 274.42 184.277 274.354 184.415 274.252L192.581 269.528L194.888 273.522C194.938 273.607 195.011 273.676 195.099 273.72C195.187 273.764 195.286 273.783 195.384 273.773C195.482 273.763 195.575 273.725 195.652 273.665C195.73 273.604 195.788 273.522 195.821 273.429L198.322 266.213L205.471 262.032C205.987 261.69 206.417 261.234 206.728 260.699C207.038 260.163 207.22 259.563 207.26 258.945V241.858C207.28 241.688 207.258 241.516 207.194 241.358C207.13 241.199 207.027 241.059 206.895 240.951C206.736 240.888 206.562 240.869 206.393 240.894C206.223 240.92 206.063 240.989 205.929 241.095Z" fill="#E0E0E0"/>
<path d="M187.298 268.028C187.211 268.033 187.125 268.007 187.054 267.956C186.983 267.905 186.932 267.831 186.909 267.747C186.886 267.662 186.893 267.572 186.928 267.492C186.964 267.412 187.026 267.347 187.103 267.307L202.808 258.242C202.897 258.191 203.003 258.178 203.101 258.205C203.15 258.219 203.196 258.241 203.236 258.272C203.276 258.303 203.309 258.342 203.334 258.386C203.359 258.43 203.375 258.479 203.382 258.529C203.388 258.579 203.384 258.63 203.371 258.679C203.358 258.728 203.335 258.773 203.304 258.813C203.273 258.853 203.234 258.887 203.19 258.912L187.494 267.968C187.434 268.004 187.367 268.025 187.298 268.028Z" fill="#E0E0E0"/>
<path d="M187.298 264.406C187.23 264.407 187.162 264.389 187.102 264.355C187.043 264.32 186.993 264.271 186.959 264.211C186.91 264.122 186.897 264.017 186.924 263.919C186.951 263.821 187.015 263.737 187.103 263.686L202.808 254.621C202.852 254.595 202.9 254.578 202.95 254.57C203 254.563 203.05 254.566 203.099 254.579C203.148 254.591 203.194 254.613 203.234 254.644C203.275 254.674 203.309 254.713 203.334 254.756C203.384 254.847 203.397 254.953 203.37 255.052C203.343 255.152 203.278 255.237 203.19 255.29L187.493 264.356C187.433 264.388 187.366 264.406 187.298 264.406Z" fill="#E0E0E0"/>
<path d="M187.298 260.777C187.211 260.781 187.125 260.756 187.054 260.705C186.983 260.654 186.932 260.58 186.909 260.495C186.886 260.411 186.893 260.321 186.928 260.241C186.964 260.161 187.026 260.096 187.103 260.056L202.808 251.008C202.852 250.982 202.901 250.966 202.951 250.96C203.001 250.954 203.052 250.957 203.101 250.971C203.15 250.984 203.196 251.007 203.236 251.038C203.276 251.069 203.309 251.108 203.334 251.152C203.359 251.196 203.375 251.244 203.382 251.294C203.388 251.345 203.384 251.396 203.371 251.444C203.358 251.493 203.335 251.539 203.304 251.579C203.273 251.619 203.234 251.652 203.19 251.677L187.494 260.726C187.434 260.758 187.367 260.776 187.298 260.777Z" fill="#43A548"/>
<path d="M187.298 257.156C187.23 257.157 187.162 257.139 187.102 257.104C187.043 257.07 186.993 257.021 186.959 256.961C186.91 256.872 186.897 256.767 186.924 256.669C186.951 256.571 187.015 256.487 187.103 256.435L202.808 247.37C202.896 247.32 203 247.306 203.099 247.332C203.197 247.357 203.281 247.42 203.334 247.506C203.384 247.596 203.397 247.703 203.37 247.802C203.343 247.902 203.278 247.987 203.19 248.04L187.493 257.105C187.433 257.138 187.366 257.156 187.298 257.156Z" fill="#E0E0E0"/>
<path d="M346.993 50.1172L325.887 62.303C325.301 62.6831 324.814 63.1961 324.465 63.8004C324.116 64.4046 323.914 65.0829 323.877 65.7798V82.9009C323.877 84.1814 324.776 84.6987 325.887 84.0542L333.663 79.5598L335.749 83.1638C335.841 83.3256 335.978 83.4573 336.144 83.543C336.309 83.6287 336.496 83.6647 336.682 83.6468C336.867 83.6289 337.043 83.5578 337.189 83.442C337.335 83.3262 337.445 83.1707 337.504 82.9942L339.947 75.9304L346.993 71.8684C347.579 71.4884 348.066 70.9753 348.415 70.3711C348.765 69.7668 348.966 69.0886 349.003 68.3916V51.279C349.003 50.0324 348.104 49.4728 346.993 50.1172Z" fill="#FAFAFA"/>
<path d="M324.987 84.8001C324.726 84.7997 324.469 84.7325 324.241 84.6051C323.959 84.426 323.731 84.1735 323.582 83.8747C323.433 83.5759 323.367 83.2421 323.393 82.9091V65.7795C323.428 65.0014 323.65 64.2431 324.04 63.5687C324.429 62.8943 324.976 62.3234 325.632 61.9041L346.73 49.7184C346.996 49.524 347.312 49.411 347.64 49.3931C347.969 49.3753 348.295 49.4533 348.58 49.6178C348.865 49.7823 349.096 50.0261 349.245 50.3194C349.394 50.6128 349.454 50.9432 349.418 51.2702V68.3913C349.381 69.1679 349.159 69.9243 348.771 70.5981C348.383 71.272 347.841 71.8439 347.188 72.2667L340.285 76.2353L337.928 83.1041C337.842 83.3625 337.682 83.59 337.468 83.7587C337.254 83.9274 336.995 84.03 336.724 84.0539C336.452 84.0847 336.177 84.0343 335.934 83.9091C335.691 83.7838 335.491 83.5892 335.359 83.35L333.501 80.1446L326.115 84.3846C325.784 84.6233 325.394 84.767 324.987 84.8001ZM347.222 50.524L326.115 62.6928C325.6 63.0348 325.171 63.4915 324.862 64.027C324.553 64.5625 324.373 65.1624 324.335 65.7795V82.9006C324.284 83.0708 324.293 83.253 324.359 83.4177C324.425 83.5824 324.545 83.72 324.699 83.8083C324.853 83.8966 325.032 83.9303 325.207 83.9041C325.383 83.8779 325.544 83.7932 325.666 83.6638L333.832 78.9404L336.139 82.9345C336.185 83.0222 336.257 83.0936 336.345 83.1391C336.433 83.1846 336.532 83.202 336.631 83.1889C336.73 83.1835 336.825 83.1482 336.904 83.0877C336.982 83.0271 337.041 82.9442 337.071 82.8497L339.573 75.6248L346.764 71.478C347.276 71.1337 347.701 70.6761 348.007 70.1408C348.313 69.6054 348.491 69.0068 348.528 68.3913V51.2787C348.582 51.1078 348.575 50.9238 348.511 50.7568C348.446 50.5899 348.326 50.4501 348.171 50.3603C348.016 50.2704 347.835 50.236 347.658 50.2627C347.481 50.2894 347.318 50.3755 347.197 50.507L347.222 50.524Z" fill="#E0E0E0"/>
<path d="M335.172 73.7764C335.173 73.2633 335.29 72.7571 335.515 72.2959C335.739 71.8347 336.066 71.4304 336.469 71.1136C337.156 70.7236 337.707 71.3002 337.707 72.3093C337.721 72.8261 337.617 73.3392 337.403 73.8095C337.188 74.2798 336.869 74.6948 336.469 75.0229C335.74 75.4724 335.172 74.8618 335.172 73.7764ZM335.325 60.6663L337.623 59.3604L337.165 69.1802L335.782 69.9773L335.325 60.6663Z" fill="#43A548"/>
</svg>
