<svg width="200" height="200" viewBox="0 0 200 200" fill="none" xmlns="http://www.w3.org/2000/svg">
<path d="M98.7647 176.704C116.106 166.695 116.106 150.464 98.7647 140.449C81.4234 130.435 53.3034 130.435 35.962 140.449C18.6207 150.464 18.6207 166.695 35.962 176.709C53.3034 186.724 81.4185 186.719 98.7647 176.704Z" fill="#E0E0E0"/>
<path d="M146.612 194.522C163.36 194.522 176.937 186.684 176.937 177.016C176.937 167.347 163.36 159.509 146.612 159.509C129.863 159.509 116.286 167.347 116.286 177.016C116.286 186.684 129.863 194.522 146.612 194.522Z" fill="#E0E0E0"/>
<path d="M94.5388 99.184C94.5194 98.9627 94.441 98.7506 94.3117 98.5699C94.1824 98.3892 94.0069 98.2466 93.8037 98.1568C93.2517 97.8759 92.6412 97.7295 92.0218 97.7295C91.4025 97.7295 90.792 97.8759 90.24 98.1568C90.0368 98.2466 89.8613 98.3892 89.732 98.5699C89.6027 98.7506 89.5243 98.9627 89.5049 99.184L101.004 163.958C101.02 164.107 101.073 164.25 101.158 164.373C101.243 164.497 101.357 164.597 101.491 164.664C101.881 164.863 102.312 164.967 102.749 164.967C103.187 164.967 103.618 164.863 104.008 164.664C104.148 164.601 104.269 164.503 104.361 164.379C104.452 164.256 104.51 164.111 104.529 163.958L94.5388 99.184Z" fill="#455A64"/>
<path d="M39.4382 99.184C39.4576 98.9627 39.5361 98.7506 39.6654 98.5699C39.7947 98.3892 39.9701 98.2466 40.1734 98.1568C40.7253 97.8759 41.3359 97.7295 41.9552 97.7295C42.5745 97.7295 43.1851 97.8759 43.7371 98.1568C43.9409 98.2463 44.1171 98.3888 44.2472 98.5694C44.3773 98.7501 44.4567 98.9623 44.4771 99.184L33.0022 163.983C32.9832 164.135 32.9253 164.28 32.8341 164.404C32.7428 164.527 32.6213 164.626 32.4813 164.689C32.0916 164.888 31.6603 164.992 31.2228 164.992C30.7852 164.992 30.3539 164.888 29.9643 164.689C29.8243 164.626 29.703 164.528 29.6125 164.404C29.522 164.28 29.4654 164.135 29.4482 163.983L39.4382 99.184Z" fill="#455A64"/>
<path d="M69.53 101.102C69.5087 100.881 69.4289 100.669 69.2989 100.488C69.1689 100.308 68.9933 100.165 68.79 100.075C68.2381 99.7939 67.6275 99.6475 67.0082 99.6475C66.3889 99.6475 65.7783 99.7939 65.2263 100.075C65.0234 100.165 64.8482 100.308 64.719 100.488C64.5897 100.669 64.5111 100.881 64.4912 101.102L65.2263 175.939C65.2436 176.093 65.3008 176.239 65.3922 176.364C65.4836 176.489 65.606 176.587 65.7473 176.65C66.1376 176.847 66.5686 176.95 67.0057 176.95C67.4429 176.95 67.8739 176.847 68.2642 176.65C68.4049 176.587 68.5266 176.488 68.6171 176.364C68.7077 176.239 68.7639 176.093 68.7803 175.939L69.53 101.102Z" fill="#455A64"/>
<path d="M110.186 144.173L106.983 107.271H27.7052L24.6527 142.922C24.3217 148.764 27.1843 154.299 33.0459 158.988L32.9485 159.874C32.9346 160.009 32.949 160.145 32.991 160.274C33.0329 160.404 33.1013 160.522 33.1919 160.624C36.4835 164.1 40.8333 166.389 45.5626 167.133C45.6994 167.152 45.8387 167.142 45.9714 167.103C46.104 167.065 46.2269 166.998 46.3319 166.908C46.4369 166.819 46.5215 166.708 46.5803 166.583C46.639 166.458 46.6705 166.321 46.6726 166.183C50.4351 167.427 54.3088 168.304 58.24 168.802L58.1475 169.825C58.129 170.059 58.1956 170.292 58.3352 170.48C58.4747 170.669 58.6778 170.801 58.9069 170.852C63.6001 171.826 70.4305 171.728 75.3768 170.735C75.6105 170.685 75.8175 170.551 75.9584 170.358C76.0994 170.165 76.1644 169.926 76.1411 169.689L76.0486 168.861C80.768 168.302 85.4064 167.196 89.8701 165.565V166.203C89.8723 166.34 89.9036 166.476 89.9621 166.601C90.0205 166.725 90.1047 166.836 90.2092 166.926C90.3136 167.016 90.4359 167.082 90.5679 167.121C90.7 167.16 90.8388 167.171 90.9752 167.152C95.7054 166.411 100.056 164.122 103.346 160.643C103.437 160.542 103.507 160.424 103.549 160.294C103.592 160.165 103.607 160.029 103.594 159.893L103.351 157.688C107.883 153.676 110.376 149.139 110.186 144.173Z" fill="#43A548"/>
<path opacity="0.75" d="M110.186 144.173L106.983 107.271H27.7052L24.6527 142.922C24.3217 148.764 27.1843 154.299 33.0459 158.988L32.9485 159.874C32.9346 160.009 32.949 160.145 32.991 160.274C33.0329 160.404 33.1013 160.522 33.1919 160.624C36.4835 164.1 40.8333 166.389 45.5626 167.133C45.6994 167.152 45.8387 167.142 45.9714 167.103C46.104 167.065 46.2269 166.998 46.3319 166.908C46.4369 166.819 46.5215 166.708 46.5803 166.583C46.639 166.458 46.6705 166.321 46.6726 166.183C50.4351 167.427 54.3088 168.304 58.24 168.802L58.1475 169.825C58.129 170.059 58.1956 170.292 58.3352 170.48C58.4747 170.669 58.6778 170.801 58.9069 170.852C63.6001 171.826 70.4305 171.728 75.3768 170.735C75.6105 170.685 75.8175 170.551 75.9584 170.358C76.0994 170.165 76.1644 169.926 76.1411 169.689L76.0486 168.861C80.768 168.302 85.4064 167.196 89.8701 165.565V166.203C89.8723 166.34 89.9036 166.476 89.9621 166.601C90.0205 166.725 90.1047 166.836 90.2092 166.926C90.3136 167.016 90.4359 167.082 90.5679 167.121C90.7 167.16 90.8388 167.171 90.9752 167.152C95.7054 166.411 100.056 164.122 103.346 160.643C103.437 160.542 103.507 160.424 103.549 160.294C103.592 160.165 103.607 160.029 103.594 159.893L103.351 157.688C107.883 153.676 110.376 149.139 110.186 144.173Z" fill="white"/>
<g opacity="0.4">
<path d="M48.3476 137.809L48.8344 166.864L46.6729 166.192L48.0555 137.819C48.0542 137.78 48.0683 137.743 48.0948 137.714C48.1213 137.686 48.1579 137.669 48.1967 137.668C48.2354 137.667 48.2731 137.681 48.3014 137.707C48.3297 137.734 48.3463 137.771 48.3476 137.809Z" fill="#43A548"/>
<path d="M33.056 158.88L34.9741 144.196C34.9745 144.161 34.9619 144.126 34.9386 144.099C34.9153 144.072 34.883 144.055 34.8477 144.05C34.8124 144.045 34.7766 144.054 34.747 144.073C34.7174 144.093 34.696 144.123 34.6869 144.158L32.165 158.091L33.056 158.88Z" fill="#43A548"/>
<path d="M59.9098 141.451L58.2448 168.714L56.1562 168.529L59.7151 141.422C59.7189 141.396 59.7329 141.373 59.7539 141.357C59.7749 141.342 59.8012 141.335 59.827 141.339C59.8529 141.343 59.8761 141.357 59.8916 141.378C59.9071 141.399 59.9137 141.425 59.9098 141.451Z" fill="#43A548"/>
<path d="M75.2599 151.178L77.6941 168.705L76.0535 168.836L74.9775 151.207C74.9819 151.175 74.9971 151.145 75.0206 151.122C75.0442 151.099 75.0747 151.085 75.1072 151.082C75.1398 151.078 75.1726 151.086 75.2002 151.104C75.2279 151.121 75.2489 151.147 75.2599 151.178Z" fill="#43A548"/>
<path d="M88.6533 141.796L88.2979 166.138L89.8704 165.578L88.9454 141.83C88.9499 141.791 88.9388 141.752 88.9146 141.722C88.8904 141.691 88.8551 141.672 88.8163 141.667C88.7776 141.662 88.7387 141.674 88.7081 141.698C88.6775 141.722 88.6578 141.757 88.6533 141.796Z" fill="#43A548"/>
<path d="M102.168 144.192L104.539 156.563L103.351 157.673L101.891 144.236C101.894 144.204 101.908 144.175 101.931 144.152C101.953 144.129 101.981 144.114 102.013 144.109C102.044 144.104 102.076 144.11 102.104 144.125C102.132 144.14 102.155 144.163 102.168 144.192Z" fill="#43A548"/>
</g>
<path d="M67.329 131.243C89.237 131.243 106.997 120.989 106.997 108.341C106.997 95.6936 89.237 85.4404 67.329 85.4404C45.4211 85.4404 27.6611 95.6936 27.6611 108.341C27.6611 120.989 45.4211 131.243 67.329 131.243Z" fill="#43A548"/>
<path opacity="0.85" d="M95.4108 124.533C110.902 115.59 110.902 101.092 95.4108 92.1439C79.9195 83.1957 54.8033 83.2006 39.3169 92.1439C23.8304 101.087 23.8255 115.59 39.3169 124.533C54.8082 133.477 79.9195 133.477 95.4108 124.533Z" fill="white"/>
<path opacity="0.1" d="M63.3469 116.38C60.8153 114.919 60.8153 112.553 63.3469 111.092C65.8785 109.632 69.9777 109.632 72.5093 111.092C75.0409 112.553 75.0409 114.919 72.5093 116.38C69.9777 117.84 65.8736 117.84 63.3469 116.38Z" fill="black"/>
<path d="M74.12 108.054C75.0256 104.992 75.8337 99.145 75.4832 97.1732C75.1327 95.2015 72.8445 94.4907 72.679 94.0039H63.0785C62.9178 94.4907 60.6443 95.2064 60.2791 97.1732C59.914 99.1401 60.7367 104.992 61.6423 108.054C62.2995 110.08 63.2158 112.013 64.3686 113.804C64.5815 114.171 64.8827 114.479 65.2449 114.7C66.0474 115.157 66.9551 115.397 67.8787 115.397C68.8023 115.397 69.71 115.157 70.5125 114.7C70.7885 114.529 71.031 114.31 71.2282 114.052C71.2907 113.975 71.3445 113.892 71.3889 113.804C72.5417 112.012 73.4596 110.08 74.12 108.054Z" fill="#43A548"/>
<path opacity="0.1" d="M74.12 108.054C75.0256 104.992 75.8337 99.145 75.4832 97.1732C75.1327 95.2015 72.8445 94.4907 72.679 94.0039H63.0785C62.9178 94.4907 60.6443 95.2064 60.2791 97.1732C59.914 99.1401 60.7367 104.992 61.6423 108.054C62.2995 110.08 63.2158 112.013 64.3686 113.804C64.5815 114.171 64.8827 114.479 65.2449 114.7C66.0474 115.157 66.9551 115.397 67.8787 115.397C68.8023 115.397 69.71 115.157 70.5125 114.7C70.7885 114.529 71.031 114.31 71.2282 114.052C71.2907 113.975 71.3445 113.892 71.3889 113.804C72.5417 112.012 73.4596 110.08 74.12 108.054Z" fill="black"/>
<path opacity="0.1" d="M74.1199 108.054C73.4569 110.08 72.5409 112.013 71.3936 113.809C71.3434 113.893 71.2882 113.975 71.228 114.052C71.0308 114.31 70.7883 114.529 70.5124 114.7C69.7099 115.157 68.8022 115.397 67.8786 115.397C66.955 115.397 66.0473 115.157 65.2448 114.7C64.8839 114.479 64.583 114.173 64.3684 113.809C63.2189 112.014 62.3028 110.081 61.6421 108.054C60.7366 104.987 59.9284 99.1451 60.279 97.1734C60.3284 96.8949 60.4203 96.6256 60.5516 96.375C60.1573 97.8355 60.8486 99.3983 62.6207 100.533C65.5417 102.388 70.2349 102.388 73.1413 100.533C74.9086 99.4032 75.5999 97.8501 75.2153 96.3896C75.3449 96.6353 75.4352 96.8998 75.483 97.1734C75.8336 99.1451 75.0254 104.987 74.1199 108.054Z" fill="black"/>
<path opacity="0.1" d="M64.4319 96.7497L64.7727 93.999H63.0785C62.9178 94.4859 60.6443 95.2015 60.2791 97.1684C59.914 99.1352 60.7367 104.987 61.6423 108.049C62.2995 110.075 63.2158 112.008 64.3686 113.799C64.5815 114.166 64.8827 114.474 65.2449 114.695C65.9513 115.092 66.7379 115.327 67.5469 115.38C68.3558 115.433 69.1663 115.303 69.9186 115.001C68.2974 115.289 66.1845 114.738 64.7483 112.217C63.2148 109.524 62.0025 101.92 62.0025 99.7924C62.0025 97.6649 63.4485 97.4313 64.4319 96.7497Z" fill="black"/>
<path d="M71.3057 92.3682C73.2093 93.5805 73.2093 95.5522 71.3057 96.7498C70.2555 97.3483 69.0676 97.663 67.8589 97.663C66.6501 97.663 65.4622 97.3483 64.412 96.7498C62.5085 95.5327 62.5085 93.561 64.412 92.3682C65.4622 91.7698 66.6501 91.4551 67.8589 91.4551C69.0676 91.4551 70.2555 91.7698 71.3057 92.3682Z" fill="#43A548"/>
<path d="M70.5124 92.7094C71.973 93.5517 71.973 94.9148 70.5124 95.7522C69.6965 96.1673 68.7941 96.3837 67.8786 96.3837C66.9632 96.3837 66.0607 96.1673 65.2448 95.7522C63.7843 94.9148 63.7843 93.5517 65.2448 92.7094C66.0615 92.2969 66.9637 92.082 67.8786 92.082C68.7936 92.082 69.6957 92.2969 70.5124 92.7094Z" fill="#43A548"/>
<path opacity="0.3" d="M70.5124 92.7094C71.973 93.5517 71.973 94.9148 70.5124 95.7522C69.6965 96.1673 68.7941 96.3837 67.8786 96.3837C66.9632 96.3837 66.0607 96.1673 65.2448 95.7522C63.7843 94.9148 63.7843 93.5517 65.2448 92.7094C66.0615 92.2969 66.9637 92.082 67.8786 92.082C68.7936 92.082 69.6957 92.2969 70.5124 92.7094Z" fill="black"/>
<path d="M59.2709 97.9723C59.9727 98.0824 60.6906 98.0223 61.3643 97.7971C62.049 97.607 62.7043 97.3236 63.3117 96.9548C63.948 96.5479 64.5177 96.0454 65.001 95.4651C65.2625 95.1557 65.5048 94.8305 65.7264 94.4914C65.9544 94.1898 66.1472 93.8631 66.3009 93.5177C66.3301 93.435 66.2035 93.3765 66.15 93.4398C65.9163 93.7465 65.7362 94.0922 65.5171 94.4135C65.3182 94.7103 65.1037 94.9963 64.8745 95.2704C64.4178 95.8304 63.8834 96.3223 63.2874 96.7309C62.7667 97.0703 62.2058 97.3434 61.6175 97.5439C60.8738 97.8531 60.0705 97.9928 59.266 97.9528C59.2368 97.9528 59.2368 97.9967 59.266 98.0015L59.2709 97.9723Z" fill="#37474F"/>
<path d="M59.7923 98.0113C59.724 98.1142 59.6301 98.1975 59.5198 98.2531C59.4095 98.3086 59.2866 98.3345 59.1633 98.3281C59.0399 98.3217 58.9204 98.2833 58.8164 98.2167C58.7124 98.15 58.6276 98.0574 58.5703 97.948C58.7705 97.7938 59.0191 97.7162 59.2714 97.7289C59.3732 97.7366 59.4722 97.7658 59.562 97.8145C59.6517 97.8631 59.7302 97.9302 59.7923 98.0113Z" fill="#43A548"/>
<path d="M64.9332 96.5996C65.0757 96.7041 65.1728 96.8592 65.2045 97.0331C65.2362 97.2069 65.2001 97.3863 65.1036 97.5343C64.8409 97.9615 64.433 98.2795 63.9547 98.4301C63.9389 98.0096 63.9966 97.5895 64.1251 97.1887C64.1848 97.0205 64.2939 96.8743 64.4381 96.7692C64.5823 96.6641 64.7549 96.605 64.9332 96.5996Z" fill="#43A548"/>
<path d="M64.0038 95.2601C63.9403 95.4245 63.8156 95.5579 63.6558 95.6323C63.4961 95.7068 63.3137 95.7164 63.147 95.6593C62.6665 95.516 62.2547 95.2028 61.9883 94.7781C62.3916 94.6548 62.8138 94.6053 63.2346 94.632C63.4119 94.6446 63.5811 94.7117 63.7188 94.8241C63.8565 94.9365 63.956 95.0888 64.0038 95.2601Z" fill="#43A548"/>
<path d="M63.1318 97.7238C63.189 97.8464 63.2132 97.9819 63.2021 98.1167C63.191 98.2516 63.145 98.3813 63.0685 98.493C62.8105 98.9019 62.1386 98.8922 62.1386 98.8922C62.1134 98.7162 62.1233 98.5371 62.1675 98.365C62.2118 98.1929 62.2897 98.0312 62.3966 97.8893C62.49 97.7935 62.6092 97.7269 62.7397 97.6975C62.8702 97.6682 63.0064 97.6773 63.1318 97.7238Z" fill="#43A548"/>
<path d="M62.2749 96.297C62.1964 96.4061 62.091 96.493 61.9691 96.5493C61.8471 96.6056 61.7126 96.6294 61.5787 96.6184C61.0918 96.5891 60.7754 96.0001 60.7754 96.0001C60.9163 95.8909 61.0776 95.811 61.2498 95.765C61.4221 95.7191 61.6017 95.7079 61.7783 95.7323C61.907 95.7679 62.0226 95.8403 62.1108 95.9406C62.199 96.0409 62.256 96.1648 62.2749 96.297Z" fill="#43A548"/>
<path d="M61.4131 98.2646C61.4526 98.3772 61.464 98.4978 61.4462 98.6157C61.4284 98.7337 61.3819 98.8455 61.3109 98.9414C61.0792 99.1803 60.7667 99.3244 60.4346 99.3454C60.4215 99.0612 60.4748 98.7778 60.5904 98.5178C60.7607 98.3231 61.4131 98.2646 61.4131 98.2646Z" fill="#43A548"/>
<path d="M59.1982 96.7503C59.2239 96.8513 59.2723 96.945 59.3398 97.0244C59.4073 97.1037 59.4921 97.1665 59.5877 97.2079C59.8595 97.2929 60.1534 97.272 60.4105 97.1495C60.4105 97.1495 60.1232 96.6627 59.9236 96.6042C59.724 96.5458 59.1982 96.7503 59.1982 96.7503Z" fill="#43A548"/>
<g opacity="0.35">
<path d="M59.7923 98.0103C59.724 98.1132 59.6301 98.1965 59.5198 98.2521C59.4095 98.3077 59.2866 98.3335 59.1633 98.3271C59.0399 98.3208 58.9204 98.2823 58.8164 98.2157C58.7124 98.149 58.6276 98.0564 58.5703 97.947C58.7705 97.7929 59.0191 97.7152 59.2714 97.7279C59.3732 97.7357 59.4722 97.7648 59.562 97.8135C59.6517 97.8621 59.7302 97.9292 59.7923 98.0103Z" fill="white"/>
<path d="M64.9332 96.5986C65.0757 96.7031 65.1728 96.8582 65.2045 97.0321C65.2362 97.2059 65.2001 97.3853 65.1036 97.5334C64.8409 97.9605 64.433 98.2785 63.9547 98.4292C63.9389 98.0086 63.9966 97.5885 64.1251 97.1877C64.1848 97.0196 64.2939 96.8734 64.4381 96.7683C64.5823 96.6631 64.7549 96.604 64.9332 96.5986Z" fill="white"/>
<path d="M64.0038 95.2601C63.9403 95.4245 63.8156 95.5579 63.6558 95.6323C63.4961 95.7068 63.3137 95.7164 63.147 95.6593C62.6665 95.516 62.2547 95.2028 61.9883 94.7781C62.3916 94.6548 62.8138 94.6053 63.2346 94.632C63.4119 94.6446 63.5811 94.7117 63.7188 94.8241C63.8565 94.9365 63.956 95.0888 64.0038 95.2601Z" fill="white"/>
<path d="M63.1318 97.7238C63.189 97.8464 63.2132 97.9819 63.2021 98.1167C63.191 98.2516 63.145 98.3813 63.0685 98.493C62.8105 98.9019 62.1386 98.8922 62.1386 98.8922C62.1134 98.7162 62.1233 98.5371 62.1675 98.365C62.2118 98.1929 62.2897 98.0312 62.3966 97.8893C62.49 97.7935 62.6092 97.7269 62.7397 97.6975C62.8702 97.6682 63.0064 97.6773 63.1318 97.7238Z" fill="white"/>
<path d="M62.2749 96.297C62.1964 96.4061 62.091 96.493 61.9691 96.5493C61.8471 96.6056 61.7126 96.6294 61.5787 96.6184C61.0918 96.5891 60.7754 96.0001 60.7754 96.0001C60.9163 95.8909 61.0776 95.811 61.2498 95.765C61.4221 95.7191 61.6017 95.7079 61.7783 95.7323C61.907 95.7679 62.0226 95.8403 62.1108 95.9406C62.199 96.0409 62.256 96.1648 62.2749 96.297Z" fill="white"/>
<path d="M61.4131 98.2637C61.4526 98.3762 61.464 98.4968 61.4462 98.6147C61.4284 98.7327 61.3819 98.8445 61.3109 98.9404C61.0792 99.1793 60.7667 99.3234 60.4346 99.3445C60.4215 99.0602 60.4748 98.7769 60.5904 98.5168C60.7607 98.3221 61.4131 98.2637 61.4131 98.2637Z" fill="white"/>
<path d="M59.1982 96.7493C59.2239 96.8503 59.2723 96.944 59.3398 97.0234C59.4073 97.1027 59.4921 97.1655 59.5877 97.207C59.8595 97.2919 60.1534 97.271 60.4105 97.1485C60.4105 97.1485 60.1232 96.6617 59.9236 96.6033C59.724 96.5448 59.1982 96.7493 59.1982 96.7493Z" fill="white"/>
</g>
<path d="M64.4218 97.8062C64.5653 97.6034 64.6907 97.3884 64.7967 97.1636C64.91 96.9085 65.0028 96.6448 65.0742 96.3749C65.1375 96.1315 65.1959 95.8881 65.2446 95.6349C65.3138 95.4213 65.3305 95.1942 65.2932 94.9728C65.2932 94.9339 65.2008 94.8901 65.1813 94.9728C65.1339 95.1828 65.1013 95.396 65.0839 95.6106C65.0352 95.8443 64.9817 96.0974 64.9233 96.3165C64.8059 96.8223 64.6294 97.3125 64.3975 97.777C64.3975 97.777 64.3975 97.8354 64.4218 97.8111V97.8062Z" fill="#37474F"/>
<path d="M62.5429 98.4879C62.6959 98.4303 62.8258 98.3243 62.9129 98.1861C63.0177 98.0411 63.1136 97.8899 63.2002 97.7333C63.2873 97.5756 63.3654 97.4131 63.4338 97.2464C63.4679 97.1539 63.4923 97.0663 63.5215 96.9738C63.5638 96.8799 63.5901 96.7795 63.5994 96.6768C63.5994 96.6476 63.541 96.5941 63.5117 96.6282C63.4514 96.7172 63.4069 96.816 63.3803 96.9203C63.3413 97.0128 63.3073 97.1053 63.2732 97.2026C63.2041 97.369 63.1261 97.5315 63.0395 97.6895C62.9665 97.8258 62.8837 97.9621 62.8058 98.0984C62.7424 98.237 62.6474 98.3587 62.5283 98.4538C62.5283 98.4538 62.5283 98.5074 62.5283 98.4976L62.5429 98.4879Z" fill="#37474F"/>
<path d="M62.9131 95.1825C63.2184 95.2164 63.5161 95.3003 63.7943 95.4307C63.9166 95.4846 64.0354 95.5464 64.1497 95.6157C64.2037 95.6536 64.2557 95.6942 64.3055 95.7375C64.3493 95.7764 64.3785 95.83 64.4272 95.8592C64.4758 95.8884 64.5489 95.8592 64.544 95.8154C64.5391 95.7715 64.3833 95.6011 64.2908 95.5427C64.1679 95.4622 64.0375 95.3937 63.9014 95.3383C63.5914 95.2124 63.262 95.1416 62.9277 95.1289C62.9277 95.1289 62.9277 95.1776 62.9277 95.1825H62.9131Z" fill="#37474F"/>
<path d="M61.3111 96.176C61.4872 96.1839 61.6627 96.2018 61.8369 96.2295C62.025 96.2676 62.2091 96.323 62.387 96.395C62.5417 96.4545 62.6915 96.5261 62.8349 96.6092C62.9628 96.687 63.0962 96.7553 63.2341 96.8137C63.2416 96.8181 63.2502 96.8203 63.2589 96.8203C63.2676 96.8202 63.2761 96.8178 63.2835 96.8133C63.291 96.8088 63.2971 96.8025 63.3012 96.7948C63.3054 96.7872 63.3074 96.7786 63.3071 96.7699C63.3071 96.6238 63.0929 96.5557 62.9858 96.5021C62.83 96.41 62.6672 96.3303 62.499 96.2636C62.3161 96.1962 62.1269 96.1472 61.9342 96.1175C61.7321 96.0741 61.523 96.0741 61.3208 96.1175C61.2867 96.1175 61.3208 96.1808 61.3208 96.1857L61.3111 96.176Z" fill="#37474F"/>
<path d="M60.8925 98.9752C61.0019 98.8926 61.1015 98.7979 61.1895 98.6929C61.2869 98.5809 61.3745 98.464 61.4621 98.3423C61.5418 98.2366 61.615 98.126 61.6812 98.0113L61.7786 97.8458C61.837 97.7533 61.9198 97.6705 61.9685 97.5731C62.0171 97.4758 61.9198 97.4514 61.8711 97.4904C61.7734 97.5905 61.6899 97.7035 61.6228 97.8263L61.4037 98.1865C61.3307 98.3034 61.2479 98.4154 61.17 98.5322C61.0827 98.6738 60.985 98.8089 60.8779 98.9363C60.8779 98.9363 60.8779 98.9947 60.8779 98.9752H60.8925Z" fill="#37474F"/>
<path d="M59.7681 96.9599C59.9263 96.9836 60.0804 97.0295 60.2258 97.0962C60.3816 97.1546 60.5422 97.213 60.7126 97.286C60.883 97.3591 60.9658 97.4467 61.0972 97.5246C61.2287 97.6025 61.2384 97.6074 61.3017 97.656C61.365 97.7047 61.3845 97.7388 61.4477 97.7437C61.4531 97.7485 61.46 97.7511 61.4672 97.7511C61.4744 97.7511 61.4813 97.7485 61.4867 97.7437C61.492 97.7387 61.4962 97.7326 61.4991 97.7259C61.502 97.7192 61.5035 97.712 61.5035 97.7047C61.5035 97.6974 61.502 97.6902 61.4991 97.6835C61.4962 97.6768 61.492 97.6708 61.4867 97.6658C61.391 97.5741 61.2847 97.494 61.1702 97.4272C61.0344 97.329 60.8893 97.2442 60.737 97.1741C60.5783 97.1088 60.4157 97.0535 60.2501 97.0085C60.0924 96.9586 59.9286 96.9307 59.7633 96.9258C59.7292 96.9258 59.7389 96.9842 59.7633 96.9842L59.7681 96.9599Z" fill="#37474F"/>
<path d="M70.8878 85.3093C70.9495 85.2054 70.9841 85.0876 70.9883 84.9668C70.9926 84.846 70.9664 84.7261 70.9121 84.618C70.8569 84.5122 70.7756 84.4223 70.6759 84.3567C70.5763 84.2911 70.4615 84.252 70.3425 84.2432C70.2831 84.4823 70.3125 84.7349 70.4253 84.954C70.4736 85.042 70.5396 85.119 70.6192 85.1802C70.6988 85.2414 70.7903 85.2853 70.8878 85.3093Z" fill="#43A548"/>
<path d="M70.61 84.8807C70.9051 85.4615 71.0805 86.0955 71.1261 86.7453C71.212 87.3648 71.2251 87.9922 71.165 88.6148C71.0793 89.3527 70.8772 90.0725 70.5662 90.7471C70.4097 91.0815 70.2341 91.4066 70.0404 91.7208C69.8213 92.0908 69.5536 92.4414 69.3394 92.8211C69.2956 92.9039 69.4367 92.9477 69.4854 92.8941C70.0067 92.3001 70.4292 91.6262 70.7366 90.8981C71.0859 90.1686 71.3082 89.3849 71.3938 88.5807C71.5107 87.3295 71.3646 85.8787 70.6344 84.8271C70.6344 84.8271 70.6003 84.8272 70.61 84.8612V84.8807Z" fill="#37474F"/>
<path d="M71.686 90.4601C71.8364 90.5446 72.0133 90.5685 72.1807 90.5269C72.3481 90.4852 72.4933 90.3813 72.5866 90.2362C72.8635 89.8334 72.9846 89.3438 72.9274 88.8584C72.5458 89.0104 72.1946 89.2297 71.8904 89.5059C71.7627 89.6249 71.6746 89.7802 71.6381 89.9508C71.6015 90.1215 71.6182 90.2993 71.686 90.4601Z" fill="#43A548"/>
<path d="M70.1184 90.1681C70.2372 90.0425 70.3034 89.8761 70.3034 89.7032C70.3034 89.5302 70.2372 89.3639 70.1184 89.2382C69.7968 88.8688 69.3524 88.6284 68.8672 88.5615C68.9189 88.9695 69.0425 89.3651 69.2323 89.7299C69.3156 89.8865 69.4458 90.0131 69.6048 90.0917C69.7638 90.1703 69.9434 90.197 70.1184 90.1681Z" fill="#43A548"/>
<path d="M71.9584 88.4052C72.0905 88.4075 72.2209 88.3755 72.337 88.3124C72.453 88.2493 72.5507 88.1571 72.6206 88.045C72.6903 87.8921 72.7263 87.7261 72.7263 87.5581C72.7263 87.3901 72.6903 87.2241 72.6206 87.0713C72.6206 87.0713 71.9828 87.2612 71.827 87.7091C71.7807 87.8256 71.7685 87.953 71.7918 88.0762C71.815 88.1995 71.8728 88.3136 71.9584 88.4052Z" fill="#43A548"/>
<path d="M70.3329 88.2112C70.3982 88.0961 70.4325 87.9661 70.4325 87.8339C70.4325 87.7016 70.3982 87.5716 70.3329 87.4566C70.1138 87.0379 69.4614 86.9697 69.4614 86.9697C69.4211 87.1395 69.4149 87.3156 69.4433 87.4878C69.4717 87.66 69.5342 87.8248 69.627 87.9726C69.7079 88.0776 69.8182 88.1563 69.9438 88.1987C70.0694 88.2412 70.2048 88.2455 70.3329 88.2112Z" fill="#43A548"/>
<path d="M71.7635 86.6534C71.8788 86.6424 71.9898 86.6039 72.0872 86.5413C72.1847 86.4786 72.2656 86.3935 72.3234 86.2931C72.4433 85.9897 72.4433 85.652 72.3234 85.3486C72.3234 85.3486 71.7587 85.5921 71.6516 85.8355C71.5445 86.0789 71.7635 86.6534 71.7635 86.6534Z" fill="#43A548"/>
<path d="M69.5244 85.28C69.6257 85.2629 69.7295 85.2689 69.8282 85.2976C69.9268 85.3262 70.0177 85.3768 70.094 85.4456C70.2772 85.6538 70.3761 85.9229 70.3715 86.2002C70.1277 86.1761 69.8919 86.0997 69.6802 85.9762C69.5244 85.8156 69.5244 85.28 69.5244 85.28Z" fill="#43A548"/>
<path d="M72.528 89.4964C72.455 89.5938 72.3625 89.6814 72.2797 89.7739C72.1969 89.8664 72.1093 89.9541 72.0217 90.0417C71.8418 90.2154 71.6516 90.3779 71.4521 90.5285C71.2719 90.6794 71.0772 90.8255 70.8873 90.9618C70.6975 91.0981 70.5027 91.1955 70.3177 91.3221C70.2642 91.361 70.3177 91.4341 70.3859 91.4194C70.5946 91.3442 70.7888 91.2339 70.9604 91.0933C71.1551 90.9521 71.3498 90.8109 71.5348 90.66C71.7257 90.5119 71.9048 90.3491 72.0704 90.1731C72.1677 90.0709 72.2554 89.9638 72.343 89.8518C72.4175 89.7455 72.4857 89.635 72.5475 89.5208C72.5475 89.5208 72.5475 89.4672 72.5475 89.4867L72.528 89.4964Z" fill="#37474F"/>
<path d="M72.3821 87.5833C72.3355 87.7396 72.2558 87.8841 72.1484 88.0068C72.051 88.1383 71.9634 88.2697 71.866 88.3963C71.7652 88.5279 71.6562 88.6531 71.5398 88.7712L71.3305 88.9805C71.2576 89.0377 71.1951 89.1068 71.1455 89.185C71.1455 89.224 71.1747 89.2824 71.2137 89.2629C71.3 89.2088 71.3786 89.1433 71.4473 89.0682L71.6762 88.854C71.8035 88.7239 71.9222 88.5857 72.0315 88.4401C72.2569 88.2094 72.3916 87.9052 72.4113 87.5833C72.4113 87.5833 72.4113 87.5541 72.3821 87.5833Z" fill="#37474F"/>
<path d="M69.5729 89.2524C69.7239 89.5239 69.9034 89.7785 70.1084 90.0119C70.2079 90.1118 70.3172 90.2015 70.4346 90.2797C70.5418 90.3652 70.6726 90.4162 70.8094 90.4257C70.8435 90.4257 70.8873 90.377 70.8581 90.3381C70.7935 90.2966 70.7229 90.2654 70.6488 90.2456C70.5952 90.2177 70.5432 90.1868 70.493 90.1531C70.3935 90.0854 70.2992 90.0106 70.2106 89.9292C69.9674 89.7319 69.7613 89.4928 69.6021 89.2232C69.6021 89.1891 69.5631 89.2232 69.5729 89.2524Z" fill="#37474F"/>
<path d="M69.797 87.4073C69.8061 87.4754 69.8224 87.5423 69.8457 87.6069C69.8846 87.6897 69.9284 87.7676 69.9722 87.8455C70.0699 88.0207 70.1875 88.1841 70.3228 88.3323C70.4448 88.4706 70.582 88.5947 70.7317 88.7023C70.8534 88.7997 71.0044 88.9701 71.1748 88.9506C71.1882 88.9471 71.1997 88.9386 71.207 88.9268C71.2142 88.915 71.2167 88.9008 71.2137 88.8873C71.1693 88.8276 71.1129 88.7779 71.0482 88.7412L70.8778 88.6049C70.7451 88.5089 70.6199 88.4031 70.5029 88.2885C70.3801 88.1673 70.2647 88.0389 70.1572 87.9039C70.0993 87.8274 70.0456 87.7478 69.9966 87.6653C69.9479 87.5777 69.8895 87.4901 69.8408 87.3976C69.7921 87.3051 69.7921 87.3976 69.797 87.3976V87.4073Z" fill="#37474F"/>
<path d="M72.1585 85.8935C72.0879 86.039 72.0065 86.1789 71.9151 86.3122C71.8323 86.4388 71.7593 86.5702 71.6765 86.6968C71.5937 86.8234 71.5207 86.9159 71.4477 87.0279C71.3658 87.1301 71.3016 87.2453 71.2578 87.3687C71.2578 87.4222 71.3308 87.4806 71.3649 87.4271C71.399 87.3735 71.5158 87.1739 71.6035 87.0522C71.6911 86.9305 71.7641 86.8185 71.8372 86.6968C71.9071 86.5787 71.9705 86.4568 72.027 86.3317C72.0903 86.1983 72.1424 86.0599 72.1828 85.9179C72.1828 85.9179 72.1828 85.8692 72.1585 85.8935Z" fill="#37474F"/>
<path d="M69.8943 85.7329C69.9268 85.8036 69.9643 85.8719 70.0063 85.9374C70.0513 86.0047 70.1017 86.0682 70.1572 86.1272C70.2537 86.2489 70.3595 86.3628 70.4737 86.468C70.5881 86.5654 70.7102 86.6533 70.8388 86.7309C70.956 86.8166 71.0836 86.887 71.2185 86.9403C71.311 86.9695 71.35 86.8624 71.2624 86.8234C71.1461 86.772 71.0366 86.7066 70.9362 86.6287C70.8209 86.5597 70.7104 86.4833 70.6051 86.3999C70.498 86.3123 70.4006 86.2051 70.2984 86.1126C70.249 86.0697 70.2019 86.0242 70.1572 85.9763C70.0696 85.8956 69.9927 85.804 69.9284 85.7037C69.9284 85.6696 69.8797 85.7037 69.8943 85.7329Z" fill="#37474F"/>
<path d="M70.2549 93.9704C70.3084 91.7066 71.8274 91.0494 74.9042 91.3463C74.9042 91.3463 74.8507 93.0406 73.9305 93.8779C72.7329 94.9295 70.844 94.7494 70.2549 93.9704Z" fill="#43A548"/>
<path opacity="0.3" d="M70.2549 93.9704C70.3084 91.7066 71.8274 91.0494 74.9042 91.3463C74.9042 91.3463 74.8507 93.0406 73.9305 93.8779C72.7329 94.9295 70.844 94.7494 70.2549 93.9704Z" fill="black"/>
<path opacity="0.2" d="M74.2713 91.668C73.3512 92.0282 71.063 92.8315 70.2549 93.9707V93.4839C70.2549 93.4839 70.8683 92.4177 74.2713 91.668Z" fill="black"/>
<path d="M70.7028 94.3841C72.7719 93.4591 74.0036 94.5594 75.0844 97.4561C75.0844 97.4561 73.5313 98.1376 72.3678 97.6459C70.9073 97.0325 70.2549 95.2555 70.7028 94.3841Z" fill="#43A548"/>
<path opacity="0.2" d="M70.7028 94.3841C72.7719 93.4591 74.0036 94.5594 75.0844 97.4561C75.0844 97.4561 73.5313 98.1376 72.3678 97.6459C70.9073 97.0325 70.2549 95.2555 70.7028 94.3841Z" fill="black"/>
<path opacity="0.2" d="M74.5092 97.0229C73.7887 96.3462 72.075 94.6276 70.7021 94.3842L71.1646 94.1943C71.1646 94.1943 72.3671 94.2722 74.5092 97.0229Z" fill="black"/>
<path d="M68.3855 93.9212L67.7428 94.0673C67.6117 94.5546 67.3886 95.0123 67.0856 95.4159C66.5988 96.0001 65.036 96.4187 64.5978 95.8589L63.6241 94.6174C63.6241 94.6174 63.1373 95.1043 62.8014 94.9728C62.4655 94.8414 61.8277 93.0644 61.9202 92.6068C61.9371 92.4403 62.0032 92.2827 62.1101 92.154C62.1101 92.154 62.0273 92.0859 62.2415 91.7159C62.4113 91.1931 62.4563 90.6379 62.373 90.0947C62.373 89.6078 62.9913 89.0626 63.6339 89.0334C64.2765 89.0041 65.0019 88.8386 65.148 88.5465C65.294 88.2544 66.3845 87.6653 66.8032 87.9623C67.2219 88.2593 67.7331 88.6634 67.5968 89.0674C67.5222 89.4615 67.5222 89.8661 67.5968 90.2602C67.7585 90.1374 67.956 90.0709 68.1591 90.0709C68.3622 90.0709 68.5596 90.1374 68.7214 90.2602C69.2082 90.7178 69.7584 92.081 69.3299 92.6944C68.9015 93.3078 68.3855 93.9212 68.3855 93.9212Z" fill="#43A548"/>
<path opacity="0.75" d="M68.3855 93.9212L67.7428 94.0673C67.6117 94.5546 67.3886 95.0123 67.0856 95.4159C66.5988 96.0001 65.036 96.4187 64.5978 95.8589L63.6241 94.6174C63.6241 94.6174 63.1373 95.1043 62.8014 94.9728C62.4655 94.8414 61.8277 93.0644 61.9202 92.6068C61.9371 92.4403 62.0032 92.2827 62.1101 92.154C62.1101 92.154 62.0273 92.0859 62.2415 91.7159C62.4113 91.1931 62.4563 90.6379 62.373 90.0947C62.373 89.6078 62.9913 89.0626 63.6339 89.0334C64.2765 89.0041 65.0019 88.8386 65.148 88.5465C65.294 88.2544 66.3845 87.6653 66.8032 87.9623C67.2219 88.2593 67.7331 88.6634 67.5968 89.0674C67.5222 89.4615 67.5222 89.8661 67.5968 90.2602C67.7585 90.1374 67.956 90.0709 68.1591 90.0709C68.3622 90.0709 68.5596 90.1374 68.7214 90.2602C69.2082 90.7178 69.7584 92.081 69.3299 92.6944C68.9015 93.3078 68.3855 93.9212 68.3855 93.9212Z" fill="white"/>
<path d="M67.9563 93.6784C68.0492 93.8823 68.0762 94.1101 68.0334 94.33C67.9906 94.55 67.8803 94.7511 67.7177 94.9053C67.1433 95.4505 64.6019 95.1146 64.3975 93.2451C64.6224 93.5332 64.9262 93.7496 65.272 93.8681C65.6178 93.9865 65.9905 94.0018 66.3448 93.9121C66.8627 93.7342 67.4092 93.6549 67.9563 93.6784Z" fill="#43A548"/>
<path opacity="0.65" d="M67.9563 93.6784C68.0492 93.8823 68.0762 94.1101 68.0334 94.33C67.9906 94.55 67.8803 94.7511 67.7177 94.9053C67.1433 95.4505 64.6019 95.1146 64.3975 93.2451C64.6224 93.5332 64.9262 93.7496 65.272 93.8681C65.6178 93.9865 65.9905 94.0018 66.3448 93.9121C66.8627 93.7342 67.4092 93.6549 67.9563 93.6784Z" fill="white"/>
<path d="M67.3721 89.9001C67.6248 89.778 67.9051 89.7243 68.1851 89.7443C68.5843 89.7979 69.0663 91.7404 69.0663 91.7404C69.0663 91.7404 68.93 91.0831 68.7547 91.5359C68.5794 91.9886 68.7547 92.9137 67.9563 93.678L67.411 91.346C67.411 91.346 66.8317 90.2555 67.3721 89.9001Z" fill="#43A548"/>
<path opacity="0.65" d="M67.3721 89.9001C67.6248 89.778 67.9051 89.7243 68.1851 89.7443C68.5843 89.7979 69.0663 91.7404 69.0663 91.7404C69.0663 91.7404 68.93 91.0831 68.7547 91.5359C68.5794 91.9886 68.7547 92.9137 67.9563 93.678L67.411 91.346C67.411 91.346 66.8317 90.2555 67.3721 89.9001Z" fill="white"/>
<path d="M67.5135 89.9005C67.5135 89.9005 67.5525 89.9541 67.6498 89.5208C67.678 89.3371 67.6618 89.1492 67.6025 88.9731C67.5432 88.7969 67.4426 88.6375 67.309 88.5082C67.1532 88.3962 66.7492 88.8782 66.2867 88.8538C65.8242 88.8295 64.7775 88.7711 64.7823 88.2988C64.6747 88.4824 64.6414 88.7003 64.6894 88.9076C64.7374 89.115 64.863 89.2961 65.0403 89.4137C65.6878 89.8372 67.1873 89.6376 67.5135 89.9005Z" fill="#43A548"/>
<path opacity="0.65" d="M67.5135 89.9005C67.5135 89.9005 67.5525 89.9541 67.6498 89.5208C67.678 89.3371 67.6618 89.1492 67.6025 88.9731C67.5432 88.7969 67.4426 88.6375 67.309 88.5082C67.1532 88.3962 66.7492 88.8782 66.2867 88.8538C65.8242 88.8295 64.7775 88.7711 64.7823 88.2988C64.6747 88.4824 64.6414 88.7003 64.6894 88.9076C64.7374 89.115 64.863 89.2961 65.0403 89.4137C65.6878 89.8372 67.1873 89.6376 67.5135 89.9005Z" fill="white"/>
<path d="M64.8311 89.2237C64.8311 89.2237 65.2839 89.0582 64.7337 89.803C64.1836 90.5479 63.9694 90.8059 63.9694 90.8059C63.9694 90.8059 63.5507 90.5917 63.3852 90.8936C63.0994 91.3082 62.6855 91.6177 62.207 91.7747C62.4231 91.509 62.5325 91.1723 62.5137 90.8303C62.4894 90.2412 62.5673 89.9101 63.3608 89.8566C63.9126 89.8358 64.4368 89.6101 64.8311 89.2237Z" fill="#43A548"/>
<path opacity="0.65" d="M64.8311 89.2237C64.8311 89.2237 65.2839 89.0582 64.7337 89.803C64.1836 90.5479 63.9694 90.8059 63.9694 90.8059C63.9694 90.8059 63.5507 90.5917 63.3852 90.8936C63.0994 91.3082 62.6855 91.6177 62.207 91.7747C62.4231 91.509 62.5325 91.1723 62.5137 90.8303C62.4894 90.2412 62.5673 89.9101 63.3608 89.8566C63.9126 89.8358 64.4368 89.6101 64.8311 89.2237Z" fill="white"/>
<path d="M62.0999 92.1546C62.0999 92.1546 61.8078 91.77 62.9421 91.3757C63.3365 91.2394 63.8087 94.1702 63.8087 94.1702C63.8087 94.1702 61.5692 93.917 62.0999 92.1546Z" fill="#43A548"/>
<path opacity="0.65" d="M62.0999 92.1546C62.0999 92.1546 61.8078 91.77 62.9421 91.3757C63.3365 91.2394 63.8087 94.1702 63.8087 94.1702C63.8087 94.1702 61.5692 93.917 62.0999 92.1546Z" fill="white"/>
<path d="M63.8767 94.1697C63.7681 94.2974 63.6884 94.447 63.6431 94.6083C63.5977 94.7697 63.5877 94.9389 63.6138 95.1044C63.6625 95.7568 65.3859 96.6088 65.9993 95.6887C65.6199 95.5082 65.2893 95.2393 65.0352 94.9048C64.7811 94.5702 64.6109 94.1795 64.5388 93.7656L63.8767 94.1697Z" fill="#43A548"/>
<path opacity="0.65" d="M63.8767 94.1697C63.7681 94.2974 63.6884 94.447 63.6431 94.6083C63.5977 94.7697 63.5877 94.9389 63.6138 95.1044C63.6625 95.7568 65.3859 96.6088 65.9993 95.6887C65.6199 95.5082 65.2893 95.2393 65.0352 94.9048C64.7811 94.5702 64.6109 94.1795 64.5388 93.7656L63.8767 94.1697Z" fill="white"/>
<path d="M66.6279 93.075C66.562 93.1442 66.4827 93.1993 66.3948 93.237C66.3069 93.2746 66.2123 93.294 66.1167 93.294C66.0211 93.294 65.9265 93.2746 65.8386 93.237C65.7508 93.1993 65.6715 93.1442 65.6055 93.075L64.9678 92.6563C64.9911 92.2699 65.1208 91.8976 65.3426 91.5804C65.6494 91.3029 65.6494 91.5804 65.6494 91.5804C65.5918 91.6328 65.5477 91.6982 65.5207 91.7712C65.4937 91.8442 65.4845 91.9226 65.4941 91.9999C65.5036 92.0771 65.5315 92.151 65.5755 92.2152C65.6194 92.2794 65.6782 92.3322 65.7467 92.369C66.2774 92.6806 67.0174 92.4713 66.6279 93.075Z" fill="#43A548"/>
<path d="M63.8427 91.4239C63.7358 91.8606 63.7929 92.3215 64.0033 92.7189C64.1046 92.9415 64.2534 93.1393 64.4393 93.2982C64.6251 93.4572 64.8436 93.5735 65.0792 93.639C64.8773 93.3571 64.7887 93.0095 64.8309 92.6653C64.8796 91.9983 65.1133 90.8591 65.1133 90.8591C65.1133 90.8591 64.3684 90.2603 63.8427 91.4239Z" fill="#43A548"/>
<path d="M64.7868 90.7424C64.9214 90.5812 65.0991 90.4618 65.2992 90.398C65.4992 90.3342 65.7133 90.3287 65.9163 90.3821C66.5589 90.6061 66.9533 91.3266 67.3768 91.3558C67.3768 91.3558 67.4158 91.9546 67.0166 91.8864C66.6174 91.8183 65.6485 91.5603 65.3905 92.0714C65.4003 92.0617 64.4509 91.5359 64.7868 90.7424Z" fill="#43A548"/>
<path d="M67.5136 92.6651C67.4016 92.855 67.3042 93.0595 67.1728 93.2396C67.0191 93.4031 66.8298 93.5291 66.6195 93.6076C66.4093 93.6861 66.1838 93.7151 65.9605 93.6924C65.5711 93.6924 65.1767 93.6924 64.7921 93.6924C64.5 93.6924 64.5974 93.7508 64.4708 93.9309C64.3442 94.1111 64.2615 94.0429 64.1446 93.9309C64.0392 93.778 63.9495 93.6149 63.8769 93.4441C63.6555 93.1599 63.4569 92.8588 63.2829 92.5434C63.0444 91.9689 62.9957 90.9076 63.7698 90.7567C64.0034 90.7129 64.1105 90.7567 64.2566 90.5376C64.5009 90.1487 64.8808 89.8642 65.3228 89.7392C65.5974 89.6595 65.8864 89.6421 66.1686 89.6884C66.4508 89.7348 66.719 89.8436 66.9537 90.007C67.1788 90.1712 67.3678 90.38 67.5087 90.6204C67.651 90.925 67.7226 91.2579 67.718 91.5941C67.7652 91.9637 67.6936 92.3388 67.5136 92.6651Z" fill="#43A548"/>
<path opacity="0.5" d="M67.5136 92.6651C67.4016 92.855 67.3042 93.0595 67.1728 93.2396C67.0191 93.4031 66.8298 93.5291 66.6195 93.6076C66.4093 93.6861 66.1838 93.7151 65.9605 93.6924C65.5711 93.6924 65.1767 93.6924 64.7921 93.6924C64.5 93.6924 64.5974 93.7508 64.4708 93.9309C64.3442 94.1111 64.2615 94.0429 64.1446 93.9309C64.0392 93.778 63.9495 93.6149 63.8769 93.4441C63.6555 93.1599 63.4569 92.8588 63.2829 92.5434C63.0444 91.9689 62.9957 90.9076 63.7698 90.7567C64.0034 90.7129 64.1105 90.7567 64.2566 90.5376C64.5009 90.1487 64.8808 89.8642 65.3228 89.7392C65.5974 89.6595 65.8864 89.6421 66.1686 89.6884C66.4508 89.7348 66.719 89.8436 66.9537 90.007C67.1788 90.1712 67.3678 90.38 67.5087 90.6204C67.651 90.925 67.7226 91.2579 67.718 91.5941C67.7652 91.9637 67.6936 92.3388 67.5136 92.6651Z" fill="white"/>
<path d="M67.4111 91.3457C67.5085 91.5064 67.6545 92.7722 66.7052 93.2687C65.7558 93.7653 64.4219 93.2687 64.4219 93.2687C64.4219 93.2687 64.9477 94.4031 65.9992 94.515C67.0508 94.627 68.0342 93.9747 68.1413 93.3125C68.2485 92.6504 68.0732 91.5161 67.4111 91.3457Z" fill="white"/>
<path d="M65.6054 93.0644C65.5142 93.018 65.4343 92.9522 65.371 92.8718C65.3078 92.7913 65.2628 92.6981 65.2392 92.5985C65.2156 92.4989 65.2139 92.3954 65.2343 92.2952C65.2546 92.1949 65.2965 92.1002 65.3571 92.0177C65.7612 91.2826 66.4476 90.9224 65.9121 90.6984C65.3766 90.4745 64.7047 90.4842 64.4223 91.156C64.3395 91.3588 64.3059 91.5783 64.3242 91.7965C64.3425 92.0147 64.4122 92.2256 64.5275 92.4117C64.6429 92.5979 64.8008 92.754 64.9881 92.8675C65.1754 92.9809 65.3869 93.0484 65.6054 93.0644Z" fill="white"/>
<path d="M66.628 93.0744C66.8024 92.9246 66.931 92.7286 66.999 92.509C67.067 92.2894 67.0717 92.0551 67.0126 91.8329C66.7594 91.1416 66.0389 91.2049 65.6445 91.8329C65.6445 91.8329 66.1022 91.6479 66.477 92.2175C66.6282 92.4759 66.6818 92.7799 66.628 93.0744Z" fill="white"/>
<path d="M67.6401 90.2407C67.7959 90.8395 67.4357 90.9904 66.8222 90.5864C66.2088 90.1823 65.6441 89.8902 65.1183 90.2066C64.6464 90.5604 64.2182 90.9689 63.8428 91.4237C63.9442 91.0989 63.9983 90.7611 64.0034 90.4208C64.0034 89.934 64.8457 89.1064 65.7804 89.0723C66.7151 89.0382 67.4357 89.4472 67.6401 90.2407Z" fill="white"/>
<path d="M64.0032 90.7324C63.8239 90.9256 63.694 91.1594 63.6244 91.4137C63.5549 91.668 63.5479 91.9353 63.604 92.1929C63.7014 93.2396 64.5241 93.5755 64.3976 94.1403C64.271 94.705 63.7062 94.6758 63.1269 93.9309C62.8773 93.6029 62.7151 93.2168 62.6555 92.8089C62.5959 92.401 62.6408 91.9847 62.7861 91.5989C63.0295 90.747 63.7306 90.5474 64.0032 90.7324Z" fill="white"/>
<path d="M67.5674 89.8227C67.8707 89.7178 68.1989 89.7082 68.5078 89.7952C68.8168 89.8823 69.0917 90.0617 69.2957 90.3096C69.8458 91.0058 70.133 90.9084 69.8458 91.8821C69.5586 92.8558 69.7241 93.1479 68.3561 93.9366C68.4578 93.7482 68.5733 93.5675 68.7017 93.3962C69.0571 92.8801 68.7893 92.033 68.8234 91.2492C68.8721 90.2122 67.5674 89.8227 67.5674 89.8227Z" fill="white"/>
<path d="M68.0054 94.5256C68.0054 94.1897 67.8837 94.7204 67.3141 95.105C66.7445 95.4896 65.8146 95.8596 65.0552 95.5918C64.4806 95.3952 63.9964 94.9976 63.692 94.4721C63.617 94.6372 63.5781 94.8165 63.5781 94.9979C63.5781 95.1792 63.617 95.3585 63.692 95.5237C63.9403 96.2783 65.0454 96.9258 66.1554 96.658C66.6582 96.5614 67.114 96.2987 67.4495 95.912C67.785 95.5253 67.9808 95.037 68.0054 94.5256Z" fill="white"/>
<path d="M62.1 92.1543C62.0129 92.4226 61.9839 92.7064 62.0149 92.9867C62.046 93.2671 62.1364 93.5376 62.2802 93.7803C62.767 94.5885 63.7845 94.1601 63.6725 94.5301C63.5606 94.9001 63.249 95.1873 62.6015 94.8952C62.2836 94.7844 62.0107 94.5726 61.8244 94.2922C61.638 94.0118 61.5485 93.6782 61.5694 93.3422C61.6765 92.7093 61.6473 92.2809 62.1 92.1543Z" fill="white"/>
<path d="M64.8753 89.0487C64.8169 89.5355 64.52 89.4187 63.8676 89.4771C63.2152 89.5355 62.9718 89.7011 62.7673 90.4946C62.6557 90.9504 62.4663 91.3836 62.2075 91.775C62.3125 91.4756 62.3125 91.1494 62.2075 90.85C62.0371 90.3242 61.9007 88.9757 63.2104 88.6836C64.52 88.3915 64.8997 88.8345 64.8753 89.0487Z" fill="white"/>
<path d="M67.6503 89.5206C67.7712 89.233 67.7847 88.9114 67.6882 88.6146C67.5916 88.3179 67.3915 88.0658 67.1245 87.9043C66.1508 87.2422 64.773 88.0212 64.7487 88.3912C64.7243 88.7612 65.3962 88.9608 65.6834 88.7466C65.9707 88.5324 66.5354 88.0212 67.144 88.4399C67.3104 88.5648 67.4436 88.7287 67.5319 88.9171C67.6202 89.1056 67.6608 89.3128 67.6503 89.5206Z" fill="white"/>
<path d="M71.3059 94.2628L71.0965 94.5646C71.2251 94.8167 71.3044 95.091 71.3302 95.3728C71.3545 95.7914 70.8433 96.5558 70.4636 96.4925L69.597 96.3416C69.597 96.3416 69.5727 96.7359 69.3877 96.7992C68.9166 96.7065 68.4822 96.48 68.1365 96.1468C68.0816 96.0715 68.0495 95.9819 68.044 95.8888C68.044 95.8888 67.9856 95.8888 67.932 95.6551C67.8053 95.3753 67.6153 95.1286 67.377 94.9346C67.2869 94.7924 67.2502 94.6229 67.2734 94.4562C67.2966 94.2895 67.3781 94.1364 67.5036 94.0242C67.7568 93.7711 67.9905 93.4303 67.9515 93.255C67.9126 93.0797 68.1316 92.4274 68.4384 92.3933C68.7451 92.3592 69.0859 92.3349 69.1784 92.554C69.2964 92.7424 69.4483 92.9075 69.6263 93.0408C69.6263 93.0408 69.7188 92.6172 70.1131 92.6221C70.5074 92.627 71.228 92.9824 71.2718 93.3913C71.3156 93.8003 71.3059 94.2628 71.3059 94.2628Z" fill="#43A548"/>
<path opacity="0.75" d="M71.3059 94.2628L71.0965 94.5646C71.2251 94.8167 71.3044 95.091 71.3302 95.3728C71.3545 95.7914 70.8433 96.5558 70.4636 96.4925L69.597 96.3416C69.597 96.3416 69.5727 96.7359 69.3877 96.7992C68.9166 96.7065 68.4822 96.48 68.1365 96.1468C68.0816 96.0715 68.0495 95.9819 68.044 95.8888C68.044 95.8888 67.9856 95.8888 67.932 95.6551C67.8053 95.3753 67.6153 95.1286 67.377 94.9346C67.2869 94.7924 67.2502 94.6229 67.2734 94.4562C67.2966 94.2895 67.3781 94.1364 67.5036 94.0242C67.7568 93.7711 67.9905 93.4303 67.9515 93.255C67.9126 93.0797 68.1316 92.4274 68.4384 92.3933C68.7451 92.3592 69.0859 92.3349 69.1784 92.554C69.2964 92.7424 69.4483 92.9075 69.6263 93.0408C69.6263 93.0408 69.7188 92.6172 70.1131 92.6221C70.5074 92.627 71.228 92.9824 71.2718 93.3913C71.3156 93.8003 71.3059 94.2628 71.3059 94.2628Z" fill="white"/>
<path d="M71.0625 94.3164C71.1777 94.3659 71.2744 94.4504 71.3391 94.5578C71.4037 94.6652 71.433 94.7903 71.4228 94.9152C71.3936 95.3582 70.2154 96.1713 69.4268 95.4751C69.6271 95.5099 69.8332 95.4856 70.0199 95.4052C70.2067 95.3248 70.366 95.1918 70.4783 95.0223C70.6281 94.7531 70.8261 94.5138 71.0625 94.3164Z" fill="#43A548"/>
<path opacity="0.65" d="M71.0625 94.3164C71.1777 94.3659 71.2744 94.4504 71.3391 94.5578C71.4037 94.6652 71.433 94.7903 71.4228 94.9152C71.3936 95.3582 70.2154 96.1713 69.4268 95.4751C69.6271 95.5099 69.8332 95.4856 70.0199 95.4052C70.2067 95.3248 70.366 95.1918 70.4783 95.0223C70.6281 94.7531 70.8261 94.5138 71.0625 94.3164Z" fill="white"/>
<path d="M69.4026 92.9722C69.4581 92.8263 69.5524 92.6984 69.6752 92.6022C69.8651 92.4756 70.7901 93.089 70.7901 93.089C70.7901 93.089 70.4883 92.8651 70.5856 93.1182C70.683 93.3714 71.1017 93.6976 71.0725 94.3061L69.9576 93.5515C69.9576 93.5515 69.3101 93.3422 69.4026 92.9722Z" fill="#43A548"/>
<path opacity="0.65" d="M69.4026 92.9722C69.4581 92.8263 69.5524 92.6984 69.6752 92.6022C69.8651 92.4756 70.7901 93.089 70.7901 93.089C70.7901 93.089 70.4883 92.8651 70.5856 93.1182C70.683 93.3714 71.1017 93.6976 71.0725 94.3061L69.9576 93.5515C69.9576 93.5515 69.3101 93.3422 69.4026 92.9722Z" fill="white"/>
<path d="M69.4558 92.9184C69.4558 92.9184 69.4948 92.9184 69.3731 92.7091C69.3147 92.6224 69.2366 92.5507 69.1452 92.4999C69.0538 92.4491 68.9517 92.4207 68.8473 92.417C68.7402 92.417 68.7548 92.7821 68.5552 92.9476C68.3556 93.1132 67.8979 93.4783 67.7227 93.2787C67.7514 93.3928 67.8204 93.4927 67.9171 93.5598C68.0138 93.627 68.1315 93.6568 68.2484 93.6438C68.6769 93.5757 69.2221 92.933 69.4558 92.9184Z" fill="#43A548"/>
<path opacity="0.65" d="M69.4558 92.9184C69.4558 92.9184 69.4948 92.9184 69.3731 92.7091C69.3147 92.6224 69.2366 92.5507 69.1452 92.4999C69.0538 92.4491 68.9517 92.4207 68.8473 92.417C68.7402 92.417 68.7548 92.7821 68.5552 92.9476C68.3556 93.1132 67.8979 93.4783 67.7227 93.2787C67.7514 93.3928 67.8204 93.4927 67.9171 93.5598C68.0138 93.627 68.1315 93.6568 68.2484 93.6438C68.6769 93.5757 69.2221 92.933 69.4558 92.9184Z" fill="white"/>
<path d="M68.0931 93.6492C68.0931 93.6492 68.2197 93.4057 68.2684 93.9218C68.3171 94.4378 68.3317 94.6277 68.3317 94.6277C68.3317 94.6277 68.0737 94.6959 68.1223 94.8857C68.16 95.1633 68.1053 95.4456 67.9665 95.689C67.9497 95.5049 67.8687 95.3326 67.7377 95.2022C67.504 94.9685 67.4115 94.803 67.7377 94.4817C67.9555 94.258 68.0822 93.9612 68.0931 93.6492Z" fill="#43A548"/>
<path opacity="0.65" d="M68.0931 93.6492C68.0931 93.6492 68.2197 93.4057 68.2684 93.9218C68.3171 94.4378 68.3317 94.6277 68.3317 94.6277C68.3317 94.6277 68.0737 94.6959 68.1223 94.8857C68.16 95.1633 68.1053 95.4456 67.9665 95.689C67.9497 95.5049 67.8687 95.3326 67.7377 95.2022C67.504 94.9685 67.4115 94.803 67.7377 94.4817C67.9555 94.258 68.0822 93.9612 68.0931 93.6492Z" fill="white"/>
<path d="M68.0636 95.8882C68.0636 95.8882 67.7958 95.8395 68.1171 95.2504C68.2291 95.046 69.529 96.0781 69.529 96.0781C69.529 96.0781 68.5066 96.8181 68.0636 95.8882Z" fill="#43A548"/>
<path opacity="0.65" d="M68.0636 95.8882C68.0636 95.8882 67.7958 95.8395 68.1171 95.2504C68.2291 95.046 69.529 96.0781 69.529 96.0781C69.529 96.0781 68.5066 96.8181 68.0636 95.8882Z" fill="white"/>
<path d="M69.5586 96.0544C69.5611 96.1485 69.5842 96.2408 69.6262 96.3249C69.6683 96.409 69.7283 96.4829 69.802 96.5413C70.0649 96.7944 71.1019 96.4975 71.0094 95.8889C70.7835 95.9585 70.5442 95.9723 70.3118 95.9291C70.0795 95.8858 69.8611 95.7868 69.6754 95.6406L69.5586 96.0544Z" fill="#43A548"/>
<path opacity="0.65" d="M69.5586 96.0544C69.5611 96.1485 69.5842 96.2408 69.6262 96.3249C69.6683 96.409 69.7283 96.4829 69.802 96.5413C70.0649 96.7944 71.1019 96.4975 71.0094 95.8889C70.7835 95.9585 70.5442 95.9723 70.3118 95.9291C70.0795 95.8858 69.8611 95.7868 69.6754 95.6406L69.5586 96.0544Z" fill="white"/>
<path d="M70.2839 94.5641C70.2839 94.5641 70.2839 94.9098 69.8555 94.9439L69.4368 95.012C69.301 94.8444 69.215 94.642 69.1885 94.4278C69.1885 94.1942 69.3151 94.3159 69.3151 94.3159C69.3151 94.3159 69.3151 94.6713 69.651 94.6031C69.9869 94.5349 70.2206 94.1698 70.2839 94.5641Z" fill="#43A548"/>
<path d="M68.5112 94.9295C68.6268 95.1553 68.8232 95.3291 69.0613 95.4164C69.1874 95.4705 69.3237 95.4963 69.4608 95.4921C69.5979 95.4879 69.7324 95.4538 69.8549 95.392C69.6575 95.3542 69.4828 95.2406 69.3681 95.0756C69.1392 94.7786 68.8082 94.2188 68.8082 94.2188C68.8082 94.2188 68.2921 94.2528 68.5112 94.9295Z" fill="#43A548"/>
<path d="M68.6431 94.3162C68.6384 94.1984 68.6676 94.0817 68.7271 93.9799C68.7866 93.8781 68.874 93.7955 68.979 93.7417C69.3295 93.5957 69.7628 93.7417 69.9527 93.5859C69.9527 93.5859 70.1961 93.8245 70.0062 93.9462C69.8163 94.0679 69.3149 94.3259 69.4025 94.6326C69.3977 94.6083 68.8037 94.7495 68.6431 94.3162Z" fill="#43A548"/>
<path d="M70.4975 94.0629C70.5288 94.1831 70.5532 94.305 70.5705 94.428C70.5686 94.5534 70.5378 94.6767 70.4803 94.7882C70.4229 94.8996 70.3404 94.9963 70.2394 95.0707C70.0788 95.2167 69.9084 95.3579 69.7526 95.5137C69.5968 95.6695 69.6942 95.6111 69.7088 95.7328C69.7234 95.8545 69.665 95.8593 69.5676 95.8496C69.4684 95.8306 69.372 95.7996 69.2804 95.7571C69.0824 95.7222 68.8872 95.6734 68.6962 95.6111C68.3846 95.4601 67.9659 95.0366 68.2385 94.6763C68.3164 94.5692 68.37 94.54 68.3602 94.3988C68.3139 94.1463 68.3643 93.8856 68.5014 93.6686C68.5865 93.5353 68.7001 93.4225 68.8339 93.3384C68.9677 93.2542 69.1185 93.2007 69.2755 93.1817C69.431 93.1645 69.5885 93.1795 69.738 93.2255C69.9142 93.2988 70.0709 93.4121 70.1956 93.5566C70.3461 93.6901 70.4516 93.867 70.4975 94.0629Z" fill="#43A548"/>
<path opacity="0.5" d="M70.4975 94.0629C70.5288 94.1831 70.5532 94.305 70.5705 94.428C70.5686 94.5534 70.5378 94.6767 70.4803 94.7882C70.4229 94.8996 70.3404 94.9963 70.2394 95.0707C70.0788 95.2167 69.9084 95.3579 69.7526 95.5137C69.5968 95.6695 69.6942 95.6111 69.7088 95.7328C69.7234 95.8545 69.665 95.8593 69.5676 95.8496C69.4684 95.8306 69.372 95.7996 69.2804 95.7571C69.0824 95.7222 68.8872 95.6734 68.6962 95.6111C68.3846 95.4601 67.9659 95.0366 68.2385 94.6763C68.3164 94.5692 68.37 94.54 68.3602 94.3988C68.3139 94.1463 68.3643 93.8856 68.5014 93.6686C68.5865 93.5353 68.7001 93.4225 68.8339 93.3384C68.9677 93.2542 69.1185 93.2007 69.2755 93.1817C69.431 93.1645 69.5885 93.1795 69.738 93.2255C69.9142 93.2988 70.0709 93.4121 70.1956 93.5566C70.3461 93.6901 70.4516 93.867 70.4975 94.0629Z" fill="white"/>
<path d="M69.9476 93.5613C70.1238 93.6699 70.2607 93.8318 70.3386 94.0235C70.4166 94.2152 70.4314 94.4268 70.3809 94.6275C70.174 95.0219 69.8265 95.3242 69.4072 95.4746C69.5868 95.5497 69.7814 95.5821 69.9757 95.5695C70.1699 95.5568 70.3586 95.4993 70.527 95.4015C70.7373 95.2662 70.895 95.063 70.9738 94.8256C71.0526 94.5883 71.0478 94.3311 70.9603 94.0968C70.7753 93.7804 70.2981 93.3763 69.9476 93.5613Z" fill="white"/>
<path d="M69.8456 94.9437C69.7909 94.9572 69.734 94.9589 69.6787 94.9486C69.6233 94.9383 69.5708 94.9162 69.5247 94.884C69.4786 94.8517 69.4399 94.8099 69.4113 94.7614C69.3826 94.7129 69.3647 94.6589 69.3587 94.6029C69.2516 94.1501 69.4025 93.7412 69.0958 93.8483C68.7891 93.9554 68.5116 94.2183 68.6479 94.6029C68.6913 94.7156 68.7603 94.8167 68.8495 94.8981C68.9386 94.9796 69.0455 95.0392 69.1617 95.0723C69.2778 95.1053 69.4001 95.1109 69.5188 95.0886C69.6375 95.0663 69.7493 95.0167 69.8456 94.9437Z" fill="white"/>
<path d="M70.2837 94.5639C70.3002 94.4366 70.2802 94.3072 70.2259 94.1908C70.1716 94.0744 70.0853 93.9759 69.977 93.9067C69.6119 93.7168 69.3441 94.0041 69.4026 94.3936C69.454 94.3163 69.5305 94.2591 69.6192 94.2317C69.7078 94.2042 69.8033 94.208 69.8894 94.2426C70.0567 94.2962 70.1975 94.4109 70.2837 94.5639Z" fill="white"/>
<path d="M69.6358 93.0113C69.9279 93.2012 69.8354 93.4008 69.4265 93.4641C69.0175 93.5274 68.6767 93.615 68.5793 93.9509C68.5178 94.2716 68.495 94.5985 68.5112 94.9246C68.4291 94.7471 68.3208 94.583 68.1899 94.4378C68.0935 94.2353 68.0638 94.0076 68.1049 93.7872C68.146 93.5668 68.2559 93.365 68.4187 93.2109C68.5634 93.0365 68.7662 92.9202 68.9899 92.8835C69.2136 92.8468 69.443 92.8922 69.6358 93.0113Z" fill="white"/>
<path d="M68.3116 94.5889C68.3114 94.7337 68.3452 94.8766 68.4103 95.0059C68.4754 95.1353 68.57 95.2476 68.6865 95.3337C69.1197 95.7281 69.5871 95.5577 69.7575 95.8498C69.9279 96.1419 69.6699 96.3366 69.149 96.2393C68.9221 96.1979 68.7095 96.0993 68.5314 95.9528C68.3533 95.8062 68.2157 95.6166 68.1315 95.4019C67.8978 94.9637 68.1363 94.6083 68.3116 94.5889Z" fill="white"/>
<path d="M69.4512 92.855C69.5364 92.6982 69.6672 92.571 69.8262 92.4902C69.9853 92.4093 70.1652 92.3787 70.3421 92.4023C70.8289 92.485 70.9312 92.3487 71.1697 92.8404C71.4083 93.3322 71.5933 93.41 71.3255 94.2523C71.2966 94.1356 71.277 94.0167 71.2671 93.8969C71.2184 93.5512 70.7802 93.3029 70.5076 92.9622C70.1425 92.5337 69.4512 92.855 69.4512 92.855Z" fill="white"/>
<path d="M71.399 94.6519C71.2822 94.5059 71.4233 94.7736 71.3308 95.1388C71.2902 95.3581 71.202 95.566 71.0725 95.7476C70.943 95.9293 70.7752 96.0804 70.5811 96.1904C70.2735 96.3256 69.9269 96.3429 69.6074 96.239C69.6074 96.3121 69.7048 96.5117 69.9969 96.6772C70.2552 96.7853 70.5435 96.7987 70.8107 96.7149C71.0779 96.6312 71.307 96.4558 71.4574 96.2196C71.6245 95.9894 71.7096 95.7099 71.699 95.4257C71.6884 95.1414 71.5828 94.869 71.399 94.6519Z" fill="white"/>
<path d="M68.0637 95.8887C68.1279 96.0319 68.222 96.1599 68.3395 96.264C68.457 96.3681 68.5954 96.4459 68.7453 96.4924C69.2322 96.6433 69.5194 96.0834 69.607 96.283C69.6947 96.4826 69.6801 96.7114 69.3052 96.8331C69.1339 96.9073 68.943 96.9232 68.7618 96.8784C68.5806 96.8335 68.4192 96.7304 68.3023 96.5849C68.0978 96.2635 67.9226 96.1126 68.0637 95.8887Z" fill="white"/>
<path d="M68.044 93.5616C68.1998 93.7758 68.044 93.844 67.786 94.1117C67.528 94.3795 67.4988 94.545 67.713 94.9491C67.8386 95.1797 67.9242 95.4299 67.9661 95.6891C67.898 95.5241 67.7762 95.3869 67.6205 95.2996C67.5045 95.2495 67.4007 95.1748 67.3162 95.0808C67.2318 94.9868 67.1686 94.8756 67.1312 94.7549C67.0937 94.6342 67.0828 94.5069 67.0992 94.3816C67.1156 94.2563 67.1589 94.136 67.2261 94.029C67.6594 93.4155 67.9759 93.4594 68.044 93.5616Z" fill="white"/>
<path d="M69.3591 92.7094C69.3032 92.5419 69.1887 92.4003 69.0365 92.3108C68.8843 92.2213 68.7049 92.1899 68.5314 92.2225C67.8791 92.315 67.6016 93.1573 67.733 93.3228C67.8645 93.4883 68.2198 93.3228 68.2539 93.1183C68.288 92.9138 68.3318 92.4951 68.7408 92.4513C68.857 92.4411 68.974 92.4592 69.0817 92.5041C69.1894 92.5491 69.2846 92.6195 69.3591 92.7094Z" fill="white"/>
<path opacity="0.1" d="M86.8078 111.555C82.7086 109.189 82.7086 105.353 86.8078 102.986C90.907 100.62 97.5573 100.62 101.656 102.986C105.756 105.353 105.756 109.189 101.656 111.555C97.5573 113.921 90.9119 113.921 86.8078 111.555Z" fill="black"/>
<path opacity="0.1" d="M33.1672 111.555C29.068 109.189 29.068 105.353 33.1672 102.986C37.2664 100.62 43.9167 100.62 48.0159 102.986C52.1151 105.353 52.1151 109.189 48.0159 111.555C43.9167 113.921 37.2664 113.921 33.1672 111.555Z" fill="black"/>
<path d="M47.67 102.518C43.7753 100.259 37.4463 100.259 33.5127 102.518V102.105C31.4679 103.288 30.4942 104.85 30.5916 106.399C30.4991 107.942 31.4728 109.509 33.5127 110.688C37.4074 112.947 43.7363 112.947 47.67 110.688C51.6037 108.429 51.5794 104.777 47.67 102.518Z" fill="#43A548"/>
<path opacity="0.3" d="M47.67 102.518C43.7753 100.259 37.4463 100.259 33.5127 102.518V102.105C31.4679 103.288 30.4942 104.85 30.5916 106.399C30.4991 107.942 31.4728 109.509 33.5127 110.688C37.4074 112.947 43.7363 112.947 47.67 110.688C51.6037 108.429 51.5794 104.777 47.67 102.518Z" fill="white"/>
<path d="M47.6702 102.105C51.5649 104.364 51.5649 108.025 47.6702 110.284C43.7755 112.543 37.4465 112.538 33.5128 110.284C29.5791 108.029 29.6181 104.364 33.5128 102.105C37.4076 99.8457 43.7609 99.8554 47.6702 102.105Z" fill="#FAFAFA"/>
<path d="M35.7909 102.898C33.1035 104.451 33.1035 106.963 35.7909 108.516C38.4783 110.069 42.8355 110.064 45.5278 108.516C48.22 106.968 48.2151 104.451 45.5278 102.898C42.8404 101.345 38.4783 101.345 35.7909 102.898Z" fill="#43A548"/>
<path opacity="0.5" d="M35.7909 102.898C33.1035 104.451 33.1035 106.963 35.7909 108.516C38.4783 110.069 42.8355 110.064 45.5278 108.516C48.22 106.968 48.2151 104.451 45.5278 102.898C42.8404 101.345 38.4783 101.345 35.7909 102.898Z" fill="white"/>
<path d="M36.1226 103.078C33.6154 104.538 33.6154 106.87 36.1226 108.316C38.6299 109.762 42.6852 109.777 45.1925 108.316C47.6997 106.856 47.6949 104.524 45.1925 103.078C42.6901 101.632 38.625 101.642 36.1226 103.078Z" fill="#FAFAFA"/>
<path d="M101.311 102.518C97.4159 100.259 91.0626 100.259 87.1533 102.518V102.105C85.1085 103.288 84.1349 104.85 84.2322 106.399C84.1397 107.942 85.1134 109.509 87.1533 110.688C91.048 112.947 97.4013 112.947 101.311 110.688C105.22 108.429 105.225 104.777 101.311 102.518Z" fill="#43A548"/>
<path opacity="0.3" d="M101.311 102.518C97.4159 100.259 91.0626 100.259 87.1533 102.518V102.105C85.1085 103.288 84.1349 104.85 84.2322 106.399C84.1397 107.942 85.1134 109.509 87.1533 110.688C91.048 112.947 97.4013 112.947 101.311 110.688C105.22 108.429 105.225 104.777 101.311 102.518Z" fill="white"/>
<path d="M101.31 102.105C105.205 104.364 105.205 108.025 101.31 110.284C97.4157 112.543 91.0624 112.538 87.1531 110.284C83.2438 108.029 83.2584 104.364 87.1531 102.105C91.0478 99.8457 97.4011 99.8554 101.31 102.105Z" fill="#FAFAFA"/>
<path d="M89.4315 102.898C86.7442 104.451 86.7442 106.963 89.4315 108.516C92.1189 110.069 96.4761 110.069 99.1684 108.516C101.861 106.963 101.856 104.451 99.1684 102.898C96.481 101.345 92.1189 101.345 89.4315 102.898Z" fill="#43A548"/>
<path opacity="0.5" d="M89.4315 102.898C86.7442 104.451 86.7442 106.963 89.4315 108.516C92.1189 110.069 96.4761 110.069 99.1684 108.516C101.861 106.963 101.856 104.451 99.1684 102.898C96.481 101.345 92.1189 101.345 89.4315 102.898Z" fill="white"/>
<path d="M89.7625 103.078C87.2602 104.538 87.2602 106.87 89.7625 108.316C92.2649 109.762 96.3252 109.777 98.8324 108.316C101.34 106.856 101.335 104.524 98.8324 103.078C96.33 101.632 92.2649 101.642 89.7625 103.078Z" fill="#FAFAFA"/>
<path opacity="0.1" d="M85.2055 99.5691C83.9445 98.8388 83.9445 97.6607 85.2055 96.9353C85.9119 96.5753 86.6935 96.3877 87.4863 96.3877C88.2791 96.3877 89.0607 96.5753 89.7672 96.9353C91.0281 97.6607 91.0281 98.8388 89.7672 99.5691C89.0601 99.9267 88.2787 100.113 87.4863 100.113C86.6939 100.113 85.9126 99.9267 85.2055 99.5691Z" fill="black"/>
<path d="M87.47 88.6973C87.377 88.6973 87.2879 88.7342 87.2221 88.8C87.1564 88.8657 87.1195 88.9549 87.1195 89.0478L87.1535 96.8373C87.1531 97.0121 87.09 97.181 86.9756 97.3132C86.8613 97.4454 86.7033 97.5322 86.5304 97.5578C85.7612 97.6747 85.2256 97.9278 85.2305 98.293C85.2305 98.7798 86.2529 99.2034 87.5089 99.1985C88.765 99.1936 89.7776 98.7701 89.7727 98.2638C89.7727 97.8986 89.2469 97.6503 88.4826 97.5432C88.3092 97.5209 88.1496 97.4367 88.0333 97.3061C87.917 97.1755 87.8518 97.0073 87.8497 96.8324L87.8156 89.0186C87.8106 88.9308 87.7718 88.8483 87.7074 88.7885C87.643 88.7286 87.5579 88.6959 87.47 88.6973Z" fill="#43A548"/>
<path opacity="0.5" d="M87.47 88.6973C87.377 88.6973 87.2879 88.7342 87.2221 88.8C87.1564 88.8657 87.1195 88.9549 87.1195 89.0478L87.1535 96.8373C87.1531 97.0121 87.09 97.181 86.9756 97.3132C86.8613 97.4454 86.7033 97.5322 86.5304 97.5578C85.7612 97.6747 85.2256 97.9278 85.2305 98.293C85.2305 98.7798 86.2529 99.2034 87.5089 99.1985C88.765 99.1936 89.7776 98.7701 89.7727 98.2638C89.7727 97.8986 89.2469 97.6503 88.4826 97.5432C88.3092 97.5209 88.1496 97.4367 88.0333 97.3061C87.917 97.1755 87.8518 97.0073 87.8497 96.8324L87.8156 89.0186C87.8106 88.9308 87.7718 88.8483 87.7074 88.7885C87.643 88.7286 87.5579 88.6959 87.47 88.6973Z" fill="white"/>
<path opacity="0.15" d="M87.8153 89.043C87.816 88.9974 87.8075 88.9521 87.7903 88.9099C87.7732 88.8677 87.7478 88.8293 87.7155 88.7971C87.6833 88.7648 87.6449 88.7394 87.6027 88.7223C87.5605 88.7051 87.5152 88.6966 87.4697 88.6973C87.4236 88.6973 87.378 88.7064 87.3355 88.724C87.293 88.7416 87.2544 88.7674 87.2218 88.8C87.1893 88.8325 87.1634 88.8712 87.1458 88.9137C87.1282 88.9562 87.1191 89.0018 87.1191 89.0478V90.9952C87.3454 91.0688 87.5891 91.0688 87.8153 90.9952V89.043Z" fill="black"/>
<path d="M90.2642 77.9236C90.0597 77.3199 88.9692 76.8525 87.5086 76.8525C86.0481 76.8525 84.9624 77.2858 84.758 77.9431C84.5535 78.6003 83.7405 85.1532 83.7551 86.8669C83.8235 87.8157 84.2486 88.7034 84.945 89.3514C85.6414 89.9994 86.5574 90.3596 87.5086 90.3596C88.4599 90.3596 89.3758 89.9994 90.0722 89.3514C90.7686 88.7034 91.1938 87.8157 91.2622 86.8669C91.1115 83.8683 90.7782 80.8816 90.2642 77.9236Z" fill="#43A548"/>
<g opacity="0.6">
<path d="M90.2642 77.9236C90.0597 77.3199 88.9692 76.8525 87.5086 76.8525C86.0481 76.8525 84.9624 77.2858 84.758 77.9431C84.5535 78.6003 83.7405 85.1532 83.7551 86.8669C83.8235 87.8157 84.2486 88.7034 84.945 89.3514C85.6414 89.9994 86.5574 90.3596 87.5086 90.3596C88.4599 90.3596 89.3758 89.9994 90.0722 89.3514C90.7686 88.7034 91.1938 87.8157 91.2622 86.8669C91.1115 83.8683 90.7782 80.8816 90.2642 77.9236Z" fill="white"/>
</g>
<path opacity="0.2" d="M85.6926 88.6976C83.9157 87.0278 84.2078 81.6482 84.568 78.9121C84.2516 80.952 83.7453 85.4845 83.755 86.8671C83.7621 87.3447 83.8658 87.8159 84.0598 88.2523C84.2538 88.6888 84.5341 89.0814 84.8839 89.4067C85.2337 89.7319 85.6457 89.983 86.0951 90.1447C86.5445 90.3065 87.022 90.3757 87.4988 90.348C88.3076 90.3729 89.1035 90.1412 89.7724 89.6859C89.0633 89.8662 88.3209 89.8703 87.6099 89.6981C86.8988 89.5258 86.2406 89.1824 85.6926 88.6976Z" fill="#43A548"/>
<g opacity="0.2">
<path d="M88.799 89.3451C88.799 89.6372 88.2197 89.8758 87.5089 89.8758C86.7981 89.8758 86.2188 89.6372 86.2188 89.3451C86.2188 89.053 86.7932 88.8193 87.5089 88.8193C88.2245 88.8193 88.799 89.053 88.799 89.3451Z" fill="#43A548"/>
</g>
<path opacity="0.2" d="M87.5083 79.1063C88.8849 79.1063 90.0009 78.6507 90.0009 78.0888C90.0009 77.5268 88.8849 77.0713 87.5083 77.0713C86.1316 77.0713 85.0156 77.5268 85.0156 78.0888C85.0156 78.6507 86.1316 79.1063 87.5083 79.1063Z" fill="#43A548"/>
<path opacity="0.1" d="M45.017 99.5691C43.7561 98.8388 43.7561 97.6607 45.017 96.9353C45.7234 96.5753 46.505 96.3877 47.2978 96.3877C48.0907 96.3877 48.8723 96.5753 49.5787 96.9353C50.8396 97.6607 50.8396 98.8388 49.5787 99.5691C48.8716 99.9267 48.0903 100.113 47.2978 100.113C46.5054 100.113 45.7241 99.9267 45.017 99.5691Z" fill="black"/>
<path d="M47.2756 88.6973C47.2297 88.6966 47.184 88.7053 47.1414 88.7227C47.0989 88.7402 47.0603 88.766 47.028 88.7988C46.9957 88.8315 46.9703 88.8705 46.9535 88.9133C46.9367 88.9561 46.9287 89.0019 46.93 89.0478L46.9592 96.8373C46.9588 97.0121 46.8956 97.181 46.7813 97.3132C46.6669 97.4454 46.509 97.5322 46.336 97.5578C45.5668 97.6747 45.0313 97.9278 45.0362 98.293C45.0362 98.7798 46.0585 99.2034 47.3146 99.1985C48.5706 99.1936 49.5833 98.7701 49.5784 98.2638C49.5784 97.8986 49.0526 97.6503 48.2883 97.5432C48.1148 97.5209 47.9553 97.4367 47.839 97.3061C47.7227 97.1755 47.6575 97.0073 47.6554 96.8324L47.6262 89.0186C47.62 88.9304 47.5801 88.8479 47.5149 88.7881C47.4497 88.7283 47.3641 88.6958 47.2756 88.6973Z" fill="#43A548"/>
<path opacity="0.5" d="M47.2756 88.6973C47.2297 88.6966 47.184 88.7053 47.1414 88.7227C47.0989 88.7402 47.0603 88.766 47.028 88.7988C46.9957 88.8315 46.9703 88.8705 46.9535 88.9133C46.9367 88.9561 46.9287 89.0019 46.93 89.0478L46.9592 96.8373C46.9588 97.0121 46.8956 97.181 46.7813 97.3132C46.6669 97.4454 46.509 97.5322 46.336 97.5578C45.5668 97.6747 45.0313 97.9278 45.0362 98.293C45.0362 98.7798 46.0585 99.2034 47.3146 99.1985C48.5706 99.1936 49.5833 98.7701 49.5784 98.2638C49.5784 97.8986 49.0526 97.6503 48.2883 97.5432C48.1148 97.5209 47.9553 97.4367 47.839 97.3061C47.7227 97.1755 47.6575 97.0073 47.6554 96.8324L47.6262 89.0186C47.62 88.9304 47.5801 88.8479 47.5149 88.7881C47.4497 88.7283 47.3641 88.6958 47.2756 88.6973Z" fill="white"/>
<path opacity="0.15" d="M47.6269 89.0427C47.6168 88.9575 47.5757 88.8789 47.5116 88.8219C47.4474 88.7649 47.3646 88.7334 47.2788 88.7334C47.1929 88.7334 47.1101 88.7649 47.0459 88.8219C46.9818 88.8789 46.9408 88.9575 46.9307 89.0427V90.9901C47.1569 91.0637 47.4006 91.0637 47.6269 90.9901V89.0427Z" fill="black"/>
<path d="M50.0755 77.9236C49.871 77.3199 48.7756 76.8525 47.3151 76.8525C45.8545 76.8525 44.7689 77.2858 44.5644 77.9431C44.3599 78.6003 43.5566 85.1532 43.5566 86.8669C43.625 87.8157 44.0502 88.7034 44.7466 89.3514C45.443 89.9994 46.3589 90.3596 47.3102 90.3596C48.2615 90.3596 49.1774 89.9994 49.8738 89.3514C50.5702 88.7034 50.9954 87.8157 51.0637 86.8669C50.916 83.8685 50.586 80.8819 50.0755 77.9236Z" fill="#43A548"/>
<g opacity="0.6">
<path d="M50.0755 77.9236C49.871 77.3199 48.7756 76.8525 47.3151 76.8525C45.8545 76.8525 44.7689 77.2858 44.5644 77.9431C44.3599 78.6003 43.5566 85.1532 43.5566 86.8669C43.625 87.8157 44.0502 88.7034 44.7466 89.3514C45.443 89.9994 46.3589 90.3596 47.3102 90.3596C48.2615 90.3596 49.1774 89.9994 49.8738 89.3514C50.5702 88.7034 50.9954 87.8157 51.0637 86.8669C50.916 83.8685 50.586 80.8819 50.0755 77.9236Z" fill="white"/>
</g>
<path opacity="0.2" d="M45.5042 88.6976C43.7321 87.0278 44.0193 81.6482 44.3844 78.9121C44.0631 80.952 43.5568 85.4845 43.5665 86.8671C43.5743 87.3445 43.6784 87.8153 43.8727 88.2515C44.0669 88.6876 44.3473 89.08 44.6969 89.4051C45.0466 89.7302 45.4583 89.9813 45.9074 90.1433C46.3565 90.3054 46.8337 90.375 47.3104 90.348C48.1191 90.3729 48.915 90.1412 49.5839 89.6859C48.8748 89.8662 48.1325 89.8703 47.4214 89.6981C46.7103 89.5258 46.0522 89.1824 45.5042 88.6976Z" fill="#43A548"/>
<g opacity="0.2">
<path d="M47.3155 89.8709C48.028 89.8709 48.6056 89.6355 48.6056 89.3451C48.6056 89.0547 48.028 88.8193 47.3155 88.8193C46.603 88.8193 46.0254 89.0547 46.0254 89.3451C46.0254 89.6355 46.603 89.8709 47.3155 89.8709Z" fill="#43A548"/>
</g>
<path opacity="0.2" d="M49.8075 78.0888C49.8075 78.6535 48.6927 79.1112 47.3149 79.1112C45.9371 79.1112 44.8223 78.6535 44.8223 78.0888C44.8223 77.5241 45.9371 77.0713 47.3149 77.0713C48.6927 77.0713 49.8075 77.5289 49.8075 78.0888Z" fill="#43A548"/>
<path d="M143.868 168.571L141.2 167.583L142.062 165.776L143.708 167.295L143.868 168.571Z" fill="black"/>
<path d="M146.589 163.756C146.589 163.756 146.706 165.489 146.735 166.034C146.764 166.58 144.442 168.288 143.868 168.571L143.707 167.29C143.182 167.926 142.737 168.624 142.383 169.369C141.94 170.148 141.38 171.623 140.153 172.631C138.332 174.13 135.489 174.905 132.583 175.021C129.676 175.138 128.011 174.442 127.183 173.814C126.356 173.186 126.088 172.451 126.288 171.716C126.487 170.981 146.589 163.756 146.589 163.756Z" fill="#263238"/>
<path d="M138.79 157.885L138.746 156.882C138.21 156.882 138.157 158.342 137.378 159.603C136.255 161.521 134.89 163.286 133.318 164.856C130.397 167.558 127.768 169.238 126.458 170.474C124.705 172.101 127.811 174.652 132.553 174.369C134.905 174.223 139.082 173.016 140.25 171.619C141.419 170.221 142.125 168.05 143.059 167.037C143.994 166.025 146.01 164.993 146.589 163.761C146.91 163.084 146.73 161.512 146.53 160.178C146.35 158.951 146.302 157.072 145.61 157.227L145.567 157.86C145.284 158.396 144.637 159.287 142.738 159.618C141.769 159.788 138.965 159.876 138.79 157.885Z" fill="#455A64"/>
<path opacity="0.15" d="M141.215 159.671C140.309 159.598 139.336 159.301 138.951 158.488V158.459C139.008 158.808 138.983 159.165 138.879 159.503C138.775 159.84 138.595 160.15 138.352 160.406C137.51 161.404 132.189 168.43 132.189 168.43C132.189 168.43 137.145 162.631 138.094 161.536C139.501 159.924 139.949 159.735 141.239 159.681L141.215 159.671Z" fill="black"/>
<path opacity="0.15" d="M140.041 161.531C140.054 161.605 140.094 161.671 140.154 161.715C140.214 161.76 140.289 161.78 140.363 161.771C140.437 161.762 140.505 161.726 140.553 161.668C140.601 161.611 140.625 161.537 140.621 161.463C140.608 161.389 140.567 161.323 140.507 161.279C140.448 161.234 140.373 161.214 140.299 161.223C140.224 161.231 140.156 161.268 140.108 161.326C140.061 161.383 140.037 161.456 140.041 161.531Z" fill="black"/>
<path opacity="0.15" d="M138.649 163.084C138.659 163.161 138.698 163.23 138.76 163.278C138.821 163.325 138.898 163.347 138.975 163.337C139.013 163.333 139.05 163.321 139.083 163.303C139.116 163.284 139.145 163.259 139.169 163.229C139.192 163.199 139.21 163.165 139.22 163.128C139.23 163.092 139.233 163.053 139.228 163.016C139.215 162.942 139.175 162.876 139.115 162.831C139.055 162.787 138.98 162.767 138.906 162.775C138.832 162.784 138.764 162.821 138.716 162.878C138.668 162.936 138.644 163.009 138.649 163.084Z" fill="black"/>
<path opacity="0.15" d="M137.262 164.657C137.265 164.695 137.277 164.732 137.295 164.766C137.313 164.8 137.338 164.83 137.368 164.854C137.398 164.878 137.432 164.896 137.469 164.906C137.506 164.917 137.545 164.92 137.583 164.915C137.657 164.902 137.723 164.862 137.767 164.802C137.812 164.742 137.832 164.667 137.823 164.593C137.814 164.519 137.778 164.451 137.72 164.403C137.663 164.355 137.589 164.331 137.515 164.336C137.477 164.34 137.44 164.351 137.407 164.37C137.374 164.388 137.345 164.413 137.321 164.443C137.298 164.473 137.28 164.507 137.27 164.544C137.26 164.581 137.257 164.619 137.262 164.657Z" fill="black"/>
<path opacity="0.15" d="M135.869 166.195C135.878 166.271 135.918 166.34 135.978 166.387C136.038 166.435 136.114 166.456 136.19 166.448C136.246 166.441 136.299 166.418 136.342 166.381C136.385 166.344 136.416 166.295 136.431 166.24C136.446 166.186 136.445 166.128 136.427 166.074C136.41 166.02 136.376 165.973 136.332 165.938C136.287 165.903 136.234 165.881 136.177 165.877C136.121 165.872 136.064 165.885 136.015 165.912C135.965 165.94 135.925 165.981 135.899 166.032C135.873 166.082 135.862 166.139 135.869 166.195Z" fill="black"/>
<path opacity="0.15" d="M134.467 167.748C134.474 167.804 134.497 167.857 134.534 167.9C134.571 167.943 134.62 167.974 134.675 167.989C134.729 168.004 134.787 168.003 134.841 167.985C134.895 167.967 134.942 167.934 134.977 167.89C135.012 167.845 135.034 167.791 135.038 167.735C135.043 167.679 135.03 167.622 135.003 167.573C134.975 167.523 134.934 167.483 134.884 167.457C134.833 167.431 134.776 167.42 134.72 167.427C134.644 167.436 134.575 167.475 134.528 167.536C134.48 167.596 134.459 167.672 134.467 167.748Z" fill="black"/>
<path d="M140.338 161.614C140.366 161.61 140.393 161.598 140.416 161.58C140.427 161.569 140.435 161.556 140.441 161.542C140.447 161.528 140.45 161.512 140.45 161.497C140.45 161.482 140.447 161.467 140.441 161.452C140.435 161.438 140.427 161.425 140.416 161.414C139.525 160.582 138.349 160.124 137.13 160.134C137.1 160.136 137.072 160.151 137.052 160.173C137.032 160.196 137.021 160.225 137.023 160.256C137.025 160.286 137.039 160.315 137.061 160.336C137.084 160.356 137.114 160.368 137.144 160.368C138.868 160.256 140.241 161.565 140.255 161.58C140.278 161.601 140.307 161.613 140.338 161.614Z" fill="#263238"/>
<path d="M138.951 163.162C138.979 163.16 139.005 163.148 139.024 163.128C139.035 163.117 139.044 163.104 139.05 163.09C139.056 163.076 139.059 163.06 139.059 163.045C139.059 163.03 139.056 163.014 139.05 163C139.044 162.986 139.035 162.973 139.024 162.962C138.133 162.13 136.957 161.672 135.738 161.682C135.723 161.683 135.708 161.687 135.694 161.694C135.68 161.701 135.668 161.711 135.658 161.723C135.648 161.735 135.641 161.748 135.636 161.763C135.631 161.778 135.63 161.793 135.631 161.808C135.633 161.839 135.647 161.867 135.67 161.886C135.693 161.906 135.722 161.917 135.753 161.915C137.476 161.808 138.849 163.118 138.864 163.128C138.875 163.139 138.889 163.149 138.904 163.154C138.919 163.16 138.935 163.163 138.951 163.162Z" fill="#263238"/>
<path d="M137.559 164.719C137.573 164.719 137.586 164.716 137.599 164.711C137.612 164.705 137.623 164.696 137.632 164.685C137.652 164.663 137.664 164.633 137.664 164.602C137.664 164.572 137.652 164.542 137.632 164.52C136.737 163.694 135.563 163.237 134.345 163.239C134.315 163.243 134.287 163.258 134.267 163.281C134.247 163.305 134.237 163.335 134.238 163.366C134.24 163.381 134.244 163.396 134.251 163.41C134.258 163.424 134.268 163.436 134.279 163.446C134.291 163.456 134.305 163.463 134.319 163.468C134.334 163.473 134.35 163.474 134.365 163.473C136.083 163.366 137.456 164.675 137.471 164.69C137.482 164.701 137.496 164.71 137.511 164.715C137.527 164.72 137.543 164.721 137.559 164.719Z" fill="#263238"/>
<path d="M136.166 166.277C136.193 166.274 136.219 166.262 136.239 166.243C136.26 166.221 136.271 166.191 136.271 166.161C136.271 166.13 136.26 166.1 136.239 166.078C135.348 165.246 134.172 164.787 132.953 164.797C132.936 164.794 132.918 164.794 132.901 164.798C132.885 164.802 132.869 164.81 132.855 164.821C132.842 164.832 132.831 164.846 132.824 164.862C132.816 164.877 132.812 164.894 132.812 164.912C132.812 164.929 132.816 164.946 132.824 164.962C132.831 164.978 132.842 164.991 132.855 165.002C132.869 165.013 132.885 165.021 132.901 165.025C132.918 165.029 132.936 165.03 132.953 165.026C134.104 165.029 135.212 165.463 136.059 166.243C136.073 166.256 136.09 166.266 136.109 166.272C136.127 166.278 136.147 166.28 136.166 166.277Z" fill="#263238"/>
<path d="M134.773 167.831C134.787 167.83 134.801 167.827 134.813 167.821C134.826 167.815 134.837 167.807 134.846 167.797C134.857 167.786 134.866 167.773 134.872 167.759C134.878 167.745 134.881 167.729 134.881 167.714C134.881 167.699 134.878 167.683 134.872 167.669C134.866 167.655 134.857 167.642 134.846 167.631C133.956 166.799 132.779 166.341 131.56 166.351C131.53 166.353 131.502 166.367 131.482 166.39C131.462 166.413 131.452 166.442 131.453 166.472C131.453 166.488 131.456 166.503 131.463 166.518C131.469 166.532 131.478 166.545 131.489 166.555C131.501 166.566 131.514 166.574 131.529 166.579C131.544 166.584 131.559 166.586 131.575 166.584C133.293 166.472 134.671 167.787 134.686 167.797C134.697 167.809 134.711 167.818 134.726 167.824C134.741 167.83 134.757 167.832 134.773 167.831Z" fill="#263238"/>
<path d="M160.231 176.448C160.163 178.77 160.392 180.342 161.093 181.764C161.794 183.185 163.303 183.755 164.905 183.492C166.506 183.229 168.605 182.348 169.233 180.396C169.861 178.444 169.885 177.066 169.72 174.89L160.231 176.448Z" fill="#263238"/>
<path d="M167.937 160.274C168.58 160.382 168.497 163.502 168.594 166.642C168.701 170.011 169.568 171.477 169.695 174.237C169.826 177.392 169.539 178.774 168.283 180.566C167.027 182.358 162.991 183.867 161.321 180.994C159.958 178.658 160.109 176.209 160.522 173.103C160.951 169.894 161.282 167.64 161.365 165.187C161.443 162.84 161.482 160.562 162.066 160.347C162.066 160.698 162.066 161.136 162.095 161.477C162.095 161.74 162.061 163.01 162.421 163.054C162.477 162.764 162.507 162.469 162.509 162.173C162.492 161.904 162.579 161.639 162.752 161.433C162.965 161.267 163.227 161.178 163.497 161.18C164.143 161.102 164.793 161.058 165.444 161.048C165.771 161.048 166.097 161.048 166.418 161.092C166.696 161.113 166.968 161.177 167.226 161.282C167.301 161.314 167.368 161.361 167.424 161.421C167.479 161.48 167.521 161.551 167.548 161.628C167.57 161.747 167.57 161.869 167.548 161.988C167.529 162.204 167.537 162.422 167.572 162.636C167.572 162.733 167.645 162.85 167.737 162.835C167.83 162.821 167.854 162.733 167.859 162.655C167.893 162.28 167.859 162.003 167.893 161.56C167.893 161.36 167.893 161.073 167.893 160.878C167.893 160.683 167.932 160.455 167.937 160.274Z" fill="#455A64"/>
<path opacity="0.15" d="M167.261 174.783C167.261 174.842 167.237 174.9 167.195 174.943C167.154 174.985 167.097 175.01 167.037 175.011C166.976 175.011 166.918 174.988 166.875 174.946C166.831 174.905 166.806 174.848 166.803 174.787C166.803 174.728 166.827 174.67 166.868 174.627C166.91 174.585 166.967 174.56 167.027 174.559C167.087 174.559 167.145 174.582 167.189 174.624C167.233 174.665 167.258 174.722 167.261 174.783Z" fill="black"/>
<path opacity="0.15" d="M167.232 172.612C167.232 172.672 167.209 172.729 167.167 172.772C167.125 172.815 167.068 172.839 167.008 172.841C166.978 172.841 166.949 172.836 166.921 172.825C166.893 172.814 166.868 172.798 166.846 172.777C166.825 172.756 166.808 172.731 166.797 172.703C166.785 172.676 166.779 172.646 166.779 172.617C166.774 172.584 166.777 172.551 166.786 172.519C166.795 172.488 166.811 172.459 166.832 172.434C166.854 172.409 166.88 172.389 166.91 172.375C166.94 172.362 166.973 172.354 167.006 172.354C167.038 172.354 167.071 172.362 167.101 172.375C167.131 172.389 167.157 172.409 167.179 172.434C167.2 172.459 167.216 172.488 167.225 172.519C167.234 172.551 167.237 172.584 167.232 172.617V172.612Z" fill="black"/>
<path opacity="0.15" d="M167.207 170.562C167.206 170.621 167.182 170.678 167.14 170.721C167.099 170.763 167.043 170.788 166.983 170.791C166.923 170.791 166.866 170.767 166.823 170.725C166.78 170.684 166.756 170.627 166.754 170.567C166.753 170.537 166.758 170.508 166.768 170.48C166.778 170.452 166.794 170.427 166.815 170.406C166.835 170.384 166.86 170.367 166.887 170.355C166.914 170.344 166.944 170.338 166.973 170.338C167.003 170.337 167.033 170.343 167.061 170.353C167.089 170.364 167.115 170.381 167.137 170.402C167.158 170.422 167.176 170.447 167.188 170.475C167.2 170.502 167.206 170.532 167.207 170.562Z" fill="black"/>
<path opacity="0.15" d="M167.178 168.551C167.179 168.581 167.174 168.611 167.163 168.639C167.153 168.667 167.136 168.693 167.115 168.714C167.094 168.736 167.069 168.752 167.041 168.764C167.013 168.775 166.984 168.781 166.954 168.78C166.894 168.78 166.836 168.756 166.793 168.715C166.751 168.673 166.726 168.616 166.725 168.556C166.726 168.496 166.75 168.44 166.791 168.397C166.833 168.355 166.889 168.33 166.949 168.327C167.009 168.327 167.066 168.351 167.109 168.392C167.152 168.434 167.176 168.491 167.178 168.551Z" fill="black"/>
<path opacity="0.15" d="M162.918 168.439C162.919 168.469 162.914 168.499 162.904 168.527C162.893 168.555 162.876 168.58 162.855 168.602C162.834 168.623 162.809 168.64 162.781 168.652C162.754 168.663 162.724 168.668 162.694 168.668C162.634 168.668 162.576 168.644 162.534 168.602C162.491 168.561 162.466 168.504 162.465 168.444C162.465 168.384 162.488 168.326 162.53 168.284C162.572 168.241 162.629 168.216 162.689 168.215C162.719 168.214 162.748 168.22 162.776 168.231C162.804 168.241 162.829 168.258 162.85 168.279C162.872 168.3 162.889 168.325 162.9 168.352C162.912 168.379 162.918 168.409 162.918 168.439Z" fill="black"/>
<path opacity="0.15" d="M162.947 170.498C162.947 170.558 162.924 170.616 162.882 170.659C162.84 170.701 162.783 170.726 162.723 170.727C162.694 170.728 162.664 170.723 162.636 170.712C162.608 170.701 162.583 170.684 162.562 170.663C162.54 170.643 162.524 170.618 162.512 170.59C162.5 170.563 162.494 170.533 162.495 170.503C162.493 170.473 162.498 170.443 162.509 170.415C162.519 170.387 162.536 170.362 162.557 170.34C162.578 170.319 162.603 170.302 162.631 170.291C162.659 170.279 162.688 170.274 162.718 170.274C162.778 170.274 162.836 170.298 162.879 170.34C162.921 170.382 162.946 170.439 162.947 170.498Z" fill="black"/>
<path opacity="0.15" d="M162.972 172.524C162.972 172.554 162.967 172.583 162.956 172.611C162.945 172.639 162.929 172.664 162.908 172.685C162.887 172.707 162.862 172.724 162.835 172.735C162.807 172.747 162.778 172.753 162.748 172.753C162.718 172.754 162.688 172.749 162.66 172.738C162.632 172.728 162.606 172.711 162.585 172.69C162.563 172.669 162.546 172.644 162.535 172.616C162.524 172.589 162.518 172.559 162.519 172.529C162.519 172.469 162.542 172.411 162.584 172.369C162.626 172.326 162.683 172.301 162.743 172.3C162.773 172.299 162.802 172.305 162.83 172.315C162.858 172.326 162.883 172.343 162.904 172.364C162.926 172.385 162.943 172.409 162.954 172.437C162.966 172.464 162.972 172.494 162.972 172.524Z" fill="black"/>
<path opacity="0.15" d="M163.001 174.7C163.001 174.759 162.978 174.817 162.936 174.86C162.894 174.902 162.837 174.927 162.777 174.928C162.747 174.929 162.718 174.924 162.69 174.913C162.662 174.902 162.637 174.885 162.616 174.865C162.594 174.844 162.577 174.819 162.566 174.791C162.554 174.764 162.548 174.734 162.548 174.704C162.547 174.675 162.552 174.645 162.562 174.618C162.572 174.59 162.588 174.565 162.609 174.543C162.629 174.522 162.654 174.505 162.681 174.493C162.708 174.482 162.738 174.476 162.767 174.476C162.797 174.475 162.827 174.48 162.855 174.491C162.883 174.502 162.909 174.518 162.931 174.539C162.952 174.56 162.97 174.585 162.982 174.612C162.994 174.64 163 174.67 163.001 174.7Z" fill="black"/>
<path opacity="0.15" d="M164.812 175.883L164.393 160.698L165.23 160.757L164.812 175.883Z" fill="black"/>
<path d="M167.032 174.88H166.998C165.538 174.417 163.853 174.393 162.816 174.778C162.788 174.789 162.756 174.789 162.728 174.777C162.7 174.765 162.677 174.742 162.665 174.714C162.659 174.7 162.656 174.684 162.656 174.669C162.656 174.653 162.66 174.638 162.666 174.624C162.672 174.61 162.682 174.597 162.693 174.586C162.705 174.576 162.719 174.568 162.734 174.563C163.834 174.14 165.538 174.179 167.066 174.661C167.081 174.665 167.095 174.672 167.107 174.682C167.119 174.692 167.128 174.704 167.136 174.718C167.143 174.731 167.147 174.746 167.149 174.761C167.15 174.777 167.149 174.792 167.144 174.807C167.135 174.829 167.119 174.847 167.099 174.86C167.079 174.873 167.056 174.88 167.032 174.88Z" fill="#263238"/>
<path d="M167.002 172.729C166.985 172.734 166.966 172.734 166.949 172.729C165.853 172.086 163.974 172.178 162.786 172.636C162.772 172.645 162.755 172.651 162.738 172.653C162.721 172.655 162.704 172.653 162.688 172.648C162.671 172.642 162.656 172.633 162.644 172.621C162.632 172.609 162.622 172.595 162.616 172.579C162.61 172.563 162.607 172.546 162.608 172.529C162.609 172.511 162.614 172.495 162.623 172.48C162.631 172.465 162.643 172.452 162.657 172.442C162.671 172.432 162.687 172.425 162.704 172.422C163.945 171.935 165.912 171.852 167.085 172.529C167.099 172.536 167.11 172.546 167.12 172.558C167.129 172.569 167.136 172.583 167.14 172.598C167.144 172.612 167.146 172.627 167.144 172.642C167.142 172.657 167.137 172.672 167.129 172.685C167.115 172.704 167.095 172.719 167.073 172.727C167.05 172.734 167.025 172.735 167.002 172.729Z" fill="#263238"/>
<path d="M166.979 170.679C166.959 170.683 166.939 170.683 166.92 170.679C165.83 170.036 163.95 170.129 162.763 170.586C162.748 170.592 162.733 170.594 162.717 170.594C162.702 170.593 162.687 170.59 162.673 170.584C162.659 170.577 162.646 170.568 162.636 170.557C162.625 170.546 162.617 170.533 162.612 170.518C162.605 170.504 162.602 170.489 162.603 170.474C162.603 170.459 162.606 170.443 162.613 170.43C162.619 170.416 162.628 170.404 162.64 170.394C162.652 170.384 162.665 170.376 162.68 170.372C163.916 169.885 165.883 169.802 167.037 170.479C167.05 170.487 167.061 170.497 167.07 170.509C167.079 170.521 167.086 170.534 167.089 170.549C167.093 170.563 167.094 170.578 167.091 170.593C167.089 170.608 167.084 170.622 167.076 170.635C167.065 170.65 167.05 170.662 167.033 170.67C167.016 170.678 166.997 170.681 166.979 170.679Z" fill="#263238"/>
<path d="M166.954 168.658C166.935 168.662 166.915 168.662 166.896 168.658C165.805 168.02 163.921 168.113 162.733 168.57C162.719 168.576 162.704 168.578 162.689 168.578C162.674 168.577 162.659 168.574 162.646 168.567C162.632 168.561 162.62 168.552 162.61 168.541C162.6 168.529 162.592 168.516 162.587 168.502C162.576 168.474 162.576 168.442 162.588 168.414C162.6 168.385 162.622 168.363 162.651 168.351C163.892 167.864 165.859 167.786 167.032 168.463C167.045 168.471 167.056 168.481 167.065 168.493C167.074 168.505 167.081 168.518 167.085 168.533C167.088 168.547 167.089 168.562 167.087 168.577C167.084 168.592 167.079 168.606 167.071 168.619C167.057 168.636 167.039 168.648 167.018 168.655C166.998 168.662 166.975 168.663 166.954 168.658Z" fill="#263238"/>
<path d="M162.83 72.5508C164.213 75.2917 165.961 80.5788 166.292 84.1133C167.645 98.6601 168.546 121.045 168.546 121.045C168.702 122.564 168.965 125.217 169.724 131.907C170.62 139.808 169.958 166.472 169.958 166.472C169.958 166.472 163.887 169.038 160.333 166.74C160.333 166.74 155.211 130.427 154.077 122.574C153.103 115.719 150.932 99.332 150.932 99.332L148.269 121.327C148.269 121.327 148.624 127.501 148.488 131.493C148.327 136.142 146.716 161.989 146.716 161.989C146.716 161.989 140.484 164.676 135.801 161.146C135.801 161.146 135.256 129.414 135.08 123.825C134.735 112.866 136.054 89.8045 137.106 78.2225L162.83 72.5508Z" fill="#37474F"/>
<path opacity="0.2" d="M150.922 99.3318L150.041 93.9765C150.041 93.9765 144.763 94.1177 141.954 91.6396C141.954 91.6396 143.084 94.9794 148.449 95.3348L149.271 99.7894L148.585 118.693L150.922 99.3318Z" fill="black"/>
<path d="M119.75 47.1519C119.39 46.4704 119.409 44.6593 119.326 43.2134C119.244 41.7675 118.947 40.2193 119.195 39.2554C119.497 38.0675 119.813 37.1084 118.523 37.7315C117.233 38.3547 116.897 40.2875 116.576 41.2417C116.386 41.7821 116.225 42.264 115.69 41.8405C114.796 40.9534 114.022 39.9534 113.387 38.8659C112.696 37.7121 112.662 36.3879 112.116 35.7939C111.571 35.2 111.396 35.3071 111.269 35.458C111.143 35.6089 110.943 37.1619 111.337 38.603C111.732 40.044 112.632 41.008 112.433 41.1054C112.314 41.1462 112.186 41.1462 112.068 41.1054C111.78 41.0421 110.753 39.2359 110.12 38.1454C109.385 36.8455 108.879 35.6186 108.382 35.2243C107.886 34.83 107.282 34.7375 107.306 35.1707C107.498 36.2287 107.802 37.2634 108.212 38.2573C108.582 39.0752 110.237 41.1784 110.038 41.3098C109.973 41.3352 109.903 41.3449 109.833 41.3381C109.764 41.3314 109.697 41.3083 109.638 41.2709C109.151 40.9544 108.426 39.7714 107.861 39.119C107.151 38.3011 106.639 37.5027 106.206 37.0889C105.583 36.4852 105.276 37.0013 105.315 37.2544C105.51 38.4131 106.678 40.3507 107.657 41.5289C108.47 42.5026 108.304 42.931 108.051 43.0186C107.798 43.1063 111.347 45.0488 111.347 45.0488L119.75 47.1519Z" fill="#B16668"/>
<path d="M104.283 39.2798C105.256 39.5086 106.921 42.2544 108.479 42.9116C110.281 43.3985 114.2 42.9798 116.342 43.8853C118.484 44.7909 118.946 45.1803 119.75 47.0693C120.777 49.2698 122.763 53.9143 124.686 57.4682C124.686 57.4682 134.954 47.376 136.779 45.6526C138.605 43.9291 141.078 42.5952 143.4 42.8678L139.71 57.2784C139.71 57.2784 132.894 62.9695 127.758 67.3755C123.45 71.0852 120.942 70.1407 118.995 66.2801C118.8 65.9045 118.625 65.5194 118.469 65.1262C116.595 60.4866 114.141 52.1909 113.45 50.3555C112.759 48.5201 112.52 48.0527 111.688 47.2056C110.748 46.2319 107.686 45.3264 106.819 44.601C105.953 43.8756 105.144 42.6536 104.249 41.2856C103.762 40.5261 103.309 39.9906 103.275 39.5476C103.309 39.2749 103.84 39.1824 104.283 39.2798Z" fill="#F28F8F"/>
<path d="M124.687 57.4489C125.571 59.3912 126.149 61.4588 126.4 63.5782C126.4 63.5782 127.116 61.3144 125.427 56.6699L124.687 57.4489Z" fill="#F28F8F"/>
<path d="M143.317 42.7554C141.345 42.6013 139.391 43.2271 137.874 44.4983C135.869 46.1487 124.701 57.2243 124.701 57.2243L122.213 52.2439C121.417 53.1754 120.417 53.9115 119.292 54.3958C117.486 55.1406 114.91 54.9995 114.91 54.9995C114.91 54.9995 116.098 58.68 116.887 61.231C117.675 63.7821 119.024 67.8862 121.005 69.1228C122.987 70.3593 124.384 69.8579 125.655 69.1228C126.925 68.3876 139.574 57.9254 139.574 57.9254L143.317 42.7554Z" fill="#43A548"/>
<path opacity="0.75" d="M143.317 42.7554C141.345 42.6013 139.391 43.2271 137.874 44.4983C135.869 46.1487 124.701 57.2243 124.701 57.2243L122.213 52.2439C121.417 53.1754 120.417 53.9115 119.292 54.3958C117.486 55.1406 114.91 54.9995 114.91 54.9995C114.91 54.9995 116.098 58.68 116.887 61.231C117.675 63.7821 119.024 67.8862 121.005 69.1228C122.987 70.3593 124.384 69.8579 125.655 69.1228C126.925 68.3876 139.574 57.9254 139.574 57.9254L143.317 42.7554Z" fill="white"/>
<path opacity="0.2" d="M124.686 57.2244C125.475 58.7628 126.307 61.8834 126.074 63.5046C126.921 60.827 125.845 57.3315 125.402 56.4746L124.686 57.2244Z" fill="black"/>
<path d="M94.3903 35.1949C94.3903 32.5222 96.1478 29.8397 99.6823 27.8047C106.756 23.7201 118.226 23.7201 125.3 27.8047C129.005 29.9419 130.762 32.7802 130.582 35.5941V36.5386C130.762 39.3428 129.005 42.1811 125.3 44.3281C118.226 48.4127 106.756 48.4127 99.6823 44.3281C96.1478 42.2882 94.3903 39.6106 94.3903 36.9378V35.1949Z" fill="#37474F"/>
<path d="M112.496 45.652C102.494 45.652 94.3854 40.9701 94.3854 35.1947C94.3854 29.4192 102.494 24.7373 112.496 24.7373C122.498 24.7373 130.606 29.4192 130.606 35.1947C130.606 40.9701 122.498 45.652 112.496 45.652Z" fill="#455A64"/>
<path d="M117.043 38.0137C119.555 36.5532 119.555 34.2115 117.043 32.7607C114.531 31.3099 110.461 31.3002 107.948 32.7607C105.436 34.2212 105.431 36.5629 107.948 38.0137C110.465 39.4645 114.506 39.4645 117.043 38.0137Z" fill="#37474F"/>
<path d="M110.856 7.30341V2.24512L112.496 2.30841L114.132 2.24512V7.30341C114.12 9.32376 114.857 11.2769 116.201 12.7852C117.024 13.7054 117.793 15.1854 117.832 17.5417V34.6055C117.832 35.7545 116.703 36.9229 114.478 37.4681C113.174 37.7845 111.814 37.7845 110.51 37.4681C108.29 36.9229 107.17 35.7545 107.16 34.6055V17.5417C107.199 15.1854 107.969 13.7054 108.791 12.7852C110.134 11.2764 110.87 9.3232 110.856 7.30341Z" fill="#43A548"/>
<path opacity="0.3" d="M110.856 7.30341V2.24512L112.496 2.30841L114.132 2.24512V7.30341C114.12 9.32376 114.857 11.2769 116.201 12.7852C117.024 13.7054 117.793 15.1854 117.832 17.5417V34.6055C117.832 35.7545 116.703 36.9229 114.478 37.4681C113.174 37.7845 111.814 37.7845 110.51 37.4681C108.29 36.9229 107.17 35.7545 107.16 34.6055V17.5417C107.199 15.1854 107.969 13.7054 108.791 12.7852C110.134 11.2764 110.87 9.3232 110.856 7.30341Z" fill="black"/>
<path d="M110.855 1.68566C110.855 1.68566 110.855 1.65645 110.855 1.64185C110.861 1.49006 110.91 1.34302 110.996 1.21798C111.082 1.09294 111.202 0.995098 111.342 0.935927C111.701 0.753363 112.098 0.658203 112.501 0.658203C112.904 0.658203 113.301 0.753363 113.66 0.935927C113.844 1.02992 113.993 1.18219 114.083 1.36922C114.085 1.3854 114.085 1.40172 114.083 1.4179C114.083 1.4179 114.083 1.44224 114.083 1.45198C114.096 1.48633 114.104 1.5224 114.107 1.55908V4.03711C114.095 4.18335 114.043 4.32347 113.957 4.44261C113.872 4.56175 113.755 4.65547 113.621 4.71382C113.262 4.89639 112.865 4.99155 112.462 4.99155C112.059 4.99155 111.662 4.89639 111.303 4.71382C111.184 4.66165 111.079 4.58333 110.995 4.48471C110.91 4.38608 110.849 4.26969 110.816 4.14422C110.812 4.12668 110.812 4.1082 110.816 4.09066L110.855 1.68566Z" fill="#37474F"/>
<path d="M111.337 2.27474C111.696 2.45731 112.093 2.55247 112.496 2.55247C112.899 2.55247 113.296 2.45731 113.655 2.27474C114.297 1.90474 114.297 1.30106 113.655 0.935927C113.296 0.753363 112.899 0.658203 112.496 0.658203C112.093 0.658203 111.696 0.753363 111.337 0.935927C110.695 1.30593 110.695 1.90474 111.337 2.27474Z" fill="#455A64"/>
<path d="M107.16 18.0684V27.367C107.16 28.1606 107.681 28.9493 108.723 29.5432C110.599 30.4932 112.763 30.7068 114.789 30.142V20.8434C112.808 21.3935 110.364 21.1939 108.723 20.2445C107.691 19.6457 107.16 18.8522 107.16 18.0684Z" fill="white"/>
<path d="M155.007 42.2793C157.714 42.5081 163.863 43.1118 166.005 43.5061C167.87 44.2461 167.407 45.5363 167.466 47.7757C167.748 55.4679 164.394 71.928 164.394 71.928L166.029 82.6385C162.359 86.3921 145.835 89.3813 136.819 83.5684C136.819 83.5684 136.95 64.8736 138.518 53.871C139.643 46.0134 141.643 42.8148 144.506 42.6736L155.007 42.2793Z" fill="#43A548"/>
<path opacity="0.85" d="M155.007 42.2793C157.714 42.5081 163.863 43.1118 166.005 43.5061C167.87 44.2461 167.407 45.5363 167.466 47.7757C167.748 55.4679 164.394 71.928 164.394 71.928L166.029 82.6385C162.359 86.3921 145.835 89.3813 136.819 83.5684C136.819 83.5684 136.95 64.8736 138.518 53.871C139.643 46.0134 141.643 42.8148 144.506 42.6736L155.007 42.2793Z" fill="white"/>
<path d="M159.17 42.6687L147.919 58.5787L147.023 42.5811L144.521 42.6784C143.936 42.6202 143.345 42.7014 142.798 42.9156C142.25 43.1297 141.761 43.4705 141.371 43.9101C139.862 45.4583 138.06 49.0171 137.418 59.9759C136.775 70.9347 136.566 84.8633 136.566 84.8633L143.348 87.5799L145.602 79.9024L147.661 88.1397C147.661 88.1397 160.538 88.388 166.2 83.3443C166.2 83.023 164.632 71.9279 164.632 71.9279C164.632 71.9279 166.093 66.4266 166.77 61.6507C165.486 60.8913 164.415 59.8214 163.653 58.5393C162.892 57.2572 162.465 55.8042 162.412 54.314C162.135 49.0561 164.257 43.2432 164.257 43.2432L159.17 42.6687Z" fill="#263238"/>
<path d="M160.674 20.9016L160.64 20.8432C160.511 20.5015 160.41 20.1498 160.338 19.7916C160.003 18.837 159.457 17.9702 158.741 17.2552C157.799 16.3693 156.651 15.7318 155.401 15.4003C154.745 15.2131 154.074 15.0796 153.396 15.0011C152.589 14.8809 151.776 14.8013 150.961 14.7625C149.072 14.709 147.125 15.1958 145.231 14.8161C144.362 14.6608 143.534 14.3294 142.797 13.8424C142.713 13.7751 142.612 13.7329 142.505 13.7207C142.33 13.7207 142.213 13.896 142.135 14.0566C141.848 14.6695 141.709 15.341 141.728 16.0173C141.748 16.6936 141.925 17.356 142.247 17.9514C141.609 17.7274 140.835 17.5229 140.299 17.9514C140.141 18.0929 140.015 18.2673 139.931 18.4624C139.847 18.6574 139.807 18.8685 139.813 19.0808C139.81 19.4255 139.877 19.7671 140.01 20.0851C140.143 20.4031 140.339 20.6908 140.587 20.9308C139.803 21.1937 139.457 22.1139 139.457 22.8052C139.42 23.2101 139.476 23.6183 139.621 23.9981C139.766 24.378 139.996 24.7194 140.295 24.996C140.791 25.4128 141.395 25.6811 142.038 25.77C142.658 25.8479 143.286 25.8479 143.907 25.77C143.694 26.812 143.555 27.8679 143.493 28.9297C143.408 29.6924 143.509 30.4645 143.79 31.1789C144.136 31.9091 144.89 32.211 145.587 32.5372C147.241 33.2952 149.05 33.6585 150.869 33.5985H151.02C153.363 33.5294 155.63 32.7482 157.519 31.359V33.2577L157.597 38.3354C158.102 37.1287 158.698 35.9619 159.379 34.8448C159.983 33.9003 160.688 32.8 161.915 29.2997C163.191 25.551 163.074 22.1625 160.674 20.9016Z" fill="#455A64"/>
<path d="M157.417 29.8401C158.089 29.9521 158.469 28.7788 159.048 28.1508C159.292 27.8957 159.596 27.706 159.932 27.599C160.268 27.4921 160.625 27.4714 160.971 27.5387C161.318 27.6061 161.641 27.7595 161.913 27.9847C162.184 28.2099 162.394 28.4997 162.524 28.8275C163.547 30.8674 162.339 32.8585 160.699 33.6959C160.202 33.887 159.662 33.9386 159.138 33.8451C158.613 33.7515 158.125 33.5165 157.724 33.1653L157.549 43.1601C155.787 45.5213 152.68 44.3139 149.073 45.5067C147.929 42.7512 148.221 44.0949 149.034 42.8047L148.98 39.9372C148.98 39.9372 146.624 40.3462 145.465 40.1904C143.518 39.9372 142.296 38.4475 141.668 36.3784C140.665 33.063 140.884 28.1021 141.064 23.8666C141.07 22.8954 141.234 21.9316 141.551 21.0137C141.989 21.5005 143.737 22.4206 146.22 22.6689C148.373 22.928 150.558 22.6796 152.598 21.9435C152.553 22.316 152.583 22.6935 152.685 23.0545C152.786 23.4154 152.959 23.7526 153.192 24.0467C153.618 24.5547 154.219 24.8847 154.876 24.9717C154.978 26.1405 155.344 27.2709 155.947 28.2774C156.181 28.6814 156.862 29.8401 157.417 29.8401Z" fill="#F28F8F"/>
<path d="M148.98 39.9514C148.98 39.9514 153.25 38.9777 154.73 38.1647C155.602 37.6877 156.31 36.958 156.76 36.0713C156.551 36.9495 156.168 37.7771 155.635 38.5055C154.569 39.9271 149.004 41.0809 149.004 41.0809L148.98 39.9514Z" fill="#B16668"/>
<path d="M150.305 33.5742L147.739 34.6696C147.803 34.8435 147.902 35.0025 148.03 35.1369C148.158 35.2712 148.311 35.3781 148.482 35.451C148.652 35.5239 148.836 35.5613 149.021 35.5609C149.207 35.5605 149.39 35.5222 149.56 35.4486C149.901 35.2919 150.169 35.0097 150.308 34.6606C150.447 34.3116 150.446 33.9225 150.305 33.5742Z" fill="#B16668"/>
<path d="M142.116 26.1405L144.351 25.2593C144.3 25.1111 144.22 24.9747 144.116 24.8584C144.011 24.7421 143.884 24.6483 143.742 24.5828C143.599 24.5172 143.446 24.4812 143.289 24.477C143.133 24.4728 142.977 24.5004 142.832 24.5583C142.533 24.681 142.293 24.9132 142.16 25.2073C142.027 25.5014 142.011 25.8352 142.116 26.1405Z" fill="#263238"/>
<path d="M152.709 26.641L150.674 25.312C150.755 25.1756 150.862 25.0571 150.99 24.9636C151.118 24.8701 151.264 24.8036 151.418 24.768C151.572 24.7325 151.732 24.7288 151.888 24.757C152.044 24.7852 152.192 24.8448 152.325 24.9322C152.595 25.1141 152.785 25.3925 152.857 25.7102C152.928 26.0279 152.875 26.3609 152.709 26.641Z" fill="#263238"/>
<path d="M147.495 26.9678L147.154 32.805L144.35 31.7047L147.495 26.9678Z" fill="#B16668"/>
<path d="M144.389 28.5892C144.421 28.8538 144.349 29.1206 144.189 29.3331C144.028 29.5457 143.791 29.6875 143.527 29.7284C143.4 29.7492 143.269 29.7442 143.143 29.7139C143.017 29.6836 142.899 29.6286 142.795 29.552C142.691 29.4754 142.603 29.3788 142.536 29.2678C142.47 29.1568 142.426 29.0337 142.407 28.9057C142.377 28.6413 142.449 28.3752 142.609 28.1629C142.77 27.9506 143.006 27.8086 143.269 27.7665C143.397 27.7458 143.527 27.7507 143.653 27.781C143.779 27.8113 143.897 27.8663 144.002 27.9429C144.106 28.0195 144.194 28.1162 144.26 28.2271C144.327 28.3381 144.371 28.4612 144.389 28.5892Z" fill="#263238"/>
<path d="M151.682 28.5892C151.713 28.8536 151.641 29.1197 151.48 29.332C151.32 29.5443 151.084 29.6863 150.821 29.7284C150.693 29.7492 150.562 29.7442 150.437 29.7139C150.311 29.6836 150.193 29.6286 150.088 29.552C149.984 29.4754 149.896 29.3788 149.83 29.2678C149.763 29.1568 149.719 29.0337 149.701 28.9057C149.667 28.6409 149.739 28.3735 149.9 28.1606C150.061 27.9478 150.299 27.8063 150.563 27.7665C150.69 27.7458 150.821 27.7507 150.947 27.781C151.072 27.8113 151.191 27.8663 151.295 27.9429C151.399 28.0195 151.487 28.1162 151.554 28.2271C151.62 28.3381 151.664 28.4612 151.682 28.5892Z" fill="#263238"/>
<path d="M157.632 38.5152V39.3282C157.515 39.9465 156.429 41.222 153.386 42.6339C150.344 44.0457 149.073 45.5208 149.073 45.5208C149.901 45.532 150.723 45.6733 151.507 45.9395C152.909 46.4264 155.246 48.1547 155.889 48.1303C156.531 48.106 157.505 46.441 159.214 44.6007C160.674 43.0526 160.869 42.8481 160.869 42.8481C159.735 41.631 158.664 38.374 157.632 38.5152Z" fill="#43A548"/>
<path d="M149.048 45.4674C147.1 45.3652 145.913 46.9961 145.64 46.592C145.367 46.1879 146.74 41.5824 148.985 40.7207L149.048 45.4674Z" fill="#43A548"/>
<g opacity="0.75">
<path d="M157.632 38.5152V39.3282C157.515 39.9465 156.429 41.222 153.386 42.6339C150.344 44.0457 149.073 45.5208 149.073 45.5208C149.901 45.532 150.723 45.6733 151.507 45.9395C152.909 46.4264 155.246 48.1547 155.889 48.1303C156.531 48.106 157.505 46.441 159.214 44.6007C160.674 43.0526 160.869 42.8481 160.869 42.8481C159.735 41.631 158.664 38.374 157.632 38.5152Z" fill="white"/>
<path d="M149.049 45.4674C147.101 45.3652 145.914 46.9961 145.641 46.592C145.368 46.1879 146.741 41.5824 148.986 40.7207L149.049 45.4674Z" fill="white"/>
</g>
<path d="M148.742 46.3973C148.91 46.2251 149.027 46.0099 149.08 45.7753C149.133 45.5408 149.121 45.2961 149.043 45.0683C148.099 43.3497 145.991 43.0819 145.421 43.3156C144.409 43.7294 144.448 47.2104 145.475 47.5804C146.502 47.9504 148.766 46.6067 148.742 46.3973Z" fill="#43A548"/>
<path opacity="0.1" d="M148.464 45.5207C148.011 45.3211 146.122 44.3523 146.03 44.7418C145.884 45.2286 148.089 45.7155 148.089 45.7155C148.089 45.7155 145.898 45.8615 146.044 46.3873C146.142 46.7427 148.342 45.9638 148.342 45.9638L148.464 45.5207Z" fill="black"/>
<path d="M148.586 45.1463C148.547 45.1751 148.513 45.2096 148.484 45.2485C148.347 45.4083 148.249 45.5985 148.2 45.8034C148.151 46.0084 148.151 46.222 148.202 46.4267C148.281 46.6059 148.401 46.764 148.552 46.8883C148.703 47.0126 148.882 47.0996 149.073 47.1424C149.315 47.2115 149.568 47.2269 149.816 47.1874C150.065 47.1478 150.301 47.0544 150.509 46.9135C150.69 46.7736 150.825 46.5834 150.898 46.3668C150.97 46.1503 150.978 45.917 150.918 45.6964C150.646 44.752 149.273 44.5329 148.586 45.1463Z" fill="#43A548"/>
<path opacity="0.2" d="M148.586 45.1463C148.547 45.1751 148.513 45.2096 148.484 45.2485C148.347 45.4083 148.249 45.5985 148.2 45.8034C148.151 46.0084 148.151 46.222 148.202 46.4267C148.281 46.6059 148.401 46.764 148.552 46.8883C148.703 47.0126 148.882 47.0996 149.073 47.1424C149.315 47.2115 149.568 47.2269 149.816 47.1874C150.065 47.1478 150.301 47.0544 150.509 46.9135C150.69 46.7736 150.825 46.5834 150.898 46.3668C150.97 46.1503 150.978 45.917 150.918 45.6964C150.646 44.752 149.273 44.5329 148.586 45.1463Z" fill="black"/>
<path d="M150.422 45.5993C150.621 44.9957 153.119 43.1651 154.613 44.2313C155.397 44.7766 154.881 48.0579 153.98 48.4182C152.671 48.9439 150.738 47.6879 150.402 46.6996C150.327 46.5255 150.289 46.3371 150.293 46.1474C150.296 45.9576 150.34 45.7707 150.422 45.5993Z" fill="#43A548"/>
<path opacity="0.1" d="M150.314 45.9054C150.306 45.9945 150.306 46.084 150.314 46.1731C150.489 46.3581 152.665 47.2004 152.714 46.8304C152.762 46.4604 150.732 46.0076 150.732 46.0076C150.732 46.0076 153.094 45.6084 152.957 45.1897C152.85 44.8927 150.581 45.6863 150.314 45.9054Z" fill="black"/>
<path d="M169.364 89.2246C169.272 90.8263 169.393 91.8292 168.785 92.8321C168.329 93.4187 167.822 93.9644 167.271 94.463C165.976 95.9236 166.185 96.7415 165.246 98.0559C164.515 99.0832 163.809 99.4142 163.965 99.682C164.176 99.9762 164.491 100.18 164.846 100.251C165.201 100.322 165.57 100.256 165.878 100.067C166.403 99.8098 166.879 99.4639 167.285 99.0442C167.237 99.3353 167.17 99.6231 167.086 99.9059C166.893 100.482 166.666 101.047 166.404 101.595C166.091 102.258 165.72 102.892 165.294 103.489C164.807 104.224 164.101 104.95 163.736 105.738C163.439 106.405 164.126 106.639 164.71 106.615C165.294 106.59 165.922 106.186 166.58 106.245C166.872 106.317 167.158 106.412 167.436 106.527C168.089 106.693 168.454 106.415 169.014 106.147C169.866 105.826 170.675 105.397 171.419 104.872C172.152 104.238 172.785 103.498 173.298 102.676C173.738 101.985 174.121 101.259 174.442 100.505C174.763 99.7501 174.929 98.9322 175.158 98.1436C175.955 95.4168 176.555 92.6362 176.954 89.8234C177.441 86.7953 178.94 75.004 178.94 75.004L169.627 74.0303C169.627 74.0303 169.486 87.0143 169.364 89.2246Z" fill="#F28F8F"/>
<path d="M164.257 43.2422C166.126 43.4077 168.935 43.2714 171.029 45.4232C173.312 47.7747 174.724 53.5097 176.282 59.4005C177.84 65.2913 178.229 67.1461 178.886 71.4888C179.134 72.663 179.196 73.8687 179.071 75.0622C178.716 77.7252 178.434 79.9306 178.434 79.9306C178.434 79.9306 172.806 81.5567 169.495 79.5557L169.593 72.1557L163.624 55.3938C162.49 51.3842 162.712 47.1123 164.257 43.2422Z" fill="#43A548"/>
<path opacity="0.75" d="M164.257 43.2422C166.126 43.4077 168.935 43.2714 171.029 45.4232C173.312 47.7747 174.724 53.5097 176.282 59.4005C177.84 65.2913 178.229 67.1461 178.886 71.4888C179.134 72.663 179.196 73.8687 179.071 75.0622C178.716 77.7252 178.434 79.9306 178.434 79.9306C178.434 79.9306 172.806 81.5567 169.495 79.5557L169.593 72.1557L163.624 55.3938C162.49 51.3842 162.712 47.1123 164.257 43.2422Z" fill="white"/>
</svg>
