<svg width="38" height="38" viewBox="0 0 38 38" fill="none" xmlns="http://www.w3.org/2000/svg">
<path d="M19 8.99967V35.6663M19 8.99967H13.1072C12.2389 8.99967 11.4062 8.64849 10.7923 8.02336C10.1783 7.39824 9.83337 6.5504 9.83337 5.66634C9.83337 4.78229 10.1783 3.93444 10.7923 3.30932C11.4062 2.6842 12.2389 2.33301 13.1072 2.33301C17.6905 2.33301 19 8.99967 19 8.99967ZM19 8.99967H24.8929C25.7612 8.99967 26.5939 8.64849 27.2078 8.02336C27.8218 7.39824 28.1667 6.5504 28.1667 5.66634C28.1667 4.78229 27.8218 3.93444 27.2078 3.30932C26.5939 2.6842 25.7612 2.33301 24.8929 2.33301C20.3096 2.33301 19 8.99967 19 8.99967ZM32.3334 17.333V30.333C32.3334 32.1999 32.3334 33.1333 31.9701 33.8463C31.6505 34.4735 31.1405 34.9835 30.5133 35.303C29.8003 35.6663 28.8669 35.6663 27 35.6663L11 35.6663C9.1332 35.6663 8.19978 35.6663 7.48674 35.303C6.85953 34.9834 6.3496 34.4735 6.03002 33.8463C5.66671 33.1333 5.66671 32.1998 5.66671 30.333V17.333M2.33337 11.6663L2.33337 14.6663C2.33337 15.5998 2.33337 16.0665 2.51503 16.423C2.67482 16.7366 2.92979 16.9916 3.24339 17.1514C3.59991 17.333 4.06662 17.333 5.00004 17.333L33 17.333C33.9335 17.333 34.4002 17.333 34.7567 17.1514C35.0703 16.9916 35.3253 16.7366 35.4851 16.423C35.6667 16.0665 35.6667 15.5998 35.6667 14.6663V11.6663C35.6667 10.7329 35.6667 10.2662 35.4851 9.90969C35.3253 9.59609 35.0703 9.34112 34.7567 9.18133C34.4002 8.99968 33.9335 8.99968 33 8.99968L5.00004 8.99967C4.06662 8.99967 3.59991 8.99967 3.24339 9.18133C2.92979 9.34112 2.67482 9.59609 2.51503 9.90969C2.33337 10.2662 2.33337 10.7329 2.33337 11.6663Z" stroke="#43A548" stroke-width="3" stroke-linecap="round" stroke-linejoin="round"/>
</svg>
