<svg width="188" height="56" viewBox="0 0 188 56" fill="none" xmlns="http://www.w3.org/2000/svg">
<g clip-path="url(#clip0_110_7315)">
<path d="M0.637085 55.9444H187.585V0H0.637085V55.9444Z" fill="#9B99AB"/>
<path d="M135.823 55.9942C134.941 55.6469 132.495 54.4801 132.181 52.1673L127.633 56.0011L117.049 55.9942C116.001 55.7233 114.094 54.8482 113.496 52.0493L109.12 55.9942L99.882 56.0081L95.9401 44.1594L91.0556 56.0011H82.2068L83.8748 52.0284C80.3218 54.7649 79.2223 55.7164 78.9006 56.015L71.3832 56.0081C68.5558 54.7996 68.3538 52.0006 68.3538 52.0006C64.6886 54.7788 63.5517 55.7094 63.2076 56.0081L56.6476 56.0011C54.2316 54.9524 53.4686 52.1187 53.4686 52.1187C49.8034 54.619 47.6716 56.0011 47.6716 56.0011H35.756L42.8246 39.1032H36.5264L29.6972 55.9942H20.9082L28.9716 35.1583H23.212L14.6325 55.9942H5.83598L15.934 31.2064H0.599976V24.0527H27.4681L25.9572 28.2477H40.5058L38.8602 32.5607H53.5359L46.8039 49.7017H53.6631L59.0188 37.3738C59.0188 37.3738 61.0758 32.5607 65.8854 32.5607H84.4134L77.831 49.8268H84.6976L95.2594 24.0527H103.622L97.1743 41.0687L106.786 32.5538H116.809L104.729 43.5274L106.509 49.9379L113.929 49.8754L121.335 32.4218H129.69L122.973 49.8268H132.585L137.372 38.11H131.739L133.946 32.4357H139.294L142.997 24.0527H151.636L148.345 32.1926H153.431L151.374 37.992H145.877L141.351 49.7087H150.963L155.488 38.4851C155.488 38.4851 157.418 32.6927 163.043 32.5677H181.145L174.435 49.7017H187.6V55.9942H170.037C170.037 55.9942 165.923 55.5011 165.227 52.0493L160.964 55.9942H154.942C154.942 55.9942 151.09 55.5011 150.544 52.0493L146.153 55.9942H135.823ZM165.31 49.9518L169.962 39.1032H164.053L159.4 49.9518H165.31ZM68.7203 49.9518L73.3804 39.1032H67.4936L62.8186 49.9518H68.7203Z" fill="white"/>
<path d="M122 30.4213L124.469 24.0108H132.846L130.378 30.4213H122ZM177.839 20.566H176.492V19.3853H177.951C178.235 19.3853 178.721 19.4269 178.721 19.9687C178.721 20.4826 178.272 20.566 177.839 20.566ZM179.282 22.0314L179.245 21.4063C179.222 20.9271 178.983 20.8368 178.744 20.7535C179.005 20.6215 179.32 20.434 179.32 19.92C179.32 19.1838 178.609 18.9824 177.898 18.9824H175.916V22.462H176.492V20.9757H177.898C178.609 20.9757 178.684 21.3091 178.684 21.6008C178.684 21.7328 178.706 22.2537 178.781 22.469H179.507V22.3926C179.32 22.2953 179.282 22.2259 179.282 22.0314Z" fill="white"/>
<path d="M177.577 23.6423C176.739 23.6423 175.954 23.3367 175.356 22.788C174.757 22.2324 174.421 21.5031 174.421 20.7183C174.421 19.9335 174.757 19.1973 175.356 18.6486C175.954 18.093 176.739 17.7943 177.577 17.7943C178.415 17.7943 179.223 18.0999 179.806 18.6486C180.405 19.2042 180.741 19.9335 180.741 20.7183C180.734 22.3296 179.32 23.6423 177.577 23.6423ZM180.061 18.4124C179.387 17.7943 178.512 17.4609 177.57 17.4609C175.647 17.4609 174.077 18.9195 174.077 20.7113C174.077 21.5795 174.428 22.399 175.109 23.0102C175.76 23.6214 176.65 23.9617 177.577 23.9617C178.512 23.9617 179.387 23.6214 180.061 23.0102C180.719 22.3921 181.07 21.5795 181.07 20.7113C181.07 19.8432 180.719 19.0236 180.061 18.4124Z" fill="white"/>
</g>
<defs>
<clipPath id="clip0_110_7315">
<rect width="187" height="56" fill="white" transform="translate(0.599976)"/>
</clipPath>
</defs>
</svg>
