<svg width="155" height="56" viewBox="0 0 155 56" fill="none" xmlns="http://www.w3.org/2000/svg">
<g clip-path="url(#clip0_110_7321)">
<path d="M26.5999 22.8546C26.0323 24.4586 22.4571 26.1339 13.675 24.1445L14.818 29.3403C23.5996 30.939 28.8048 29.6239 31.7781 26.4972C33.98 24.1797 34.4116 21.1821 32.6021 18.8883C30.6882 16.46 26.4486 14.6992 21.0949 14.6992C13.437 14.6992 7.97967 16.9219 4.94918 25.2627L0.875183 36.4765H8.00249L12.0565 25.1351C13.7198 20.4708 17.2153 19.6985 21.0949 19.6985C25.1635 19.6985 27.1271 21.3763 26.5999 22.8546ZM97.1708 27.776L96.8949 27.6573C98.49 27.0205 100.221 26.6757 101.941 26.6757C102.985 26.6757 105.306 26.853 106.285 27.4138C106.523 27.5476 106.742 27.7588 106.624 28.0208C106.191 28.9955 99.8343 28.9411 97.1708 27.776ZM110.19 25.1538C108.506 24.2516 105.728 23.5325 103.012 23.4215C97.378 23.1896 90.9536 25.1145 89.6745 29.6653C88.9346 32.2828 91.467 35.8183 98.0612 36.8213C101.36 37.3286 106.602 37.2004 110.376 35.9514L111.784 32.066C104.133 34.6995 94.1339 33.935 94.4683 29.99C98.1699 32.3694 103.571 32.1433 107.57 31.4875C114.497 30.3548 114.397 27.405 110.19 25.1538ZM121.87 27.776L121.597 27.6573C123.19 27.0205 124.922 26.6757 126.64 26.6757C127.687 26.6757 130.005 26.853 130.984 27.4138C131.222 27.5476 131.439 27.7588 131.322 28.0208C130.891 28.9955 124.535 28.9411 121.87 27.776ZM134.889 25.1538C133.206 24.2516 130.427 23.5325 127.711 23.4215C122.079 23.1896 115.655 25.1145 114.373 29.6653C113.635 32.2828 116.169 35.8183 122.76 36.8213C126.059 37.3286 131.304 37.2004 135.075 35.9514L136.486 32.066C128.834 34.6995 118.836 33.935 119.169 29.99C122.872 32.3694 128.272 32.1433 132.27 31.4875C139.195 30.3548 139.098 27.405 134.889 25.1538ZM140.091 28.4941L137.264 36.4793H143.789L145.964 30.3342C146.499 28.7759 146.952 27.6098 148.855 27.6098H153.439L154.725 23.931H146.28C143.455 23.9307 141.178 25.3339 140.091 28.4941ZM30.7888 36.4793H37.5447L42.1103 23.9307H35.3551L30.7888 36.4793ZM74.6233 29.7269C75.2519 28.0005 77.1506 27.2013 78.8137 27.2013C80.4622 27.2013 82.0404 28.1745 81.4295 29.8554L79.0171 36.4791H85.543L87.9903 29.7506C89.26 26.2567 86.5101 23.3627 80.3483 23.3627C73.4893 23.3627 69.602 25.6078 68.1035 29.72L65.6454 36.4796H72.1667L74.6233 29.7269ZM54.4975 27.329C57.1338 27.4405 59.2585 28.7687 58.88 30.4956C58.5168 32.16 55.9469 33.2932 53.2806 33.1786C50.6435 33.069 48.5211 31.7349 48.8963 30.009C49.2628 28.3481 51.8306 27.2126 54.4975 27.329ZM55.4166 23.4277C48.6211 23.1389 42.5666 26.0489 41.7523 29.7701C40.9494 33.4317 45.5396 36.7902 52.3615 37.0789C59.1541 37.3687 65.2113 34.4593 66.0268 30.7371C66.8274 27.0762 62.2369 23.7144 55.4166 23.4277Z" fill="#9B99AB"/>
</g>
<defs>
<clipPath id="clip0_110_7321">
<rect width="154" height="56" fill="white" transform="translate(0.799988)"/>
</clipPath>
</defs>
</svg>
