<svg width="98" height="56" viewBox="0 0 98 56" fill="none" xmlns="http://www.w3.org/2000/svg">
<g clip-path="url(#clip0_110_7305)">
<path d="M69.6177 9.16925H65.5108V17.1512C65.5108 19.7529 68.3168 21.9757 71.786 21.9757C75.2553 21.9757 78.2909 19.7276 78.2909 17.1512V9.16925H74.1839V16.3681C74.1839 17.5553 73.1635 18.5152 71.9136 18.5152C70.6381 18.5152 69.6177 17.5553 69.6177 16.3429V9.16925ZM4.46724 4.77414V21.3442H0.207199V1.36415H7.88547C11.2272 1.36415 13.9567 4.04163 13.9567 7.30007C13.9567 10.0786 11.9925 12.4024 9.33949 13.0087L15.2576 21.3442H10.1813L5.92126 14.8021V10.0281H6.91612C8.49769 10.0281 9.77315 8.86614 9.77315 7.42636C9.77315 5.98659 8.57422 4.77414 6.99265 4.77414H4.46724ZM43.6749 21.3442V0.404297H39.6444V10.2807C38.573 9.24503 37.2211 8.66407 35.665 8.66407C32.3488 8.66407 29.6448 11.5689 29.6448 15.1809C29.6448 18.7678 32.3488 21.6978 35.665 21.6978C37.2466 21.6978 38.7261 21.0916 39.6444 19.9802V21.3442H43.6749ZM36.8129 18.2878C35.1803 18.2878 33.8538 16.8481 33.8538 15.0799C33.8538 13.3118 35.1803 11.872 36.8129 11.872C38.4455 11.872 39.772 13.3118 39.772 15.0799C39.7465 16.8481 38.42 18.2878 36.8129 18.2878ZM60.613 10.4827C61.7099 9.47236 62.3986 8.10836 62.3986 6.61807C62.3986 5.25407 61.8629 4.01637 60.9446 3.03126C59.9753 1.99563 58.2917 1.36415 55.9958 1.36415H49.1339V21.3442H58.0111C61.4038 21.2937 64.1588 18.7425 64.1588 15.6104C64.1333 13.337 63.317 11.7204 60.613 10.4827ZM57.1948 17.8837H53.3429V4.95096H56.0468C57.2203 4.95096 58.2151 5.83503 58.2151 7.02222C58.2151 8.2094 57.2203 9.16925 56.0468 9.16925H54.6183V12.7813H57.2458C58.6743 12.7813 59.7457 13.9432 59.7457 15.3578C59.6947 16.7723 58.7508 17.8079 57.1948 17.8837Z" fill="#9B99AB"/>
<path d="M18.8289 13.6907C18.8289 12.3519 19.9258 11.2658 21.2778 11.2658C22.6298 11.2658 23.7267 12.3519 23.7267 13.6907H18.8289ZM27.7061 15.964C27.7316 15.6861 27.7571 15.4083 27.7571 15.1304C27.8082 10.8111 24.9511 8.46199 21.2778 8.46199C17.6045 8.46199 14.6199 11.4426 14.6199 15.1304C14.6199 18.8183 17.6045 21.7989 21.2778 21.7989C24.0838 21.7989 26.2776 20.5359 27.4 18.5657L24.1348 17.0754C23.7267 17.9595 22.7573 18.5909 21.6094 18.5909C20.1044 18.5909 18.8544 17.4543 18.8544 15.964H27.7061ZM80.1786 0.404297H84.209V21.3442H80.1786V0.404297ZM87.0405 0.404297H91.071V21.3442H87.0405V0.404297Z" fill="#9B99AB"/>
<path d="M36.3789 35.1855C36.3789 29.78 40.792 25.4102 46.251 25.4102C51.7099 25.4102 56.123 29.78 56.123 35.1855C56.123 40.591 51.7099 44.9608 46.251 44.9608C40.792 44.9608 36.3789 40.5657 36.3789 35.1855Z" fill="#D2D1DB"/>
<path fill-rule="evenodd" clip-rule="evenodd" d="M38.3179 29.377C38.471 29.4528 38.6241 29.5286 38.8026 29.6296C39.5424 30.1348 40.0271 30.5642 41.1495 31.4988C41.4811 31.8272 41.8637 32.3576 42.1443 32.686C42.7565 33.4437 43.1902 33.9742 43.2667 34.6057C43.4453 35.8686 43.6239 36.5759 44.1085 37.8641C44.1596 37.9904 44.3636 38.1672 44.4912 38.3188C44.7973 38.6977 44.9248 39.3039 45.486 39.6323C45.7921 39.8091 45.8432 39.8343 45.9452 39.9101C46.0983 40.0364 45.8432 40.4911 45.0524 40.39C45.4605 40.5921 45.4095 41.0468 44.8228 41.072C43.6749 41.1226 42.9606 40.4658 42.8076 40.289C42.731 40.2132 42.5015 40.5163 42.0933 40.6679C41.6852 40.87 41.124 40.6679 40.6903 40.7437C40.2822 40.8194 39.7465 41.072 39.3128 41.0973C38.5475 41.1226 38.4455 40.5921 38.4455 40.1374V39.9354C38.369 40.2132 38.0884 40.6931 38.0884 40.6931C37.9863 40.9205 37.8333 41.1983 37.5527 41.2994L36.7364 41.4004C36.0987 41.6783 35.4609 41.8803 34.7977 42.1077C34.415 42.1834 33.9814 42.1077 33.7008 41.8803C33.4712 41.7035 33.3437 41.4762 33.2161 41.2488C33.0886 41.1983 32.91 41.2489 32.7569 41.1983C32.6294 41.1731 32.5529 41.072 32.4763 40.9963L31.9151 40.0617C31.8641 39.9354 31.8641 39.7586 31.9151 39.6323C32.0172 39.4302 32.2468 39.3292 32.4763 39.3292C32.8845 39.3039 33.3437 39.1776 33.7518 39.3292C33.9304 39.1271 34.211 39.1523 34.4661 39.1018C34.364 38.9503 34.211 38.8745 34.0834 38.7482C33.3437 38.925 32.5274 38.7987 31.8131 38.6724C31.1499 38.5209 30.5887 38.8997 29.9254 38.7987L29.7214 39.2281C29.4152 39.5565 29.3897 40.1122 28.9306 40.3395C28.5989 40.4153 28.3439 40.6426 28.0633 40.7942C27.5531 41.072 26.8643 40.9457 26.3031 40.8447C26.0735 40.8194 25.9205 40.8447 25.7164 40.9205C25.5378 41.0468 25.3338 41.2489 25.1297 41.4004C24.7981 41.5267 24.5175 41.8046 24.1603 41.8298C23.9563 41.8298 23.7522 41.7035 23.5481 41.754C23.293 42.0319 23.1655 42.4866 22.7573 42.6129C22.3492 42.7391 21.839 42.6381 21.4309 42.5371C21.3033 42.5876 21.2268 42.6886 21.0737 42.6634C20.7931 42.5876 20.5125 42.5118 20.2574 42.3603C20.1554 42.2592 20.1299 42.1329 20.1044 42.0319C20.1044 41.8551 20.2574 41.7035 20.334 41.552C20.3595 41.3751 20.3595 41.1226 20.436 40.9457C20.5636 40.6679 20.8442 40.4911 21.1248 40.3648C21.1503 40.1627 21.2778 39.9859 21.4564 39.8849C21.788 39.708 22.1451 39.3039 22.5788 39.5312L23.0379 39.9101C23.4461 39.7333 23.3441 39.3292 23.5481 39.0008C23.6502 38.7734 23.7777 38.5209 24.0328 38.5209C24.2114 38.4956 24.4154 38.5461 24.594 38.5209C24.8491 38.4451 25.1297 38.344 25.3083 38.142L25.2828 37.9904C25.0277 37.5105 24.9511 36.9295 24.9256 36.3486C24.4665 36.3991 23.9818 36.4749 23.4971 36.3738C22.7829 36.2728 22.0941 35.7171 21.8135 35.0098C21.5074 34.3278 21.6349 33.368 22.1196 32.787C22.5023 32.3323 22.9359 31.9282 23.3951 31.5746C23.242 31.524 23.0635 31.5493 22.9104 31.4988C22.2472 31.3977 21.5839 30.8168 21.4309 30.16C21.3288 29.7306 21.4309 29.3265 21.6349 28.9729C21.7115 28.8971 21.788 28.8213 21.9155 28.8718C22.2472 28.9981 22.3492 29.1749 22.6553 29.3265L22.8339 29.4275C23.6757 29.7054 24.7981 29.7054 25.1297 30.741C25.3338 31.5493 24.8236 32.1555 24.2369 32.6102C23.7777 32.9386 23.3185 33.3427 23.089 33.8226C22.9869 34.1763 23.0379 34.5299 23.3441 34.7825C23.6502 35.0856 24.1859 35.0856 24.5685 34.934C25.2828 34.6309 25.946 34.1763 26.5837 33.6963C27.1959 33.2417 27.9357 33.0649 28.7265 33.0396C29.0836 32.9638 29.3897 32.8123 29.6703 32.5849C30.155 32.1303 30.6652 31.7514 31.2774 31.5998C31.558 31.5493 31.8386 31.524 32.1192 31.4988C32.3488 31.3977 32.5019 31.1199 32.6804 30.9936C33.5222 30.2611 34.6446 30.2863 35.5374 29.7054C36.0476 29.3265 36.6088 29.0739 37.2721 29.0992C37.5782 29.1244 37.8588 29.1749 38.1139 29.276L38.3179 29.377ZM39.1598 37.9651C38.5986 37.9904 38.2414 38.1167 37.8588 38.1672C37.8843 38.5209 38.0884 38.824 38.369 39.2029C38.522 38.6219 39.0067 38.3946 39.1598 37.9651ZM53.5214 38.0914C53.7765 38.4703 53.9296 38.8492 54.1592 39.2534C54.3887 38.824 54.5928 38.4198 54.7969 38.1672C54.7714 38.142 54.1081 38.2177 53.5214 38.0914ZM54.0571 39.9606C54.0316 40.0364 53.9806 40.0617 53.8786 40.0617C53.9551 40.4153 53.7 41.072 53.0623 41.0973C52.6286 41.1226 51.9144 40.6931 51.5062 40.6679C51.0726 40.6426 50.2818 40.971 49.8226 40.289C49.2104 41.0215 48.4961 41.2236 47.8839 41.1983C47.5268 41.1983 47.1441 40.9963 47.6798 40.5416C46.5064 40.9205 46.5064 40.1374 46.7105 39.9859C46.838 39.8849 46.9911 39.8091 47.4247 39.3797C49.0573 37.6873 48.4451 34.7572 50.2307 32.8123C50.9195 32.0545 51.4807 31.6251 52.8837 30.64C53.3684 30.3116 53.8531 29.8317 54.3122 29.5033L54.3377 29.5538V29.5286C54.6183 29.3265 54.8734 29.1244 55.1795 29.0486C55.8173 28.9729 56.404 29.1749 56.8886 29.5033C57.1437 29.6801 57.3478 29.8822 57.5519 30.1348C57.7049 30.2863 57.9345 30.2863 58.1386 30.3621C58.7253 30.4632 59.2355 30.6905 59.7202 30.9936C60.0518 31.1957 60.3324 31.5493 60.7405 31.5998C61.2252 31.6756 61.6589 31.8272 62.0925 32.0797C62.6027 32.4081 63.0619 32.8123 63.6741 32.9133C64.8985 33.0396 65.9189 33.7216 66.8882 34.4036C67.4495 34.732 68.1127 35.1109 68.8014 34.8835C69.0055 34.8077 69.1586 34.6309 69.2096 34.4541C69.2606 33.9995 68.98 33.6458 68.6994 33.3175C68.1127 32.6355 67.0923 32.0545 67.2199 31.0694C67.3984 30.3369 68.2147 29.9075 68.8525 29.7054C69.2096 29.5791 69.6432 29.6296 69.9494 29.3265C70.1024 29.2255 70.1789 28.8718 70.434 28.9981C70.6381 29.1244 70.6636 29.377 70.6891 29.6043C70.7912 30.3116 70.6381 31.0189 69.9749 31.423C69.6688 31.6251 69.3371 31.7009 68.98 31.7766C69.5157 32.206 70.0514 32.7365 70.3575 33.3427C70.5361 33.6963 70.6381 33.9995 70.6636 34.4036C70.6381 35.1614 70.1789 35.8181 69.5157 36.197C69.1331 36.3991 68.6994 36.4749 68.2402 36.4749C68.0617 36.4749 67.9086 36.4243 67.7556 36.4243C67.8321 36.778 67.8321 37.2579 67.7556 37.662C67.7301 37.8641 67.6025 38.0914 67.6025 38.344C67.7045 38.4703 67.8576 38.4703 67.9851 38.4703C68.3168 38.4703 68.7249 38.4451 68.9035 38.7987C69.0565 39.1271 69.1331 39.506 69.2606 39.8343C69.3116 39.8849 69.3371 40.0111 69.4137 39.9859C69.6432 39.7838 69.8728 39.506 70.2044 39.5817C70.5106 39.7838 70.8167 40.0111 71.1228 40.2385C71.1993 40.3143 71.2248 40.4153 71.2503 40.5416C71.5054 40.6426 71.837 40.8194 71.9136 41.1226C71.9646 41.3246 71.9391 41.5267 71.9901 41.7035C72.0666 41.9056 72.2707 42.1582 72.1176 42.4108L72.0156 42.4866L71.0463 42.7897C70.9697 42.7897 70.8932 42.7391 70.8167 42.6634C70.3065 42.6381 69.6943 42.7897 69.2861 42.436C69.1075 42.2845 68.98 42.1077 68.8525 41.9056C68.5464 42.0571 68.1127 42.1582 67.8066 41.9561C67.1689 41.4762 66.5311 40.9963 65.6638 41.0215C65.2812 41.0973 64.822 41.1983 64.4394 41.0468C64.0822 40.7942 63.6741 40.6679 63.3935 40.289C62.9853 39.8596 62.9853 39.3544 62.8323 38.824C62.2711 38.9503 61.6589 38.8745 61.0977 38.8492C60.6385 38.824 60.2048 38.8997 59.7712 39.0008C59.2355 39.1018 58.6488 39.1523 58.0876 39.1271L57.807 39.3292C57.9345 39.3544 58.0621 39.3544 58.1641 39.4554L58.2661 39.5565C58.7253 39.607 59.261 39.5312 59.6947 39.6323C59.7967 39.6575 59.8987 39.7586 59.9497 39.8596C60.0008 39.9859 60.0008 40.1374 59.9242 40.2385C59.6947 40.5416 59.5671 40.8952 59.261 41.1478C59.1845 41.2489 58.9549 41.1226 58.9294 41.2994C58.8273 41.754 58.3937 42.1329 57.96 42.234C57.7815 42.2592 57.5774 42.234 57.4243 42.1834C56.8886 42.0066 56.353 41.8551 55.8173 41.7035C55.6387 41.653 55.4856 41.4762 55.3326 41.3751C55.103 41.3751 54.7714 41.4509 54.6183 41.2488C54.5418 41.1983 54.4653 41.0215 54.4398 40.9457C54.2612 40.7184 54.1337 40.3143 54.0571 39.9606Z" fill="#D2D1DB"/>
<path fill-rule="evenodd" clip-rule="evenodd" d="M38.0621 32.5583C38.2152 32.9372 38.2152 33.4424 38.1132 33.8465C38.0877 33.8718 38.0621 33.8718 38.0366 33.8465C37.9601 33.4929 37.8836 33.1393 37.756 32.7856C37.6795 32.5836 37.4244 32.4067 37.5264 32.1794C37.5775 32.1289 37.6795 32.1289 37.756 32.1542C37.8836 32.2805 37.9601 32.4067 38.0621 32.5583ZM42.1436 36.0946C42.4242 36.423 42.6283 36.7766 42.5263 37.206C42.4752 37.2818 42.5007 37.4333 42.3732 37.4586C42.3222 37.4839 42.2712 37.4333 42.2712 37.3828C42.2456 37.1555 42.2457 36.9029 42.1181 36.7261C41.965 36.5745 41.7865 36.2714 41.5314 36.2714C41.3528 36.3219 41.2253 36.524 41.1232 36.6503C41.1232 36.6756 41.0977 36.6756 41.0722 36.6503C40.9702 36.3977 41.1743 36.1956 41.2508 35.9936C41.4038 35.842 41.3783 35.4126 41.71 35.5389C41.9395 35.6904 41.9906 35.943 42.1436 36.0946ZM41.6079 39.1004C41.6334 39.252 41.6334 39.4793 41.4804 39.5804C41.3273 39.6309 41.1232 39.6561 40.9447 39.6309C40.8937 39.6056 40.8426 39.5804 40.8682 39.5298C40.9447 39.3025 41.1743 39.0499 41.4294 38.9994C41.4804 38.9994 41.5824 38.9994 41.6079 39.1004ZM22.9862 29.8808C23.5984 30.0324 24.2617 30.0324 24.7208 30.5123C24.9759 30.8154 25.0014 31.3459 24.7974 31.649C24.4402 32.2552 23.726 32.5583 23.2923 33.0887C22.8587 33.4424 22.7056 33.9981 22.8332 34.5538C22.9862 35.0337 23.4709 35.3621 23.9556 35.3873C24.7208 35.4126 25.282 35.0337 25.8943 34.6801C26.5065 34.2507 27.0677 33.695 27.7564 33.5182C28.2156 33.3666 28.7258 33.4424 29.1849 33.2656C29.6696 33.1645 30.0523 32.7604 30.4349 32.4067C30.8685 32.0531 31.3787 31.851 31.9399 31.8763C32.4501 31.9521 32.7307 31.4974 33.0878 31.1943C33.6746 30.6639 34.4398 30.6133 35.1286 30.3102C35.6133 30.1587 35.9959 29.805 36.4551 29.5777C36.8887 29.4009 37.4754 29.3504 37.9091 29.5272C38.1897 29.6535 38.4958 29.7798 38.7509 29.9819L40.8171 31.6995C40.8426 31.7753 40.9192 31.8258 40.9702 31.851C41.5569 32.5583 42.1691 33.2403 42.6538 34.0233C42.8069 34.3012 42.8834 34.579 42.9599 34.8822C43.0619 36.0441 43.3681 37.0544 43.7507 38.0648C43.8527 38.2164 44.0568 38.3427 44.1588 38.4942C44.4905 38.9489 44.6945 39.5299 45.2302 39.833L45.5363 39.9845C45.5618 40.0098 45.5618 40.0603 45.5363 40.0856L45.4853 40.1361C44.8476 40.2371 44.3629 39.8582 44.0313 39.4036C43.8272 38.9994 43.5466 38.57 43.0875 38.3932C43.0619 38.3932 43.0364 38.4184 43.0364 38.4184C43.0875 38.57 43.2405 38.671 43.2915 38.7973C43.4701 39.0752 43.6231 39.3783 43.6997 39.6814C43.8017 40.0098 44.1588 40.2371 44.4394 40.4139L44.8476 40.616C44.8986 40.6413 44.9241 40.717 44.8731 40.7676L44.8221 40.7928C44.1333 40.8181 43.5211 40.5907 43.0364 40.0856C42.9344 39.9593 42.7813 39.8582 42.6028 39.8582C42.2967 40.1361 41.9906 40.3887 41.5824 40.4139C41.1488 40.3381 40.6896 40.3381 40.307 40.4897C39.9498 40.616 39.5927 40.7676 39.2101 40.7676C39.0315 40.7676 38.8274 40.6918 38.7509 40.515C38.7509 40.2876 38.5978 40.035 38.7254 39.8077L38.9805 39.4288C38.9805 39.3783 38.955 39.3278 38.9039 39.3278C38.8019 39.3025 38.6233 39.4793 38.5723 39.3025C38.5978 38.9236 38.9805 38.671 39.2356 38.4184C39.2866 38.1153 39.4141 37.8375 39.6437 37.5849C39.6437 37.5596 39.6182 37.5091 39.5672 37.5091C39.2356 37.5596 38.9039 37.6354 38.5468 37.6354C38.2662 37.787 37.9091 37.888 37.5775 37.787C37.5009 37.7364 37.5264 37.6607 37.552 37.6101C37.9091 37.1302 38.0366 36.524 37.9346 35.943C37.9091 35.9178 37.9091 35.8673 37.8581 35.8673C37.8071 35.8673 37.8071 35.9178 37.7815 35.943C37.705 36.4987 37.5265 36.9281 37.2203 37.4081C36.9908 37.6354 36.6336 37.6354 36.3275 37.7112C36.251 37.7364 36.1745 37.8122 36.1745 37.888C36.1745 38.0901 36.302 38.2164 36.3785 38.3932L37.0418 39.6056C37.0673 39.934 36.9142 40.2624 36.8377 40.5655C36.8632 40.616 36.9142 40.5907 36.9652 40.5655C37.1948 40.3634 37.3479 40.0856 37.4499 39.7824C37.4754 39.6561 37.4244 39.5046 37.3734 39.4036L36.6846 38.0396C36.7357 37.9638 36.8377 37.9638 36.9142 37.9385C37.0673 37.9385 37.2203 38.0143 37.3734 38.0648C37.5264 38.469 37.705 38.8984 37.9856 39.252C38.0366 39.4793 38.1132 39.7824 37.9601 39.9593C37.8071 40.2624 37.654 40.515 37.4499 40.7928C37.2714 40.9696 37.0163 40.9444 36.7612 40.9696H36.6846C36.0724 41.298 35.4347 41.5001 34.7715 41.7021C34.4909 41.8284 34.1592 41.7274 33.9297 41.5506C33.7001 41.3738 33.598 41.1212 33.445 40.8938C33.2664 40.6665 32.9858 40.8686 32.7817 40.7423C32.6032 40.4644 32.4246 40.1866 32.2716 39.8835C32.2716 39.8077 32.2716 39.7319 32.3481 39.6814C32.5777 39.6056 32.8328 39.6056 33.0878 39.5804C33.3174 39.5551 33.5725 39.6056 33.7256 39.7572C34.0317 40.1108 34.1592 40.5907 34.6184 40.8181C34.9755 40.8433 35.2816 40.7423 35.5877 40.5907C35.7663 40.4897 35.9704 40.3381 35.9704 40.1108C35.9449 39.6561 35.6388 39.3025 35.2561 39.0499C34.8735 38.8478 34.4653 38.57 34.1847 38.2164C34.0317 38.0143 34.0062 37.787 33.9297 37.5849C33.9041 37.5344 33.8021 37.5344 33.7766 37.5596C33.6235 37.6859 33.7511 37.9133 33.7511 38.0648C33.7766 38.1659 33.8276 38.2921 33.7766 38.3679C33.547 38.5447 33.2409 38.4437 32.9603 38.469C32.3991 38.4437 31.8634 38.2164 31.2767 38.2669C30.7155 38.2921 29.9502 38.671 29.5421 38.1153C29.338 37.5849 29.389 36.9534 29.4911 36.423C29.4911 36.3724 29.44 36.3219 29.389 36.3219C29.338 36.2967 29.287 36.3219 29.2615 36.3724C29.1084 36.9029 29.0829 37.4839 28.9554 38.0396C28.7513 38.5195 28.3942 39.0247 27.9095 39.2773C27.4758 39.5046 26.9656 39.5804 26.4299 39.6309C25.4606 39.6561 24.5678 39.833 23.9556 40.6665C23.9045 40.7423 23.828 40.8181 23.8535 40.9191C23.879 40.9444 23.9556 40.9696 23.9811 40.9444C24.6443 40.2118 25.4861 39.9087 26.4555 39.9593C27.3738 39.9593 28.2921 39.8077 28.8788 39.0247C29.0319 38.8478 29.1339 38.671 29.2615 38.469C29.3635 38.469 29.44 38.5953 29.5166 38.6458C29.5421 38.9236 29.3125 39.1004 29.2105 39.3278C29.0829 39.5804 28.9554 39.8835 28.7003 40.035C28.3942 40.1108 28.1391 40.3129 27.8585 40.4644C27.5779 40.5907 27.2207 40.6413 26.8891 40.5655C26.481 40.4897 25.9198 40.3887 25.5116 40.5655C25.3075 40.6918 25.129 40.9191 24.9249 41.0454C24.6443 41.1717 24.3892 41.399 24.0576 41.3738C23.828 41.3233 23.5474 41.1717 23.3433 41.3738C23.0882 41.6011 23.0372 42.0053 22.7056 42.1568C22.323 42.3589 21.9148 42.1568 21.5322 42.1315C21.5832 41.7527 21.6342 41.399 21.8893 41.1212C22.0424 41.0959 22.1699 41.0707 22.2975 40.9696C22.4505 40.8433 22.5526 40.6665 22.6546 40.4897C22.9862 40.2876 23.3688 40.1361 23.5729 39.7824C23.726 39.4541 23.726 39.151 23.9811 38.8478L24.1086 38.7973L24.7974 38.7468C25.078 38.6205 25.3331 38.4942 25.5881 38.2921C25.6647 38.2164 25.6902 38.0901 25.6647 37.9638C25.5371 37.6354 25.4351 37.4081 25.3586 37.0544C25.282 36.7008 25.3331 36.3472 25.282 35.943C25.2565 35.9178 25.231 35.842 25.18 35.842C24.7208 35.943 24.2872 36.0693 23.777 35.9936C23.0882 35.9178 22.374 35.4631 22.1189 34.7811C21.8893 34.2002 21.9403 33.3666 22.374 32.8867C22.7821 32.3815 23.2923 32.0026 23.8025 31.5732C23.879 31.5227 23.879 31.4216 23.9045 31.3459C23.9045 31.2448 23.8025 31.169 23.726 31.1185C23.4199 31.0427 23.0627 31.1438 22.7566 31.0175C22.2209 30.8407 21.8128 30.3355 21.7363 29.7798C21.7107 29.5272 21.7618 29.3251 21.8893 29.123C22.2975 29.4767 22.6036 29.7798 22.9862 29.8808ZM21.4557 41.1717V41.2475C21.3281 41.5506 21.2516 41.9042 21.1495 42.2578C20.92 42.2326 20.7159 42.1568 20.5373 42.081C20.4863 42.0305 20.5373 41.98 20.5373 41.9295C20.7669 41.7274 20.6904 41.4748 20.7414 41.197C20.7669 41.0454 20.92 40.9191 21.073 40.8433C21.2516 40.8686 21.3536 41.0454 21.4557 41.1717ZM22.5781 40.1108C22.4505 40.3634 22.2719 40.6665 21.9913 40.8181C21.8893 40.8433 21.7618 40.8433 21.6597 40.7928C21.6087 40.7423 21.5067 40.6918 21.5067 40.5907C21.5322 40.4897 21.4812 40.3634 21.5832 40.3129C21.7873 40.1866 21.9913 40.0603 22.1954 39.8835C22.2464 39.8582 22.3485 39.833 22.374 39.8835C22.476 39.9593 22.5525 40.0098 22.5781 40.1108ZM35.3582 40.0098C35.3837 40.1108 35.5367 40.2371 35.4347 40.3381C35.2306 40.4897 35.001 40.5907 34.7204 40.5655C34.5164 40.4139 34.5419 40.1361 34.3633 39.934C34.3123 39.7824 34.0827 39.7824 34.1337 39.6309L34.2103 39.5804C34.4909 39.5804 34.7715 39.5804 35.0521 39.5298C35.3327 39.5046 35.2561 39.833 35.3582 40.0098ZM51.48 35.8925C51.633 36.0946 51.7606 36.2967 51.8626 36.5493C51.8881 36.5998 51.8626 36.6503 51.8371 36.7008C51.8116 36.7513 51.7606 36.8019 51.6841 36.7513C51.5055 36.7008 51.531 36.423 51.3014 36.4482C51.1484 36.4482 51.0463 36.5745 50.9188 36.6503C50.6892 36.8524 50.3831 37.0544 50.3321 37.3576C50.281 37.4586 50.3066 37.6354 50.2045 37.6859C50.1535 37.7112 50.077 37.6607 50.077 37.6101C50.0515 37.206 50.179 36.8271 50.4596 36.5493C50.7402 36.3219 50.9443 35.9936 51.1739 35.7157C51.3269 35.6904 51.429 35.7915 51.48 35.8925ZM51.582 39.252C51.633 39.353 51.7351 39.4793 51.6585 39.6056C51.5565 39.6814 51.3779 39.6309 51.2504 39.6309C51.0973 39.5551 51.0463 39.353 51.0463 39.1762C51.0463 39.1257 51.0463 39.1004 51.0973 39.0499C51.2759 39.0499 51.4545 39.1004 51.582 39.252ZM55.4084 31.5227C55.4849 31.6237 55.4084 31.7247 55.3574 31.8005C55.0002 32.1289 54.5666 32.4825 54.3115 32.8867C54.2095 33.013 54.1329 33.1645 54.0819 33.3161C54.0819 33.3413 54.0564 33.3413 54.0309 33.3413C53.9544 33.1393 54.0564 32.9119 54.1074 32.7099C54.286 32.2299 54.6941 31.7753 55.1278 31.4469C55.1788 31.4216 55.3574 31.3964 55.4084 31.5227ZM56.8624 29.9061C57.143 30.0829 57.2451 30.4618 57.5767 30.5376C58.1379 30.6639 58.6991 30.7902 59.2093 31.0427C59.5664 31.2196 59.898 31.4722 60.2296 31.75C60.5357 31.9016 60.9184 31.9016 61.25 32.0026C61.7347 32.1289 62.1173 32.4825 62.551 32.7604C63.1122 33.1898 63.903 33.1393 64.5407 33.4171C65.5611 33.7455 66.3773 34.5285 67.3212 34.9832C67.8059 35.2358 68.5456 35.3368 69.0303 35.059C69.3619 34.8316 69.566 34.5285 69.4895 34.0991C69.3109 33.0635 68.163 32.533 67.6273 31.6742C67.5253 31.4722 67.4487 31.1943 67.4997 30.967C67.7038 30.4618 68.2395 30.1839 68.6987 30.0071C69.0558 29.8303 69.515 29.8808 69.8466 29.6788C69.9741 29.603 70.0762 29.5019 70.1527 29.4262C70.2292 29.4262 70.2292 29.5019 70.2547 29.5525C70.3568 30.1587 70.2547 30.7902 69.7191 31.1438C69.515 31.2953 69.2599 31.3459 69.0303 31.3964C68.8262 31.4722 68.4181 31.3206 68.4436 31.6742C68.4946 31.851 68.6477 31.9521 68.7752 32.0784C69.4895 32.6593 70.1527 33.4171 70.2292 34.3264C70.2547 35.0337 69.7701 35.6399 69.1578 35.943C68.6987 36.1199 68.1375 36.1956 67.6528 36.0693C67.5253 36.0441 67.3212 35.9178 67.2192 36.0946C67.1936 36.2967 67.3212 36.4482 67.3212 36.625C67.3722 36.9534 67.3722 37.3828 67.2702 37.7112C67.2192 37.9638 66.9641 38.2669 67.1936 38.5195C67.4232 38.8731 67.8824 38.7721 68.265 38.8226C68.4691 38.8479 68.5456 39.0752 68.5966 39.2267C68.6732 39.4288 68.6732 39.6561 68.7497 39.8077C68.7497 40.1866 69.1834 40.3381 69.3874 40.5907C69.6425 40.8686 69.8721 41.3485 70.3058 41.3233C70.4588 41.6264 70.5353 41.9042 70.5864 42.2578L70.5354 42.3084C70.1782 42.3084 69.6935 42.4094 69.4384 42.1568C69.1323 41.9547 69.0303 41.399 68.5711 41.5506C68.3671 41.7021 68.0865 41.7527 67.8569 41.6516C67.6273 41.5758 67.4742 41.3738 67.2702 41.2475C66.6579 40.7928 65.8417 40.5655 65.0509 40.7423C64.5917 40.8686 64.2346 40.5402 63.8774 40.3381C63.3928 40.1361 63.2652 39.6309 63.1632 39.2015L63.0867 38.671C63.0867 38.6205 63.1377 38.57 63.1887 38.5447H63.2652C63.5458 39.1762 64.0815 39.8835 64.7703 40.1108C65.408 40.3634 65.9947 40.035 66.6835 40.1613C67.3212 40.2371 67.8314 40.6413 68.316 41.0201C68.3671 41.0201 68.3926 40.9949 68.4181 40.9444V40.8938C67.8314 40.1613 67.0151 39.7824 66.0712 39.8582C65.2805 40.0098 64.5152 39.7572 64.056 39.1004C63.8009 38.7216 63.6224 38.3174 63.5458 37.888C63.4693 37.3828 63.3673 36.8271 63.1887 36.3724C63.1377 36.3472 63.0867 36.2967 63.0356 36.3219L62.9846 36.3977C63.0612 36.8776 63.2142 37.4586 63.0356 37.9638C62.9081 38.3679 62.5 38.5195 62.1173 38.5447C61.7347 38.57 61.3775 38.4942 60.9694 38.4942C60.0511 38.469 59.2348 38.8226 58.2909 38.7468C58.3675 38.5195 58.5205 38.2921 58.444 38.0396C58.4185 37.989 58.3419 37.989 58.2909 37.989C58.1124 38.0901 58.1379 38.3174 58.0358 38.469C57.8318 38.7973 57.4491 39.1004 57.0665 39.1762C56.7859 39.3783 56.5308 39.6561 56.3012 39.9087C56.2247 39.9845 56.2247 40.1361 56.2502 40.2371C56.4288 40.6918 56.9645 40.7423 57.3726 40.8686C57.5767 40.8938 57.7552 40.8181 57.8573 40.6413C58.0358 40.3634 58.0613 39.9087 58.4695 39.8582H59.3623C59.4388 39.8835 59.4899 39.934 59.5409 40.0098L59.5154 40.1361C59.3113 40.3634 59.2348 40.6918 58.9797 40.8433C58.8266 40.8938 58.6481 40.8433 58.546 40.9696C58.495 41.2727 58.4185 41.6011 58.1124 41.7527C57.8828 41.9547 57.5512 41.8537 57.2961 41.7779C56.8114 41.6011 56.3267 41.5001 55.8421 41.3485C55.638 41.298 55.5615 41.0454 55.3319 40.9949C55.1278 40.9444 54.8982 41.0959 54.7196 40.9191C54.6176 40.6918 54.5666 40.5402 54.5156 40.2876C54.439 40.1361 54.388 39.9593 54.3625 39.7824C54.337 39.6309 54.3625 39.5298 54.4135 39.4036L55.0768 38.2164C55.1278 38.1406 55.1788 38.0648 55.2553 38.0396C55.4084 38.0648 55.587 38.1406 55.74 38.2164L55.7145 38.2921L55.0258 39.3278C54.8727 39.6561 55.0258 40.035 55.1788 40.3129C55.2043 40.3381 55.2298 40.3887 55.2553 40.3634C55.2298 40.1613 55.2043 39.9593 55.2553 39.7319C55.3064 39.5298 55.4339 39.353 55.5359 39.1762L56.0716 38.3932C56.1227 38.2669 56.1227 38.0648 56.0206 37.9385C55.791 37.7112 55.4594 37.6354 55.2553 37.3323C54.8217 36.7513 54.7707 36.0693 54.7196 35.3368C54.7196 35.2863 54.6686 35.2105 54.5921 35.1853C54.5411 35.16 54.4901 35.2358 54.4646 35.261C54.337 35.741 54.4135 36.3219 54.5411 36.7513C54.6176 37.0797 54.7707 37.4081 54.9237 37.7112C54.9492 37.7617 54.8982 37.8375 54.8472 37.8627C54.4901 37.888 54.1329 37.8627 53.8013 37.8122C53.3422 37.7364 53.0105 37.3828 52.6279 37.105C52.5769 37.0797 52.5514 37.1302 52.5259 37.1555C52.6279 37.6607 53.1891 37.9638 53.3677 38.4184C53.4697 38.7973 53.8523 39.0752 53.9289 39.4793C53.9289 39.5298 53.8778 39.6056 53.8268 39.6309C53.6993 39.6561 53.5717 39.5804 53.4442 39.6561C53.4187 39.8835 53.5717 40.1108 53.4697 40.3129C53.3422 40.515 53.1636 40.7423 52.934 40.7423C52.4748 40.5907 52.0157 40.3887 51.5565 40.2624C51.2249 40.2371 50.8933 40.2876 50.5872 40.3129C50.281 40.2624 50.077 39.9845 49.8474 39.833C49.7709 39.8077 49.6943 39.8077 49.6433 39.8582C49.1331 40.3634 48.5719 40.9191 47.8067 40.8938C47.7556 40.8938 47.7301 40.8433 47.7301 40.7928V40.7423C48.0617 40.4392 48.4699 40.1361 48.6229 39.7067C48.725 39.353 49.0311 39.1004 49.1586 38.7721C49.1842 38.7216 49.1331 38.6963 49.0821 38.671L49.0056 38.7216C48.6229 39.1004 48.3424 39.5298 48.0617 39.934C47.7811 40.2118 47.373 40.3887 46.9393 40.2876C46.8883 40.2624 46.8883 40.1866 46.9138 40.1361C48.4954 39.1762 48.674 37.4586 49.1076 35.8925C49.4137 34.8569 49.6433 33.796 50.4596 32.9624C51.6841 31.6237 53.2146 30.8407 54.5666 29.6788C54.7707 29.5019 54.9747 29.3251 55.2298 29.3251C55.8931 29.2746 56.4033 29.5272 56.8624 29.9061ZM71.4282 41.0707C71.5557 41.2475 71.5047 41.5253 71.5557 41.7274C71.5812 41.879 71.7853 42.0053 71.6833 42.1568L71.1221 42.3336C71.02 42.3336 71.071 42.2073 71.02 42.1568C70.969 41.8284 70.8925 41.6011 70.7904 41.298C70.7649 41.1212 70.9435 40.9949 71.071 40.8938C71.1986 40.8433 71.3006 40.9949 71.4282 41.0707ZM70.1272 39.934C70.3313 40.1108 70.6119 40.2371 70.7649 40.4644C70.7904 40.5655 70.7139 40.6665 70.6629 40.7423C70.5864 40.8181 70.4843 40.8686 70.3568 40.8686C70.2292 40.8686 70.1272 40.7928 70.0507 40.6918C69.9231 40.4897 69.7446 40.3129 69.6935 40.1108C69.7701 39.9845 69.9486 39.7824 70.1272 39.934ZM57.8318 39.7319C57.8063 39.9845 57.7297 40.2118 57.6277 40.4392C57.5512 40.5907 57.3216 40.5402 57.1685 40.515C57.0155 40.4644 56.7604 40.4392 56.7349 40.2118C56.7094 40.0098 56.8114 39.8077 56.9134 39.6561C57.143 39.6309 57.4236 39.6814 57.6532 39.6309C57.7552 39.6309 57.8318 39.6561 57.8318 39.7319Z" fill="#9B99AB"/>
<path d="M5.30859 55.4693H8.85437V54.7368H6.12489V52.2613H8.75234V51.5288H6.12489V49.7102H8.85437V48.9776H5.30859V55.4693ZM12.3236 55.4693H13.1399V50.6195L18.0887 55.7471V48.9776H17.2724V53.7769L12.3236 48.6493V55.4693ZM21.609 55.4693H25.1292V54.7368H22.4253V52.2613H25.0527V51.5288H22.4253V49.7102H25.1292V48.9776H21.609V55.4693ZM30.4862 52.6402C31.43 52.5392 32.0677 51.7562 32.0677 50.8216C32.0677 50.1901 31.7616 49.5839 31.2004 49.2555C30.6902 48.9524 30.0525 48.9524 29.4658 48.9524H28.4709V55.4693H29.2872V52.716H29.6189L31.5576 55.4693H32.5524L30.4862 52.6402ZM29.2872 49.6849H29.5168C30.3331 49.6849 31.3025 49.8365 31.3025 50.8468C31.3025 51.8825 30.3841 52.034 29.5678 52.034H29.3127V49.6849H29.2872ZM38.445 52.1856V52.9181H40.1542C40.1287 53.979 39.0318 54.8378 38.0114 54.8378C36.5829 54.8378 35.4605 53.5496 35.4605 52.1856C35.4605 50.7205 36.6084 49.5334 38.0879 49.5334C38.9042 49.5334 39.695 49.9628 40.1542 50.5942L40.7409 50.0385C40.1031 49.2302 39.0828 48.7756 38.0624 48.7756C36.1747 48.7756 34.6442 50.3164 34.6442 52.1856C34.6442 53.979 36.1237 55.5703 37.9604 55.5703C39.797 55.5703 41.0725 54.2063 41.0725 52.4129V52.1603H38.445V52.1856ZM45.5621 52.6402V55.4693H46.3784V52.6402L48.5212 48.9776H47.5773L45.9703 51.7562L44.3377 48.9776H43.3938L45.5621 52.6402ZM54.1587 55.4693H55.4852C57.5514 55.4693 59.2095 54.4084 59.2095 52.1856C59.2095 50.0133 57.5259 48.9524 55.5107 48.9524H54.1587V55.4693ZM54.975 49.7102H55.2556C56.9392 49.7102 58.3677 50.3164 58.3677 52.2361C58.3677 54.1305 56.9137 54.7368 55.2556 54.7368H54.975V49.7102ZM64.3369 52.6402C65.2807 52.5392 65.9185 51.7562 65.9185 50.8216C65.9185 50.1901 65.6123 49.5839 65.0511 49.2555C64.541 48.9524 63.9032 48.9524 63.3165 48.9524H62.3217V55.4693H63.1379V52.716H63.4696L65.4083 55.4693H66.4031L64.3369 52.6402ZM63.1379 49.6849H63.3675C64.1838 49.6849 65.1532 49.8365 65.1532 50.8468C65.1532 51.8825 64.2348 52.034 63.4186 52.034H63.1635V49.6849H63.1379ZM68.9796 48.9776H69.7958V55.4945H68.9796V48.9776ZM73.0865 55.4693H73.9028V50.6195L78.8261 55.7471V48.9776H78.0098V53.7769L73.0865 48.6493V55.4693ZM82.9586 51.7814V48.9776H82.1423V55.4693H82.9586V52.7665L83.2902 52.4382L85.7646 55.4693H86.8615L83.8514 51.8825L86.8105 48.9776H85.7391L82.9586 51.7814ZM95.2795 0.277852C95.7387 0.277852 96.1213 0.429407 96.4275 0.757777C96.7336 1.06089 96.9121 1.46504 96.9121 1.89444C96.9121 2.34911 96.7591 2.728 96.4275 3.03111C96.1213 3.35948 95.7132 3.51103 95.2795 3.51103C94.8204 3.51103 94.4377 3.35948 94.1061 3.03111C93.8 2.728 93.6214 2.32385 93.6214 1.89444C93.6214 1.43978 93.7745 1.06089 94.1061 0.757777C94.4377 0.454666 94.8204 0.277852 95.2795 0.277852ZM97.1927 1.89444C97.1927 1.38926 97.0142 0.934591 96.6315 0.555703C96.2489 0.202074 95.8152 0 95.2795 0C94.7439 0 94.3102 0.176815 93.9276 0.555703C93.5449 0.934591 93.3664 1.364 93.3664 1.89444C93.3664 2.42489 93.5449 2.85429 93.9276 3.23318C94.3102 3.61207 94.7439 3.78888 95.2795 3.78888C95.8152 3.78888 96.2489 3.61207 96.6315 3.23318C96.9887 2.87955 97.1927 2.42489 97.1927 1.89444ZM95.7897 1.49029C95.7897 1.64185 95.7132 1.76815 95.5601 1.81866C95.4836 1.84392 95.3561 1.86918 95.203 1.86918H94.8714V1.11141H95.1775C95.3816 1.11141 95.5346 1.13667 95.6367 1.18718C95.7387 1.26296 95.7897 1.33874 95.7897 1.49029ZM94.5143 0.858814V2.93007H94.8714V2.12178H95.152C95.3561 2.12178 95.4836 2.14703 95.5601 2.19755C95.6877 2.27333 95.7642 2.42489 95.7642 2.67748V2.93007H96.1213L96.0958 2.90481C96.0958 2.87955 96.0703 2.85429 96.0703 2.80377V2.50066C96.0703 2.39963 96.0193 2.29859 95.9683 2.17229C95.8918 2.07126 95.7642 1.99548 95.6112 1.97022C95.7387 1.94496 95.8407 1.9197 95.9173 1.86918C96.0448 1.79341 96.1213 1.64185 96.1213 1.46504C96.1213 1.21244 96.0193 1.03563 95.7897 0.934591C95.6622 0.884073 95.4836 0.858814 95.203 0.858814H94.5143Z" fill="#9B99AB"/>
</g>
<defs>
<clipPath id="clip0_110_7305">
<rect width="97" height="55.7471" fill="white" transform="translate(0.200195)"/>
</clipPath>
</defs>
</svg>
